<?xml version="1.0" encoding="UTF-8" standalone="no"?>
<svg width="120px" height="120px" viewBox="0 0 120 120" version="1.1" xmlns="http://www.w3.org/2000/svg" xmlns:xlink="http://www.w3.org/1999/xlink" xmlns:sketch="http://www.bohemiancoding.com/sketch/ns">
    <!-- Generator: Sketch 3.5.2 (25235) - http://www.bohemiancoding.com/sketch -->
    <title>Airbnb</title>
    <desc>Created with Sketch.</desc>
    <defs>
        <path d="M101.886896,79.2514595 C101.428778,78.1487568 100.97066,76.9552432 100.512543,75.9433514 C99.7800723,74.288 99.0450134,72.7260541 98.4031311,71.2549189 L98.3125428,71.1641081 C91.9868958,57.379027 85.2031311,43.4097297 78.051837,29.6246486 L77.777484,29.072 C77.0450134,27.6942703 76.3099546,26.2231351 75.577484,24.752 C74.6612487,23.0966486 73.7450134,21.3504865 72.277484,19.6977297 C69.3450134,16.0211892 65.1261899,14 60.6356017,14 C56.051837,14 51.9261899,16.0211892 48.9005428,19.5135135 C47.5261899,21.1688649 46.5167781,22.915027 45.6005428,24.5677838 C44.8680723,26.0389189 44.1330134,27.5100541 43.4005428,28.8877838 L43.1261899,29.4404324 C36.065484,43.2255135 29.1911311,57.1948108 22.865484,70.9798919 L22.7748958,71.1641081 C22.1330134,72.6352432 21.4005428,74.1971892 20.665484,75.8525405 C20.2073664,76.8644324 19.7492487,77.9671351 19.2911311,79.1606486 C18.0979546,82.5621622 17.7330134,85.7768649 18.1911311,89.0875676 C19.2005428,95.9814054 23.7843075,101.769946 30.1099546,104.343784 C32.4937193,105.353081 34.9680723,105.814919 37.5356017,105.814919 C38.2680723,105.814919 39.1868958,105.724108 39.9193664,105.630703 C42.9450134,105.26227 46.0612487,104.252973 49.0868958,102.506811 C52.8450134,100.392216 56.4219546,97.3617297 60.4544252,92.9483243 C64.489484,97.3591351 68.1544252,100.392216 71.8219546,102.506811 C74.8476017,104.252973 77.963837,105.264865 80.989484,105.630703 C81.7245428,105.721514 82.6407781,105.814919 83.3732487,105.814919 C85.9407781,105.814919 88.5083075,105.355676 90.7988958,104.343784 C97.2151311,101.769946 101.708308,95.888 102.717719,89.0875676 C103.445013,85.8702703 103.077484,82.652973 101.886896,79.2514595 L101.886896,79.2514595 L101.886896,79.2514595 Z M60.539837,84.0307027 C55.5885428,77.7803243 52.3817193,71.900973 51.2791311,66.9375135 C50.8210134,64.8229189 50.727837,62.9859459 51.0047781,61.3305946 C51.1885428,59.8594595 51.7372487,58.5725405 52.4723075,57.4698378 C54.2141899,54.9894054 57.1466605,53.4248649 60.539837,53.4248649 C63.9304252,53.4248649 66.9560723,54.896 68.6073664,57.4698378 C69.3424252,58.5725405 69.8911311,59.8594595 70.0748958,61.3305946 C70.3492487,62.9859459 70.2586605,64.9137297 69.8005428,66.9375135 C68.6979546,71.8075676 65.4911311,77.6895135 60.539837,84.0307027 L60.539837,84.0307027 L60.539837,84.0307027 Z M97.1193664,88.3507027 C96.477484,93.1299459 93.2680723,97.2657297 88.777484,99.1027027 C86.577484,100.021189 84.1937193,100.298811 81.8099546,100.021189 C79.5167781,99.7461622 77.2261899,99.0092973 74.8424252,97.6315676 C71.5424252,95.7945946 68.2424252,92.9431351 64.3911311,88.7165405 C70.4424252,81.2726486 74.1099546,74.4722162 75.4843075,68.4060541 C76.1261899,65.5571892 76.2167781,62.9833514 75.9424252,60.5937297 C75.5748958,58.2975135 74.7492487,56.1829189 73.4680723,54.3433514 C70.6261899,50.2075676 65.8586605,47.8179459 60.5424252,47.8179459 C55.2261899,47.8179459 50.4586605,50.2983784 47.6167781,54.3433514 C46.3330134,56.1803243 45.5073664,58.2949189 45.1424252,60.5937297 C44.777484,62.9833514 44.8680723,65.648 45.6005428,68.4060541 C46.9748958,74.4722162 50.7356017,81.3634595 56.6937193,88.8073514 C52.9356017,93.0339459 49.5424252,95.8854054 46.2424252,97.7223784 C43.8586605,99.1001081 41.565484,99.836973 39.2748958,100.112 C36.8005428,100.387027 34.4167781,100.021189 32.3073664,99.1935135 C27.8141899,97.3565405 24.6073664,93.2207568 23.965484,88.4415135 C23.6911311,86.1427027 23.8748958,83.8464865 24.7911311,81.2726486 C25.065484,80.3541622 25.5236017,79.4356757 25.9817193,78.332973 C26.6236017,76.8618378 27.3560723,75.2998919 28.0911311,73.7379459 L28.1817193,73.5537297 C34.5073664,59.8594595 41.2911311,45.8901622 48.351837,32.2892973 L48.6261899,31.7392432 C49.3586605,30.3589189 50.0937193,28.8903784 50.8261899,27.5126486 C51.5586605,26.0415135 52.3843075,24.6637838 53.3937193,23.4702703 C55.3193664,21.2648649 57.8868958,20.0687568 60.7287781,20.0687568 C63.5706605,20.0687568 66.1381899,21.2648649 68.063837,23.4702703 C69.0706605,24.6637838 69.8963075,26.0441081 70.6313664,27.5126486 C71.363837,28.8903784 72.0988958,30.3615135 72.8313664,31.7392432 L73.1057193,32.2892973 C80.0732487,45.9835676 86.8570134,59.9528649 93.1826605,73.6471351 L93.1826605,73.7379459 C93.9151311,75.2090811 94.5570134,76.8618378 95.2920723,78.332973 C95.7501899,79.4356757 96.2083075,80.3541622 96.4826605,81.2726486 C97.2099546,83.6648649 97.4868958,85.9610811 97.1193664,88.3507027 L97.1193664,88.3507027 L97.1193664,88.3507027 Z" id="path-1"></path>
    </defs>
    <g id="Popular-Apps" stroke="none" stroke-width="1" fill="none" fill-rule="evenodd" sketch:type="MSPage">
        <g id="iOS/iPhone-6/App-Badges/Airbnb/Large" sketch:type="MSLayerGroup">
            <g id="Airbnb">
                <rect id="app-bg" fill="#FF5A5F" sketch:type="MSShapeGroup" x="0" y="0" width="120" height="120" rx="28"></rect>
                <mask id="mask-2" sketch:name="Airbnb-logo" fill="white">
                    <use xlink:href="#path-1"></use>
                </mask>
                <use id="Airbnb-logo" fill="#FFFFFF" sketch:type="MSShapeGroup" xlink:href="#path-1"></use>
            </g>
        </g>
    </g>
</svg>