<?xml version="1.0" encoding="UTF-8" standalone="no"?>
<svg width="120px" height="120px" viewBox="0 0 120 120" version="1.1" xmlns="http://www.w3.org/2000/svg" xmlns:xlink="http://www.w3.org/1999/xlink" xmlns:sketch="http://www.bohemiancoding.com/sketch/ns">
    <!-- Generator: Sketch 3.5.2 (25235) - http://www.bohemiancoding.com/sketch -->
    <title>AirPort Utility</title>
    <desc>Created with Sketch.</desc>
    <defs>
        <linearGradient x1="50%" y1="100%" x2="50%" y2="3.061617e-15%" id="linearGradient-1">
            <stop stop-color="#235EEF" offset="0%"></stop>
            <stop stop-color="#19DEFE" offset="100%"></stop>
        </linearGradient>
    </defs>
    <g id="Popular-Apps" stroke="none" stroke-width="1" fill="none" fill-rule="evenodd" sketch:type="MSPage">
        <g id="iOS/iPhone-6/App-Badges/AirPort-Utility/Large" sketch:type="MSLayerGroup" transform="translate(-16.000000, 0.000000)">
            <g id="AirPort-Utility" transform="translate(16.000000, 0.000000)" sketch:type="MSShapeGroup">
                <rect id="app-bg" fill="#FFFFFF" x="0" y="0" width="120" height="120" rx="28"></rect>
                <path d="M59.5578899,79.4573847 C52.8492468,79.4573847 48.7041031,81.2809897 43.9293632,85.3532408 L59.5578899,102.461437 L76.2064225,85.3732192 C71.4283482,81.2909789 66.2798702,79.4573847 59.5578899,79.4573847 Z M94.6645337,66.4350005 C84.5447604,57.957602 72.5467774,53.0545734 59.9765877,53.0545734 C47.5400564,53.0545734 35.3200349,57.8949627 25.3383082,66.089487 L33.5870647,76.1372737 C41.3501502,69.7641486 50.7153243,66.0545734 59.9765877,66.0545734 C69.295491,66.0545734 78.4149539,69.7812821 86.3164453,76.4004117 L94.6645337,66.4350005 Z M112.68567,45.8017175 C97.6096395,32.8811003 79.1624402,25.5 59.7931034,25.5 C41.2740296,25.5 23.4398151,32.9292055 7.98814067,45.732019 L16.282372,55.7423001 C29.5475906,44.751121 44.5537489,38.5 59.7931034,38.5 C75.9299478,38.5 91.420951,44.698266 104.226022,55.6726016 L112.68567,45.8017175 Z" id="wifi-icon" fill="url(#linearGradient-1)"></path>
            </g>
        </g>
    </g>
</svg>