<?xml version="1.0" encoding="UTF-8" standalone="no"?>
<svg width="120px" height="120px" viewBox="0 0 120 120" version="1.1" xmlns="http://www.w3.org/2000/svg" xmlns:xlink="http://www.w3.org/1999/xlink" xmlns:sketch="http://www.bohemiancoding.com/sketch/ns">
    <!-- Generator: Sketch 3.5.2 (25235) - http://www.bohemiancoding.com/sketch -->
    <title>App Store</title>
    <desc>Created with Sketch.</desc>
    <defs>
        <linearGradient x1="50%" y1="0%" x2="50%" y2="100%" id="linearGradient-1">
            <stop stop-color="#1AD6FD" offset="0%"></stop>
            <stop stop-color="#1E62F0" offset="100%"></stop>
        </linearGradient>
    </defs>
    <g id="Popular-Apps" stroke="none" stroke-width="1" fill="none" fill-rule="evenodd" sketch:type="MSPage">
        <g id="iOS/iPhone-6/App-Badges/App-Store/Large" sketch:type="MSLayerGroup">
            <g id="App-Store" sketch:type="MSShapeGroup">
                <rect id="app-bg" fill="url(#linearGradient-1)" x="0" y="0" width="120" height="120" rx="28"></rect>
                <path d="M48.5280029,63.8808987 L72.2234554,63.8808987 L67.8782423,56.6492497 L52.873216,56.6492497 L48.5280029,63.8808987 Z M36.2661921,63.8808987 L26.884379,63.8808987 L26.884379,56.6492497 L40.6114052,56.6492497 L36.2661921,63.8808987 Z M84.0930782,63.8808987 L93.160667,63.8808987 L93.160667,56.6492497 L79.7478651,56.6492497 L84.0930782,63.8808987 Z M60,112 C88.7188084,112 112,88.7188084 112,60 C112,31.2811916 88.7188084,8 60,8 C31.2811916,8 8,31.2811916 8,60 C8,88.7188084 31.2811916,112 60,112 Z M60,107 C85.9573845,107 107,85.9573845 107,60 C107,34.0426155 85.9573845,13 60,13 C34.0426155,13 13,34.0426155 13,60 C13,85.9573845 34.0426155,107 60,107 Z M81.7483219,69.8902655 C81.7483219,69.8902655 77.6736062,71.6672451 79.2216029,75.8006028 C79.4574033,76.4302212 82.3230578,78.8985728 84.3917869,79.9301375 C86.460516,80.9617022 86.9899983,84.002411 86.9543831,84.8198637 C88.2549426,82.85406 91.6421696,74.2368715 87.2408791,70.4169958 C84.3903162,68.1461054 81.7483219,69.8902655 81.7483219,69.8902655 Z M56.6970473,30.6217101 C55.2768779,31.475034 54.821061,33.3242261 55.6660847,34.7305817 L73.3470748,64.1566906 L80.6698626,59.7567158 L62.9888725,30.3306069 C62.138088,28.9146637 60.3042053,28.4543109 58.8769466,29.3118944 L56.6970473,30.6217101 Z M73.971477,64.9120193 L77.6960516,71.1107524 L84.797285,66.8439009 L81.0727104,60.6451678 L73.971477,64.9120193 Z M48.5273371,45.312553 L33.2462647,70.7445283 L40.6605549,75.1994833 L55.9416273,49.767508 L48.5273371,45.312553 Z M55.2316514,40.4383503 C53.8151689,39.5872418 51.9757782,40.0474734 51.1246901,41.4639219 L49.3701428,44.383979 L56.7032598,48.7901602 L58.4578071,45.8701031 C59.3095367,44.452587 58.8542005,42.6149974 57.4352315,41.7623948 L55.2316514,40.4383503 Z M32.5652811,72.183654 L29.7309128,84.9434793 L39.6665145,76.4505055 L32.5652811,72.183654 Z" id="app-store" fill="#FFFFFF"></path>
            </g>
        </g>
    </g>
</svg>