<?xml version="1.0" encoding="UTF-8" standalone="no"?>
<svg width="120px" height="120px" viewBox="0 0 120 120" version="1.1" xmlns="http://www.w3.org/2000/svg" xmlns:xlink="http://www.w3.org/1999/xlink" xmlns:sketch="http://www.bohemiancoding.com/sketch/ns">
    <!-- Generator: Sketch 3.5.2 (25235) - http://www.bohemiancoding.com/sketch -->
    <title>Connect</title>
    <desc>Created with Sketch.</desc>
    <defs>
        <linearGradient x1="50%" y1="100%" x2="50%" y2="3.061617e-15%" id="linearGradient-1">
            <stop stop-color="#1D62F0" offset="0%"></stop>
            <stop stop-color="#1AD6FD" offset="100%"></stop>
        </linearGradient>
    </defs>
    <g id="Popular-Apps" stroke="none" stroke-width="1" fill="none" fill-rule="evenodd" sketch:type="MSPage">
        <g id="iOS/iPhone-6/App-Badges/Connect/Large" sketch:type="MSLayerGroup">
            <g id="Connect" sketch:type="MSShapeGroup">
                <rect id="app-bg" fill="url(#linearGradient-1)" x="0" y="0" width="120" height="120" rx="28"></rect>
                <path d="M47.5,50.5 L72.5,50.5" id="earth" stroke="#FFFFFF" stroke-width="5" stroke-linecap="round"></path>
                <path d="M61,82.5986328 L61,99.9946289 C61,108.742187 71.1561935,109.215415 75.8468384,107.758822 C96.2114271,101.434976 110.836914,82.4445159 110.836914,60 C110.836914,32.3857625 88.6142375,9.47607422 61,9.47607422 C33.3857625,9.47607422 10.5039062,32.3857625 10.5039062,60 C10.5039062,83.0662859 24.5053711,100.830109 46.5820312,107.75882" id="cord" stroke="#FFFFFF" stroke-width="5" stroke-linecap="round"></path>
                <path d="M50,75 C49.4477153,75 49,75.4426603 49,75.9989566 L49,77.0010434 C49,77.5527519 49.4389178,78 50.0030706,78 L70.9969294,78 C71.55091,78 72,77.5573397 72,77.0010434 L72,75.9989566 C72,75.4472481 71.5561352,75 71,75 L71,75 C70.4477153,75 70.0654493,74.5636716 70.1487705,74.0081969 L72.8512295,55.9918031 C72.9333932,55.4440454 72.5882074,54.8466765 72.0507627,54.7554074 C72.0507627,54.7554074 73,54.3530273 60,54.3530273 C47,54.3530273 47.9492373,54.7554074 47.9492373,54.7554074 C47.424988,54.8904922 47.0872657,55.4363284 47.1956361,55.9781804 L50.8043639,74.0218196 C50.9124107,74.5620537 50.5561352,75 50,75 L50,75 Z" id="socket-body" fill="#FFFFFF"></path>
                <path d="M50.9857178,45.5000001 L50.9857178,32.9176738 C50.9857178,31.8247282 51.8654555,30.9387207 52.9677124,30.9387207 L52.9677124,30.9387207 C54.0623378,30.9387207 54.949707,31.8276744 54.949707,32.9176738 L54.949707,45.5" id="Line" stroke="#FFFFFF" stroke-width="2" stroke-linecap="round"></path>
                <path d="M64.9857178,45.5000001 L64.9857178,32.9176738 C64.9857178,31.8247282 65.8654555,30.9387207 66.9677124,30.9387207 L66.9677124,30.9387207 C68.0623378,30.9387207 68.949707,31.8276744 68.949707,32.9176738 L68.949707,45.5" id="Line" stroke="#FFFFFF" stroke-width="2" stroke-linecap="round"></path>
            </g>
        </g>
    </g>
</svg>