<?xml version="1.0" encoding="UTF-8" standalone="no"?>
<svg width="120px" height="120px" viewBox="0 0 120 120" version="1.1" xmlns="http://www.w3.org/2000/svg" xmlns:xlink="http://www.w3.org/1999/xlink" xmlns:sketch="http://www.bohemiancoding.com/sketch/ns">
    <!-- Generator: Sketch 3.5.2 (25235) - http://www.bohemiancoding.com/sketch -->
    <title>Contacts</title>
    <desc>Created with Sketch.</desc>
    <defs>
        <rect id="path-1" x="0" y="0" width="120" height="120" rx="28"></rect>
        <filter x="-50%" y="-50%" width="200%" height="200%" filterUnits="objectBoundingBox" id="filter-3">
            <feOffset dx="0" dy="1" in="SourceAlpha" result="shadowOffsetOuter1"></feOffset>
            <feGaussianBlur stdDeviation="2" in="shadowOffsetOuter1" result="shadowBlurOuter1"></feGaussianBlur>
            <feColorMatrix values="0 0 0 0 0   0 0 0 0 0   0 0 0 0 0  0 0 0 0.245 0" in="shadowBlurOuter1" type="matrix" result="shadowMatrixOuter1"></feColorMatrix>
            <feMerge>
                <feMergeNode in="shadowMatrixOuter1"></feMergeNode>
                <feMergeNode in="SourceGraphic"></feMergeNode>
            </feMerge>
        </filter>
        <filter x="-50%" y="-50%" width="200%" height="200%" filterUnits="objectBoundingBox" id="filter-4">
            <feOffset dx="0" dy="1" in="SourceAlpha" result="shadowOffsetOuter1"></feOffset>
            <feGaussianBlur stdDeviation="2" in="shadowOffsetOuter1" result="shadowBlurOuter1"></feGaussianBlur>
            <feColorMatrix values="0 0 0 0 0   0 0 0 0 0   0 0 0 0 0  0 0 0 0.245 0" in="shadowBlurOuter1" type="matrix" result="shadowMatrixOuter1"></feColorMatrix>
            <feMerge>
                <feMergeNode in="shadowMatrixOuter1"></feMergeNode>
                <feMergeNode in="SourceGraphic"></feMergeNode>
            </feMerge>
        </filter>
        <filter x="-50%" y="-50%" width="200%" height="200%" filterUnits="objectBoundingBox" id="filter-5">
            <feOffset dx="0" dy="1" in="SourceAlpha" result="shadowOffsetOuter1"></feOffset>
            <feGaussianBlur stdDeviation="2" in="shadowOffsetOuter1" result="shadowBlurOuter1"></feGaussianBlur>
            <feColorMatrix values="0 0 0 0 0   0 0 0 0 0   0 0 0 0 0  0 0 0 0.245 0" in="shadowBlurOuter1" type="matrix" result="shadowMatrixOuter1"></feColorMatrix>
            <feMerge>
                <feMergeNode in="shadowMatrixOuter1"></feMergeNode>
                <feMergeNode in="SourceGraphic"></feMergeNode>
            </feMerge>
        </filter>
        <filter x="-50%" y="-50%" width="200%" height="200%" filterUnits="objectBoundingBox" id="filter-6">
            <feOffset dx="0" dy="0" in="SourceAlpha" result="shadowOffsetOuter1"></feOffset>
            <feGaussianBlur stdDeviation="2" in="shadowOffsetOuter1" result="shadowBlurOuter1"></feGaussianBlur>
            <feColorMatrix values="0 0 0 0 0   0 0 0 0 0   0 0 0 0 0  0 0 0 0.245 0" in="shadowBlurOuter1" type="matrix" result="shadowMatrixOuter1"></feColorMatrix>
            <feMerge>
                <feMergeNode in="shadowMatrixOuter1"></feMergeNode>
                <feMergeNode in="SourceGraphic"></feMergeNode>
            </feMerge>
        </filter>
    </defs>
    <g id="Popular-Apps" stroke="none" stroke-width="1" fill="none" fill-rule="evenodd" sketch:type="MSPage">
        <g id="iOS/iPhone-6/App-Badges/Contacts/Large" sketch:type="MSLayerGroup">
            <g id="Contacts">
                <mask id="mask-2" sketch:name="app-bg" fill="white">
                    <use xlink:href="#path-1"></use>
                </mask>
                <g id="app-bg"></g>
                <rect id="orange" fill="#FF9500" sketch:type="MSShapeGroup" mask="url(#mask-2)" x="97" y="90" width="23" height="30"></rect>
                <rect id="green" fill="#4CD964" filter="url(#filter-3)" sketch:type="MSShapeGroup" mask="url(#mask-2)" x="97" y="60" width="23" height="30"></rect>
                <rect id="blue" fill="#5AC8FA" filter="url(#filter-4)" sketch:type="MSShapeGroup" mask="url(#mask-2)" x="97" y="30" width="23" height="30"></rect>
                <rect id="grey" fill="#C9C8C5" filter="url(#filter-5)" sketch:type="MSShapeGroup" mask="url(#mask-2)" x="97" y="0" width="23" height="30"></rect>
                <rect id="person-bg" fill="#DDDDDD" filter="url(#filter-6)" sketch:type="MSShapeGroup" mask="url(#mask-2)" x="0" y="0" width="97" height="120"></rect>
                <path d="M-0.205078125,121.206543 C-0.205078125,121.206543 0.0645464484,105.849224 -0.205078125,105.59375 C1.80322266,102.682129 11.5444336,99.2792969 16.9816895,98.4958496 C22.4189453,97.7124023 29.5575209,95.628514 31.5727539,94.306572 C35.6171225,92.0073019 34.3527832,80.8486328 34.3527832,80.8486328 L31.0449219,77.1296387 C31.0449219,77.1296387 29.7917264,66.7308073 28.4436035,64.6870117 C23.7248535,62.5 25.6774376,57.8104438 24.6342773,56.423584 C24.3046875,55.9854012 22.9708703,54.6690064 22.7497559,51.1838379 C22.4350586,46.2236328 25.1711426,46.9455566 25.1711426,46.9455566 C25.1711426,46.9455566 23.2116041,36.8248175 23.2116041,30.4379562 C23.2116041,23.4085819 25.3686135,20.0547414 30.2358398,17.3613281 C33.2248535,15.7072754 38.8627642,9.68648401 48.9291992,9.27441406 C55.7282715,8.99609375 59.7866591,12.1949454 62.5844727,12.5800781 C70.6630859,13.6921387 74.9795222,21.0227056 74.9795222,30.4379562 C74.9795222,36.8248175 73.0649414,46.9455566 73.0649414,46.9455566 C73.0649414,46.9455566 75.8730469,46.3260489 75.8730469,49.6472168 C75.8730469,52.9683847 73.9010239,55.9854015 73.9010239,55.9854015 C73.9010239,55.9854015 74.1693546,58.6018512 72.9093018,61.7290039 C72.3951135,63.0050974 70.1254421,63.8799286 69.2084961,65.1878662 C68.4447088,66.2773372 69.2451172,67.8104248 68.6383057,69.8109131 C68.0314941,71.8114014 67.7521973,76.022583 67.3208008,76.8037109 C66.8894043,77.5848389 63.8354492,81.7556152 63.8354492,81.7556152 C63.8354492,81.7556152 62.7957193,92.3840795 66.8400879,94.6833496 C68.4474635,95.6205922 74.748291,98.2839355 80.331543,98.6303711 C85.9147949,98.9768066 93.3483887,102.978394 97,105.429321 C97.1036377,105.489863 97,121.206543 97,121.206543 L-0.205078125,121.206543 Z" id="person" fill="#9A9A9A" sketch:type="MSShapeGroup" mask="url(#mask-2)"></path>
                <text id="A" opacity="0.5" sketch:type="MSTextLayer" mask="url(#mask-2)" font-family="SF UI Text" font-size="10" font-weight="normal" sketch:alignment="middle" fill="#000000">
                    <tspan x="105.130859" y="22">A</tspan>
                </text>
                <text id="B" opacity="0.5" sketch:type="MSTextLayer" mask="url(#mask-2)" font-family="SF UI Text" font-size="10" font-weight="normal" sketch:alignment="middle" fill="#000000">
                    <tspan x="105.213867" y="49">B</tspan>
                </text>
                <text id="C" opacity="0.5" sketch:type="MSTextLayer" mask="url(#mask-2)" font-family="SF UI Text" font-size="10" font-weight="normal" sketch:alignment="middle" fill="#000000">
                    <tspan x="104.920898" y="79">C</tspan>
                </text>
                <text id="D" opacity="0.5" sketch:type="MSTextLayer" mask="url(#mask-2)" font-family="SF UI Text" font-size="10" font-weight="normal" sketch:alignment="middle" fill="#000000">
                    <tspan x="104.869629" y="106">D</tspan>
                </text>
            </g>
        </g>
    </g>
</svg>