<?xml version="1.0" encoding="UTF-8" standalone="no"?>
<svg width="120px" height="120px" viewBox="0 0 120 120" version="1.1" xmlns="http://www.w3.org/2000/svg" xmlns:xlink="http://www.w3.org/1999/xlink" xmlns:sketch="http://www.bohemiancoding.com/sketch/ns">
    <!-- Generator: Sketch 3.5.2 (25235) - http://www.bohemiancoding.com/sketch -->
    <title>Evernote</title>
    <desc>Created with Sketch.</desc>
    <defs>
        <linearGradient x1="51.1173487%" y1="100%" x2="51.1173487%" y2="1.67610013%" id="linearGradient-1">
            <stop stop-color="#18AB39" offset="0%"></stop>
            <stop stop-color="#5DEA4A" offset="100%"></stop>
        </linearGradient>
        <radialGradient cx="50%" cy="50%" fx="50%" fy="50%" r="50%" id="radialGradient-2">
            <stop stop-color="#FFFFFF" offset="0%"></stop>
            <stop stop-color="#FFFFFF" stop-opacity="0" offset="100%"></stop>
        </radialGradient>
        <rect id="path-3" x="0" y="0" width="120" height="120" rx="28"></rect>
        <linearGradient x1="50%" y1="100%" x2="50%" y2="3.061617e-15%" id="linearGradient-4">
            <stop stop-color="#292929" offset="0%"></stop>
            <stop stop-color="#666666" offset="100%"></stop>
        </linearGradient>
    </defs>
    <g id="Popular-Apps" stroke="none" stroke-width="1" fill="none" fill-rule="evenodd" sketch:type="MSPage">
        <g id="iOS/iPhone-6/App-Badges/Evernote/Large" sketch:type="MSLayerGroup">
            <g id="Evernote">
                <g id="app-bg">
                    <use fill="url(#linearGradient-1)" sketch:type="MSShapeGroup" xlink:href="#path-3"></use>
                    <use fill-opacity="0.5" fill="url(#radialGradient-2)" xlink:href="#path-3"></use>
                </g>
                <path d="M29.7818968,33.9463367 L29.7864423,33.9463367 L37.9648514,33.9463367 C38.4330332,33.9463367 38.8103059,33.5629521 38.8103059,33.0962726 C38.8103059,33.0928495 38.7114423,26.0550034 38.7114423,24.0981444 L38.7114423,24.0753239 C38.7114423,22.4676187 39.0478059,21.0664393 39.6330332,19.8923239 L39.9125786,19.364029 C39.8807605,19.3697341 39.8500786,19.3857085 39.8182605,19.4165162 L23.9296241,35.2379777 C23.8978059,35.2630803 23.8784877,35.29617 23.8693968,35.3304008 C24.1989423,35.1672341 24.6478059,34.9447341 24.7114423,34.9162085 C26.0943968,34.2897854 27.7728059,33.9463367 29.7818968,33.9463367 L29.7818968,33.9463367 Z M93.4148514,32.223388 C92.7648514,28.7318495 90.6978059,27.0111828 88.8284877,26.3345546 C86.8114423,25.6020162 82.7228059,24.8443751 77.5841696,24.2362085 C73.451215,23.7478495 68.5921241,23.7866444 65.6580332,23.8779264 C65.3057605,21.455529 63.613715,19.2419393 61.7205332,18.476311 C56.676215,16.4372982 48.8818968,16.9302213 46.8807605,17.4927469 C45.2898514,17.938888 43.5307605,18.8539905 42.5500786,20.2631572 C41.8932605,21.2045034 41.4682605,22.4105675 41.4648514,24.0947213 C41.4648514,25.0486187 41.4921241,27.2952982 41.5159877,29.2909521 C41.5398514,31.2934521 41.5659877,33.0837213 41.5659877,33.0962726 C41.5648514,34.8785546 40.126215,36.3287982 38.3432605,36.3310803 L30.1648514,36.3310803 C28.4193968,36.3310803 27.0864423,36.6254649 26.0682605,37.0898623 C25.0489423,37.5554008 24.326215,38.1818239 23.7773514,38.9234905 C22.6853059,40.3954136 22.4955332,42.2130675 22.5000786,44.0672341 C22.5000786,44.0672341 22.5159877,45.5825162 22.8796241,48.5160931 C23.1818968,50.7855931 25.6330332,66.6390034 27.9614423,71.4609777 C28.863715,73.3368239 29.4648514,74.1172854 31.238715,74.944529 C35.1898514,76.6435162 44.2148514,78.5330546 48.4443968,79.0739008 C52.6671241,79.615888 55.3171241,80.7569136 56.8966696,77.4319649 C56.901215,77.4239777 57.2125786,76.6047213 57.6409877,75.4032213 C59.0114423,71.2316316 59.2023514,67.5301444 59.2023514,64.8510162 C59.2023514,64.578311 59.601215,64.5657598 59.601215,64.8510162 C59.601215,66.7416957 59.2409877,73.4349521 64.276215,75.2297854 C66.263715,75.9372213 70.3864423,76.5682085 74.576215,77.0622726 C78.363715,77.4992854 81.1125786,78.99517 81.1125786,88.7543623 C81.1125786,94.6911187 79.8705332,95.50467 73.3784877,95.50467 C68.1159877,95.50467 66.1103059,95.6415931 66.1103059,91.4437598 C66.1103059,88.0503495 69.4523514,88.4063495 71.9296241,88.4063495 C73.0353059,88.4063495 72.2318968,87.5802469 72.2318968,85.4864649 C72.2318968,83.4040931 73.5296241,82.200311 72.3023514,82.1695034 C63.7375786,81.933311 58.6978059,82.1603751 58.6978059,92.9156828 C58.6978059,102.68058 62.4193968,104.49367 74.576215,104.49367 C84.1068968,104.49367 87.4671241,104.179888 91.4023514,91.9184264 C92.1818968,89.498311 94.0648514,82.111311 95.2046241,69.7083623 C95.9250786,61.8660931 94.5250786,38.1966572 93.4148514,32.223388 L93.4148514,32.223388 Z M76.7989423,58.3848239 C75.6216696,58.3437469 74.488715,58.4190546 73.4330332,58.5890675 C73.7307605,56.1792213 74.7216696,53.2205418 78.2318968,53.3449136 C82.1171241,53.4784136 82.6614423,57.1662085 82.6750786,59.6639136 C81.0364423,58.9302341 79.0091696,58.4635546 76.7989423,58.3848239 L76.7989423,58.3848239 Z" id="evernote-logo" fill="url(#linearGradient-4)" sketch:type="MSShapeGroup"></path>
            </g>
        </g>
    </g>
</svg>