<?xml version="1.0" encoding="UTF-8" standalone="no"?>
<svg width="120px" height="120px" viewBox="0 0 120 120" version="1.1" xmlns="http://www.w3.org/2000/svg" xmlns:xlink="http://www.w3.org/1999/xlink" xmlns:sketch="http://www.bohemiancoding.com/sketch/ns">
    <!-- Generator: Sketch 3.5.2 (25235) - http://www.bohemiancoding.com/sketch -->
    <title>Flinto</title>
    <desc>Created with Sketch.</desc>
    <defs></defs>
    <g id="Popular-Apps" stroke="none" stroke-width="1" fill="none" fill-rule="evenodd" sketch:type="MSPage">
        <g id="iOS/iPhone-6/App-Badges/Flinto/Large" sketch:type="MSLayerGroup">
            <g id="Flinto" sketch:type="MSShapeGroup">
                <rect id="app-bg" fill="#FF6858" x="0" y="0" width="120" height="120" rx="28"></rect>
                <g id="Flinto-logo" transform="translate(21.000000, 19.000000)">
                    <g id="Blue-paper" transform="translate(51.094802, 37.659193) rotate(-1.000000) translate(-51.094802, -37.659193) translate(24.109654, 0.465797)">
                        <rect id="paper-bg" fill="#FFFFFF" x="0" y="0" width="53.970297" height="74.3867925"></rect>
                        <rect id="Rectangle-142" fill="#4CB6FF" transform="translate(26.985149, 39.150943) scale(-1, 1) translate(-26.985149, -39.150943) " x="1.56435644" y="5.48113208" width="50.8415842" height="67.3396226"></rect>
                        <rect id="Rectangle-142" fill="#308FF5" x="35.980198" y="5.48113208" width="16.4257426" height="16.8349057"></rect>
                        <rect id="Rectangle-142" fill="#2C9EFF" x="35.980198" y="22.3160377" width="16.4257426" height="16.8349057"></rect>
                        <rect id="Rectangle-142" fill="#5BB9FF" x="35.980198" y="39.1509434" width="16.4257426" height="16.8349057"></rect>
                        <rect id="Rectangle-142" fill="#60C4FF" x="35.980198" y="55.9858491" width="16.4257426" height="16.8349057"></rect>
                    </g>
                    <g id="Red-paper" transform="translate(33.026815, 41.319303) rotate(-10.000000) translate(-33.026815, -41.319303) translate(6.041667, 4.125907)">
                        <rect id="paper-bg" fill="#FFFFFF" x="0" y="0" width="53.970297" height="74.3867925"></rect>
                        <rect id="Rectangle-142" fill="#FE695B" transform="translate(26.985149, 39.150943) scale(-1, 1) translate(-26.985149, -39.150943) " x="1.56435644" y="5.48113208" width="50.8415842" height="67.3396226"></rect>
                        <rect id="Rectangle-142" fill="#F75E59" x="35.980198" y="5.48113208" width="16.4257426" height="16.8349057"></rect>
                        <rect id="Rectangle-142" fill="#FD755D" x="35.980198" y="22.3160377" width="16.4257426" height="16.8349057"></rect>
                        <rect id="Rectangle-142" fill="#FD7E65" x="35.980198" y="39.1509434" width="16.4257426" height="16.8349057"></rect>
                        <rect id="Rectangle-142" fill="#FD8E7A" x="35.980198" y="55.9858491" width="16.4257426" height="16.8349057"></rect>
                    </g>
                    <path d="M67.4628123,12.9823263 C48.1740133,15.7720678 32.2271863,30.9930784 29.3782901,51.2858149" id="Oval-60" stroke="#FFFEFF" stroke-width="4"></path>
                    <ellipse id="Oval-61" fill="#FFFEFF" cx="67.6584158" cy="13.7028302" rx="5.08415842" ry="5.08962264"></ellipse>
                    <ellipse id="Oval-61" fill="#FFFEFF" cx="30.1138614" cy="51.2877358" rx="5.08415842" ry="5.08962264"></ellipse>
                </g>
            </g>
        </g>
    </g>
</svg>