<?xml version="1.0" encoding="UTF-8" standalone="no"?>
<svg width="120px" height="120px" viewBox="0 0 120 120" version="1.1" xmlns="http://www.w3.org/2000/svg" xmlns:xlink="http://www.w3.org/1999/xlink" xmlns:sketch="http://www.bohemiancoding.com/sketch/ns">
    <!-- Generator: Sketch 3.5.2 (25235) - http://www.bohemiancoding.com/sketch -->
    <title>Framerjs</title>
    <desc>Created with Sketch.</desc>
    <defs>
        <linearGradient x1="50%" y1="0%" x2="50%" y2="100%" id="linearGradient-1">
            <stop stop-color="#E2E2E2" offset="0%"></stop>
            <stop stop-color="#FFFFFF" offset="100%"></stop>
        </linearGradient>
        <linearGradient x1="50%" y1="100%" x2="50%" y2="3.061617e-15%" id="linearGradient-2">
            <stop stop-color="#0F2749" offset="0%"></stop>
            <stop stop-color="#163F75" offset="100%"></stop>
        </linearGradient>
        <linearGradient x1="50%" y1="98.3438297%" x2="50%" y2="0%" id="linearGradient-3">
            <stop stop-color="#0A8FF8" offset="0%"></stop>
            <stop stop-color="#23E0FB" offset="100%"></stop>
        </linearGradient>
        <filter x="-50%" y="-50%" width="200%" height="200%" filterUnits="objectBoundingBox" id="filter-4">
            <feOffset dx="-2" dy="2" in="SourceAlpha" result="shadowOffsetOuter1"></feOffset>
            <feGaussianBlur stdDeviation="3" in="shadowOffsetOuter1" result="shadowBlurOuter1"></feGaussianBlur>
            <feColorMatrix values="0 0 0 0 0   0 0 0 0 0.171980275   0 0 0 0 0.561623087  0 0 0 0.7 0" in="shadowBlurOuter1" type="matrix" result="shadowMatrixOuter1"></feColorMatrix>
            <feOffset dx="-1" dy="1" in="SourceAlpha" result="shadowOffsetOuter2"></feOffset>
            <feGaussianBlur stdDeviation="1" in="shadowOffsetOuter2" result="shadowBlurOuter2"></feGaussianBlur>
            <feColorMatrix values="0 0 0 0 0   0 0 0 0 0.164705882   0 0 0 0 0.537254902  0 0 0 0.7 0" in="shadowBlurOuter2" type="matrix" result="shadowMatrixOuter2"></feColorMatrix>
            <feMerge>
                <feMergeNode in="shadowMatrixOuter1"></feMergeNode>
                <feMergeNode in="shadowMatrixOuter2"></feMergeNode>
                <feMergeNode in="SourceGraphic"></feMergeNode>
            </feMerge>
        </filter>
        <linearGradient x1="33.7402424%" y1="5.55111512e-15%" x2="17.088868%" y2="35.1379292%" id="linearGradient-5">
            <stop stop-color="#F8FCFB" offset="0%"></stop>
            <stop stop-color="#3DAFEB" offset="70.838648%"></stop>
            <stop stop-color="#0075E9" offset="100%"></stop>
        </linearGradient>
    </defs>
    <g id="Popular-Apps" stroke="none" stroke-width="1" fill="none" fill-rule="evenodd" sketch:type="MSPage">
        <g id="iOS/iPhone-6/App-Badges/Framerjs/Large" sketch:type="MSLayerGroup">
            <g id="Framerjs" sketch:type="MSShapeGroup">
                <path d="M0,28.0021386 C0,12.5369845 12.5306667,0 28.0021386,0 L91.9978614,0 C107.463015,0 120,12.5306667 120,28.0021386 L120,91.9978614 C120,107.463015 107.469333,120 91.9978614,120 L28.0021386,120 C12.5369845,120 0,107.469333 0,91.9978614 L0,28.0021386 Z" id="app-bg" fill="url(#linearGradient-1)"></path>
                <rect id="bottom" fill="url(#linearGradient-2)" x="11" y="35" width="74" height="74" rx="8"></rect>
                <rect id="middle" fill="url(#linearGradient-3)" x="22" y="23" width="74" height="74" rx="8"></rect>
                <g id="Left-Bevel" transform="translate(32.000000, 58.000000)">
                    <path d="M20.5,2.5 L2.47224364,2.5" id="Line" stroke="#0268CE" stroke-linecap="square"></path>
                    <circle id="Oval-25" fill="#0268CE" cx="2.5" cy="2.5" r="2.5"></circle>
                </g>
                <g id="Right-Bevel" transform="translate(75.500000, 60.500000) rotate(-180.000000) translate(-75.500000, -60.500000) translate(65.000000, 58.000000)">
                    <path d="M20.5,2.5 L2.47224364,2.5" id="Line" stroke="#0268CE" stroke-linecap="square"></path>
                    <circle id="Oval-25" fill="#0268CE" cx="2.5" cy="2.5" r="2.5"></circle>
                </g>
                <g id="Path" transform="translate(32.000000, 39.000000)" stroke="#FFFFFF">
                    <circle id="Oval-23" stroke-width="2" cx="4.75" cy="42.75" r="4.75"></circle>
                    <circle id="Oval-23" stroke-width="2" cx="50.75" cy="4.75" r="4.75"></circle>
                    <path d="M5.50439453,38.8413086 L5.72459843,36.3903345 C6.47105183,28.0819534 13.841156,21.3466797 22.1885799,21.3466797 L35.2596622,21.3466797 C43.6060147,21.3466797 50.6288178,14.5794944 50.8544909,8.63134766 L50.8544909,8.63134766" id="Line" stroke-width="2" stroke-linecap="square"></path>
                    <circle id="Oval-23" stroke-width="3" fill="#0A90F9" cx="26.875" cy="20.875" r="9.125"></circle>
                </g>
                <path d="M35,35.3798828 L35,18.999765 C35,14.5816168 38.5827606,11 43.0036109,11 L99.9963891,11 C104.416661,11 108,14.5816681 108,19.0072221 L108,76.9927779 C108,81.4150446 104.412221,85 100.000188,85 L96.671797,85 C95.5702369,85 93.9227052,84.5068959 93.0031348,83.9059425 L36.6741113,47.0940575 C35.7495252,46.4898262 35,45.1128013 35,44.0024372 L35,35.3798828 Z" id="top" opacity="0.8" fill="#FFFFFF" filter="url(#filter-4)"></path>
                <path d="M35,46 C37.0020322,47.1283006 40.1044166,46.3574769 41.9298185,44.2778055 L48.0762177,37.2752431 C50.9894405,33.9562226 55.3921368,34.202952 57.9122418,37.8296768 L85.6430084,77.7374828 C86.2732599,78.6444882 87.5125926,79.898426 88.4196281,80.5442785 L93.0417976,83.8354829 C93.9450309,84.4786279 93.9227052,84.5068959 93.0031348,83.9059425 L35,46 L35,46 Z" id="top" opacity="0.9" fill="url(#linearGradient-5)"></path>
            </g>
        </g>
    </g>
</svg>