<?xml version="1.0" encoding="UTF-8" standalone="no"?>
<svg width="120px" height="120px" viewBox="0 0 120 120" version="1.1" xmlns="http://www.w3.org/2000/svg" xmlns:xlink="http://www.w3.org/1999/xlink" xmlns:sketch="http://www.bohemiancoding.com/sketch/ns">
    <!-- Generator: Sketch 3.5.2 (25235) - http://www.bohemiancoding.com/sketch -->
    <title>GarageBand</title>
    <desc>Created with Sketch.</desc>
    <defs>
        <linearGradient x1="50%" y1="100%" x2="50%" y2="3.061617e-15%" id="linearGradient-1">
            <stop stop-color="#FABF30" offset="0%"></stop>
            <stop stop-color="#ED3342" offset="100%"></stop>
        </linearGradient>
        <rect id="path-2" x="0" y="0" width="120" height="120" rx="28"></rect>
        <linearGradient x1="50%" y1="100%" x2="50%" y2="3.061617e-15%" id="linearGradient-4">
            <stop stop-color="#F68438" offset="0%"></stop>
            <stop stop-color="#F47438" offset="100%"></stop>
        </linearGradient>
        <linearGradient x1="50%" y1="100%" x2="50%" y2="3.061617e-15%" id="linearGradient-5">
            <stop stop-color="#F89F33" offset="0%"></stop>
            <stop stop-color="#F2603B" offset="100%"></stop>
        </linearGradient>
        <linearGradient x1="100%" y1="100%" x2="0%" y2="1.72254642e-14%" id="linearGradient-6">
            <stop stop-color="#F57737" offset="0%"></stop>
            <stop stop-color="#F3633A" offset="100%"></stop>
        </linearGradient>
        <linearGradient x1="100%" y1="100%" x2="0%" y2="1.72254642e-14%" id="linearGradient-7">
            <stop stop-color="#F3643A" offset="0%"></stop>
            <stop stop-color="#F0503E" offset="100%"></stop>
        </linearGradient>
    </defs>
    <g id="Popular-Apps" stroke="none" stroke-width="1" fill="none" fill-rule="evenodd" sketch:type="MSPage">
        <g id="iOS/iPhone-6/App-Badges/GarageBand/Large" sketch:type="MSLayerGroup" transform="translate(-10.000000, 0.000000)">
            <g id="GarageBand" transform="translate(10.000000, 0.000000)">
                <mask id="mask-3" sketch:name="app-bg" fill="white">
                    <use xlink:href="#path-2"></use>
                </mask>
                <use id="app-bg" fill="url(#linearGradient-1)" sketch:type="MSShapeGroup" xlink:href="#path-2"></use>
                <path d="M38.2817459,94.1324676 C19.5040644,94.1324676 4.28174593,75.5522847 4.28174593,52.6324676 C4.28174593,29.7126505 19.5040644,11.1324676 38.2817459,11.1324676 C58.2116776,11.1324676 67.7817459,30.214743 72.9372639,30.214743 C75.6821366,30.214743 78.7076962,28.3356453 79.0351642,28.155661 C82.6709062,26.15737 83.8781866,24.1324676 90.7817459,24.1324676 C97.6853053,24.1324676 103.281746,27.0426168 103.281746,30.6324676 C103.281746,32.2595233 102.1321,33.7469517 100.232171,34.8870846 C97.9401962,36.2624814 93.6211818,39.1781171 93.4773026,41.8514618 C93.4437477,42.4749282 93.511516,44.6353825 96.42389,45.1324676 L131.281746,45.1324676 L131.281746,59.1324676 L96.9657532,59.1324676 C95.4936224,60.9563254 93.9368771,62.5454042 93.9355532,62.7018033 C93.9148471,65.148092 97.0532889,68.7921127 99.0366275,69.7813932 C101.610299,71.065129 102.281746,72.9490631 102.281746,75.1324676 C102.281746,78.9984609 97.1330206,82.1324676 90.7817459,82.1324676 C84.4304713,82.1324676 75.1934191,74.8292265 70.0288162,76.3458465 C66.7265701,77.3155731 55.7795487,94.1324676 38.2817459,94.1324676 Z" id="guitar-bg" fill="#FFFFFF" sketch:type="MSShapeGroup" mask="url(#mask-3)">
                    <g transform="translate(67.781746, 52.632468) rotate(-45.000000) translate(-67.781746, -52.632468) "></g>
                </path>
                <path d="M47.0573952,60.6152237 L58.7853176,72.6360386" id="string-base" stroke="url(#linearGradient-4)" stroke-width="4" stroke-linecap="round" sketch:type="MSShapeGroup" mask="url(#mask-3)"></path>
                <path d="M22.7460906,52.5471501 C22.7460906,51.718723 23.6118454,50.6947102 24.4402726,50.6947102 C25.2686997,50.6947102 26,51.6715729 26,52.5 C26,52.5373307 25.9986363,52.5743429 25.995956,52.6109894 L26.0382028,52.5471498 C26.0382028,52.5471498 28.5208617,52.1811192 31.2036648,51.0000004 C33.8864679,49.8188817 36.9817539,45.457146 39.0425205,44.6479206 C40.8745557,43.9285139 41.4992867,45.53882 45.2985847,44.2629394 C49.0978827,42.9870588 50.6101627,42.4277307 51.6507206,42.4950945 C52.6912785,42.5624584 53.4649258,43.1803631 53.4649258,44.0253177 C53.4649258,44.8702724 53.1913872,45.278378 52.4999905,45.278378 C51.8085937,45.278378 51.4978758,44.2605265 51.3795128,43.8402547 C51.3795128,43.8402547 47.3619805,45.0183665 45.526289,45.7218733 C43.0567914,46.6682788 41.9230824,49.5098843 39.4748802,50.8097276 C37.9197381,51.6354115 34.0619123,51.9469819 31.6223001,52.8819341 C28.2813192,54.1623252 26.5549754,54.369903 24.8810404,54.2957543 C23.2071055,54.2216055 22.7460906,53.3755772 22.7460906,52.5471501 Z" id="decoration-1" fill="#F3663A" sketch:type="MSShapeGroup" mask="url(#mask-3)"></path>
                <path d="M76.6653016,73.0931359 C76.4854319,73.500631 76.2634257,73.9359405 75.9909214,74.4013044 C73.8860875,77.9957926 75.687043,78.7410012 74.9676363,80.5730364 C74.1584109,82.633803 69.7966752,85.729089 68.6155564,88.4118921 C67.4344377,91.0946952 67.0684071,93.5773541 67.0684071,93.5773541 L67.0045675,93.6196009 C67.041214,93.6169206 67.0782262,93.6155569 67.1155569,93.6155569 C67.943984,93.6155569 68.9208467,94.3468572 68.9208467,95.1752843 C68.9208467,96.0037114 67.8968339,96.8694663 67.0684068,96.8694663 C66.2399797,96.8694663 65.3939514,96.4084514 65.3198026,94.7345164 C65.2456538,93.0605815 65.4532317,91.3342377 66.7336227,87.9932567 C67.6685749,85.5536446 67.9801454,81.6958187 68.8058292,80.1406767 C70.1056726,77.6924745 72.9472781,76.5587655 73.8936836,74.0892679 C74.1400532,73.4464047 74.4446291,72.5359572 74.7364282,71.6241844 C70.7656607,68.2046908 65.3065994,61.6723656 65.3065994,61.6723656 L88.6411232,38.3378418 C88.6411232,38.3378418 93.3945608,42.0125575 93.017157,44.9587476 C92.6397532,47.9049377 90.6681815,51.665683 87.7445849,54.5892796 C84.2072096,58.1266549 86.2306118,67.618411 82.6932364,71.1557863 C81.3760337,72.472989 80.8866679,73.9122113 77.9945911,73.6531955 C77.6433528,73.6217384 77.1902847,73.4212081 76.6653016,73.0931359 L76.6653016,73.0931359 Z" id="decoration-2" fill="url(#linearGradient-5)" sketch:type="MSShapeGroup" mask="url(#mask-3)"></path>
                <rect id="band-1" stroke="url(#linearGradient-6)" stroke-width="2" sketch:type="MSShapeGroup" mask="url(#mask-3)" x="55.9530724" y="48.5247178" width="16.9101102" height="10.2198022">
                    <g transform="translate(64.408127, 53.634619) rotate(-315.000000) translate(-64.408127, -53.634619) "></g>
                </rect>
                <rect id="band-2" stroke="url(#linearGradient-7)" stroke-width="2" sketch:type="MSShapeGroup" mask="url(#mask-3)" x="71.6129749" y="32.7183686" width="17" height="10.2200003">
                    <g transform="translate(80.112975, 37.828369) rotate(-315.000000) translate(-80.112975, -37.828369) "></g>
                </rect>
            </g>
        </g>
    </g>
</svg>