<?xml version="1.0" encoding="UTF-8" standalone="no"?>
<svg width="120px" height="120px" viewBox="0 0 120 120" version="1.1" xmlns="http://www.w3.org/2000/svg" xmlns:xlink="http://www.w3.org/1999/xlink" xmlns:sketch="http://www.bohemiancoding.com/sketch/ns">
    <!-- Generator: Sketch 3.5.2 (25235) - http://www.bohemiancoding.com/sketch -->
    <title>Gmail</title>
    <desc>Created with Sketch.</desc>
    <defs>
        <radialGradient cx="-0.0910828025%" cy="6.23909091%" fx="-0.0910828025%" fy="6.23909091%" r="117.243524%" id="radialGradient-1">
            <stop stop-color="#263238" stop-opacity="0.2" offset="32%"></stop>
            <stop stop-color="#263238" stop-opacity="0" offset="100%"></stop>
        </radialGradient>
    </defs>
    <g id="Popular-Apps" stroke="none" stroke-width="1" fill="none" fill-rule="evenodd" sketch:type="MSPage">
        <g id="iOS/iPhone-6/App-Badges/Gmail/Large" sketch:type="MSLayerGroup">
            <g id="Gmail" sketch:type="MSShapeGroup">
                <rect id="app-bg" fill="#FFFFFF" x="0" y="0" width="120" height="120" rx="28"></rect>
                <g id="icon-gmail" transform="translate(15.000000, 18.000000)">
                    <rect id="bounds" x="0" y="0" width="88" height="84"></rect>
                    <rect id="Rectangle-path" fill="#E1E1E1" x="5.5" y="10.5" width="77" height="63"></rect>
                    <path d="M88,15.575 L11,72.8 L11,73.325 L82.5,73.325 L88,15.575 Z" id="Shape" fill="#EEEEEE"></path>
                    <path d="M88,15.575 L11,72.8 L11,73.325 L82.5,73.325 L88,15.575 Z" id="Shape" opacity="0.4" fill="#E1E1E1"></path>
                    <path d="M11,72.8 L11,73.325 L77,24.15 L77,23.8 L11,72.8 Z" id="Shape" fill-opacity="0.4" fill="#FFFFFF"></path>
                    <path d="M77,15.575 L82.5,10.325 C85.6166667,10.325 88,12.6 88,15.575 L88,68.075 C88,71.05 85.6166667,73.325 82.5,73.325 L77,73.325 L77,15.575 L77,15.575 Z" id="Shape" fill="#B93426"></path>
                    <path d="M11,15.575 L5.5,10.325 C2.38333333,10.325 0,12.6 0,15.575 L0,68.075 C0,71.05 2.38333333,73.325 5.5,73.325 L11,73.325 L11,15.575 L11,15.575 Z" id="Shape" fill="#D23F30"></path>
                    <path d="M58.3,73.325 L1.65,19.25 L44,35.7 L88,15.575 L88,68.075 C88,71.05 85.6166667,73.325 82.5,73.325 L58.3,73.325 L58.3,73.325 Z" id="Shape" fill="url(#radialGradient-1)"></path>
                    <path d="M44,48.3 L82.5,10.325 L5.5,10.325 L44,48.3 Z" id="Shape" fill="#EEEEEE"></path>
                    <path d="M85.6166667,19.775 C87.0833333,18.9 88,17.325 88,15.575 C88,12.6 85.6166667,10.325 82.5,10.325 L80.6666667,10.325 L44,35.7 L7.33333333,10.325 L5.5,10.325 C2.38333333,10.325 0,12.6 0,15.575 C0,17.325 0.916666667,18.9 2.38333333,19.775 L44,48.3 L85.6166667,19.775 L85.6166667,19.775 Z" id="top-envelope" fill="#DB4436"></path>
                </g>
            </g>
        </g>
    </g>
</svg>