<?xml version="1.0" encoding="UTF-8" standalone="no"?>
<svg width="120px" height="120px" viewBox="0 0 120 120" version="1.1" xmlns="http://www.w3.org/2000/svg" xmlns:xlink="http://www.w3.org/1999/xlink" xmlns:sketch="http://www.bohemiancoding.com/sketch/ns">
    <!-- Generator: Sketch 3.5.2 (25235) - http://www.bohemiancoding.com/sketch -->
    <title>IMDb</title>
    <desc>Created with Sketch.</desc>
    <defs>
        <radialGradient cx="49.1556979%" cy="53.7147031%" fx="49.1556979%" fy="53.7147031%" r="50.0004844%" id="radialGradient-1">
            <stop stop-color="#FCF06E" offset="0%"></stop>
            <stop stop-color="#DBA506" offset="99%"></stop>
        </radialGradient>
        <rect id="path-2" x="0.0975609756" y="0.192120302" width="120" height="120" rx="28"></rect>
        <radialGradient cx="93.4613244%" cy="93.5963021%" fx="93.4613244%" fy="93.5963021%" r="89.8320273%" id="radialGradient-4">
            <stop stop-color="#E7BA22" offset="0%"></stop>
            <stop stop-color="#F3D93E" stop-opacity="0.6" offset="100%"></stop>
        </radialGradient>
        <radialGradient cx="49.5833021%" cy="12.8554017%" fx="49.5833021%" fy="12.8554017%" r="41.373474%" id="radialGradient-5">
            <stop stop-color="#FFFFFF" offset="0%"></stop>
            <stop stop-color="#FFFFFF" stop-opacity="0" offset="100%"></stop>
        </radialGradient>
    </defs>
    <g id="Popular-Apps" stroke="none" stroke-width="1" fill="none" fill-rule="evenodd" sketch:type="MSPage">
        <g id="iOS/iPhone-6/App-Badges/IMDb/Large" sketch:type="MSLayerGroup" transform="translate(-1.000000, -1.000000)">
            <g id="IMDb">
                <g id="Logotype" transform="translate(0.902439, 0.807880)">
                    <mask id="mask-3" sketch:name="Mask" fill="white">
                        <use xlink:href="#path-2"></use>
                    </mask>
                    <use id="Mask" fill="url(#radialGradient-1)" sketch:type="MSShapeGroup" xlink:href="#path-2"></use>
                    <path d="M89.6890356,119.934103 L120.596531,119.934103 C120.596531,119.934103 119.865032,117.975709 120.596527,115.310958 L55.2770106,0.223294992 L-0.0679663898,0.223294992 L-0.0679663898,79.0680978 L89.6890356,119.934103 Z" id="Shape" fill="url(#radialGradient-4)" sketch:type="MSShapeGroup" mask="url(#mask-3)"></path>
                    <path d="M120.094641,80.0112923 L120.094637,20.155255 L118.870099,19.9970981 L42.0432912,120.213468 L59.8596078,120.213468 L120.094641,80.0112923 Z" id="Shape" opacity="0.5" fill="#F9D543" sketch:type="MSShapeGroup" mask="url(#mask-3)"></path>
                    <rect id="highlight" opacity="0.4" fill="url(#radialGradient-5)" sketch:type="MSShapeGroup" mask="url(#mask-3)" x="0.61415137" y="0.223294992" width="120.153281" height="50.4406475"></rect>
                    <g id="IMDb" mask="url(#mask-3)" fill="#000000" sketch:type="MSShapeGroup">
                        <g transform="translate(14.743605, 41.579036)">
                            <path d="M80.9707288,27.6239173 C80.9707288,29.3355074 80.8853268,30.4167553 80.7151619,30.8665035 C80.5443579,31.3168306 79.8018834,31.5431517 79.2389273,31.5431517 C78.6899145,31.5431517 78.3239059,31.3260918 78.1379968,30.8902354 C77.9527268,30.4549579 77.8608179,29.4611706 77.8608179,27.9076002 L77.8608179,18.5612303 C77.8608179,16.9497773 77.9421532,15.9455132 78.1054046,15.5455441 C78.2681332,15.1473115 78.6236844,14.9470375 79.1720582,14.9470375 C79.7344332,14.9470375 80.4891661,15.1745163 80.6819888,15.6317893 C80.8742885,16.0890622 80.9707288,17.0655426 80.9707288,18.5600727 L80.9707288,27.6239173 L80.9707288,27.6239173 Z M68.9778481,0.839298468 L68.9778481,36.2055994 L77.2793291,36.2055994 L77.8539044,33.9522278 C78.6045125,34.8580913 79.432389,35.5376336 80.338115,35.990276 C81.24326,36.4428604 82.5952259,36.6686607 83.6403256,36.6686607 C85.0979693,36.6686607 86.3563416,36.287214 87.4166045,35.5254783 C88.4762865,34.7631637 89.150207,33.8619308 89.4377852,32.823516 C89.7247243,31.7845224 89.868281,30.2060046 89.868281,28.0852421 L89.868281,18.1629977 C89.868281,16.0277066 89.8200608,14.6338923 89.7247243,13.9803972 C89.628342,13.326902 89.3459344,12.6589362 88.8754101,11.9764997 C88.4042467,11.2946421 87.7203916,10.764437 86.8222182,10.3864633 C85.9246839,10.0079107 84.8661639,9.81921325 83.6449734,9.81921325 C82.5852914,9.81921325 81.2269929,10.0293273 80.3218479,10.4460824 C79.4167029,10.8628375 78.5964371,11.4954949 77.860876,12.3434757 L77.860876,0.839298468 L68.9778481,0.839298468 L68.9778481,0.839298468 Z" id="b"></path>
                            <path d="M56.1588337,7.20407499 C56.5231574,7.41418902 56.7567058,7.74585662 56.8583748,8.19560483 C56.9600439,8.6465107 57.0117498,9.67103366 57.0117498,11.2697525 L57.0117498,24.9804165 C57.0117498,27.3350829 56.8583748,28.7769398 56.5522057,29.3071449 C56.2459786,29.8385076 55.4297795,30.1030313 54.1045961,30.1030313 L54.1045961,6.8880357 C55.1090281,6.8880357 55.794568,6.99338213 56.1588337,7.20407499 L56.1588337,7.20407499 Z M56.0635552,36.2055994 C58.272446,36.2055994 59.925759,36.0858402 61.0238428,35.8455693 C62.1213456,35.6059352 63.0426996,35.1839127 63.7898218,34.5808334 C64.5357822,33.9776382 65.0586516,33.1418706 65.359011,32.0721413 C65.6587894,31.0042642 65.8370879,28.8839648 65.8370879,25.7143107 L65.8370879,13.2939089 C65.8370879,9.94887039 65.7057896,7.70591759 65.5013476,6.56447167 C65.2962666,5.42360458 64.7844356,4.3875051 63.9646926,3.45675204 C63.1455306,2.52599898 61.9487406,1.85745433 60.3754848,1.45053928 C58.802868,1.04362423 56.2349402,0.839298468 51.7719595,0.839298468 L44.8921604,0.839298468 L44.8921604,36.2055994 L56.0635552,36.2055994 L56.0635552,36.2055994 Z" id="D"></path>
                            <path d="M29.6929283,0.839298468 L27.5572974,17.3613229 L26.2361807,8.37677754 C25.8510003,5.49306377 25.4826679,2.9803778 25.1312415,0.839298468 L13.1760655,0.839298468 L13.1760655,36.2055994 L21.2526545,36.2055994 L21.2817028,12.8540007 L24.6809348,36.2055994 L30.4336019,36.2055994 L33.658544,12.3342145 L33.6875923,36.2055994 L41.7386189,36.2055994 L41.7386189,0.839298468 L29.6929283,0.839298468 L29.6929283,0.839298468 Z" id="M"></path>
                            <rect id="I" x="0.806137765" y="0.839298468" width="9.22109207" height="35.366301"></rect>
                        </g>
                    </g>
                </g>
            </g>
        </g>
    </g>
</svg>