<?xml version="1.0" encoding="UTF-8" standalone="no"?>
<svg width="120px" height="120px" viewBox="0 0 120 120" version="1.1" xmlns="http://www.w3.org/2000/svg" xmlns:xlink="http://www.w3.org/1999/xlink" xmlns:sketch="http://www.bohemiancoding.com/sketch/ns">
    <!-- Generator: Sketch 3.5.2 (25235) - http://www.bohemiancoding.com/sketch -->
    <title>InVisionApp</title>
    <desc>Created with Sketch.</desc>
    <defs></defs>
    <g id="Popular-Apps" stroke="none" stroke-width="1" fill="none" fill-rule="evenodd" sketch:type="MSPage">
        <g id="iOS/iPhone-6/App-Badges/inVisionApp/Large" sketch:type="MSLayerGroup" transform="translate(-7.000000, 0.000000)">
            <g id="InVisionApp" transform="translate(7.000000, 0.000000)" sketch:type="MSShapeGroup">
                <rect id="app-bg" fill="#FF3366" x="0" y="0" width="120" height="120" rx="28"></rect>
                <g id="invision-app-logo" transform="translate(22.000000, 23.000000)">
                    <path d="M24.6930568,63.6571192 C22.3221337,66.0755065 19.4517587,67.6659925 16.0326603,68.0890959 C13.0111021,68.4631076 10.0737685,68.1677257 7.46575312,66.4287167 C5.47089301,65.0986661 4.41892752,63.1449852 3.96032447,60.8609758 C3.37454224,57.9437674 3.78429501,55.0773148 4.49093957,52.2354081 C6.15521805,45.5356472 7.82791899,38.8387985 9.49556645,32.1402857 C9.5347309,31.9834421 9.5566293,31.8220221 9.59832048,31.5981975 L1.4137931,31.5981975 C1.49464874,31.2603804 1.55150036,30.9953688 1.62267016,30.7336854 C2.33647381,28.1064505 3.05533093,25.4808798 3.76450223,22.8523968 C3.85588594,22.5124996 3.98138062,22.32903 4.40124035,22.3298621 C10.7012419,22.3452552 17.0012434,22.3402629 23.3012449,22.3415109 C23.4334776,22.3415109 23.5657102,22.3564881 23.7653226,22.368553 C23.7232103,22.5961218 23.6971006,22.800809 23.6461447,22.9996718 C21.0233901,33.2748018 18.3846328,43.5461876 15.7917779,53.8292223 C15.4814101,55.0598415 15.3218045,56.347041 15.2628473,57.6155191 C15.1744114,59.5122038 16.3059692,60.5984603 18.2515579,60.5743305 C21.1328821,60.5385519 23.6132971,59.4418945 25.7892402,57.6309122 C27.6392339,56.0920141 29.0272557,54.1865928 29.9415139,51.9949422 C30.4228576,50.8408726 30.6241544,49.5711465 30.9345222,48.3496799 C32.3027511,42.9612482 33.6655054,37.5711525 35.029102,32.1810567 C35.0728988,32.0067398 35.1049042,31.8299267 35.1558601,31.5894608 L26.8845813,31.5894608 C26.9363795,31.3165446 26.9612258,31.1085292 27.0159718,30.9088344 C27.7504104,28.2183628 28.4945349,25.5308035 29.2197089,22.8382518 C29.3165672,22.4788011 29.4610125,22.3298621 29.8652906,22.3311102 C35.4914952,22.3448392 41.1176998,22.3402629 46.7439043,22.3415109 C46.8921397,22.3415109 47.040375,22.3598163 47.2757828,22.3756255 C46.5527144,25.6385555 45.8389108,28.8607145 45.0989975,32.2006102 C45.8338573,31.1542926 46.4499604,30.1836926 47.1587106,29.2846499 C49.6071203,26.1777315 52.4985514,23.5750424 56.2991874,22.207549 C60.8325775,20.576292 65.0189622,21.2652391 68.6338829,24.5061195 C70.5668379,26.238888 71.6028007,28.5104165 72.1287835,31.0049375 C72.9440778,34.8731924 72.4551539,38.6624014 71.3867646,42.418744 C70.1878271,46.6343847 69.0086824,50.8550177 67.8560685,55.0827232 C67.577285,56.104911 67.4526326,57.1528928 67.5642302,58.234989 C67.8000592,60.5177503 70.6098206,61.2641239 72.10944,60.6146997 C72.9024147,60.2714743 73.4662986,59.6432677 73.9674351,58.9651374 C75.0897281,57.4462087 75.8064796,55.7255051 76.4874357,53.9877442 C76.5362859,53.8641831 76.5834517,53.7397899 76.6373555,53.6183088 C77.6846886,53.862519 77.6568663,53.8337986 78.6094468,54.1949134 C79.0798413,54.3733906 79.5573949,54.5368908 80.0147346,54.7449062 C80.1368603,54.8006543 80.2973082,55.0240629 80.2686718,55.1189179 C79.0760512,59.0287759 77.5090521,62.7414353 74.2651409,65.4818305 C71.6394384,67.7005231 68.5568174,68.4672679 65.1486681,68.1598211 C63.1883401,67.982592 61.3429787,67.5045725 59.7107056,66.3846175 C57.5313936,64.8889865 56.4099428,62.7555803 56.0098758,60.2207043 C55.5512728,57.3138967 56.1189467,54.5148411 56.9359255,51.7315947 C58.0577974,47.9086872 59.1447162,44.0749628 60.1857324,40.2295896 C60.6594959,38.4797639 60.7508796,36.6850067 60.2396362,34.9122993 C59.5953179,32.6782136 57.6771022,31.2067124 55.3600829,30.9724871 C50.6472943,30.4965478 47.9373672,33.0963246 46.3615246,36.0605444 C45.2636566,38.1257216 44.7077742,40.3652157 44.1409425,42.6047098 C42.093442,50.697342 40.0379401,58.7887261 37.9921241,66.8817743 C37.919691,67.1680036 37.8556803,67.349809 37.4842497,67.3485609 C33.8120563,67.3344159 30.1398629,67.3398243 26.4676695,67.3385762 C26.3863927,67.3385762 26.305116,67.3252632 26.1257175,67.309454 C26.7860385,64.7092612 27.4366737,62.1469272 28.0485656,59.7368604 C26.99281,60.9807927 25.9261052,62.3986258 24.6930568,63.6571192 Z M12.2028561,7.8164147 C12.2045221,3.99833645 15.3553282,0.9324729 19.2758222,0.934538289 C23.1734089,0.936603678 26.3312954,4.03386114 26.3267139,7.85028708 C26.3221324,11.6485376 23.1384231,14.7478604 19.2445849,14.7441427 C15.3515797,14.740012 12.2011901,11.6406891 12.2028561,7.8164147 Z" id="custom-shadow" opacity="0.2" fill="#000000"></path>
                    <path d="M27.6959188,60.1052375 C26.5981012,61.4038925 25.4888982,62.8840986 24.2067244,64.1979552 C21.7413422,66.7227317 18.7566096,68.3831859 15.2012922,68.8249023 C12.0593531,69.2153675 9.00499429,68.9069912 6.29307396,67.0914802 C4.21873736,65.7029183 3.12486089,63.6632916 2.6479868,61.2788047 C2.03886663,58.2332632 2.46494422,55.2407104 3.19974194,52.2737832 C4.93032634,45.2792882 6.66966875,38.2878335 8.40375635,31.2946415 C8.44448113,31.130898 8.46725198,30.9623769 8.51060417,30.7287058 L0,30.7287058 C0.0840769745,30.3760276 0.143193597,30.0993577 0.217198851,29.8261623 C0.959440892,27.0833509 1.70693774,24.3422767 2.44436287,21.5981622 C2.53938737,21.2433123 2.66988184,21.0517716 3.10646905,21.0526403 C9.65746665,21.0687106 16.2084642,21.0634986 22.7594618,21.0648016 C22.8969627,21.0648016 23.0344636,21.0804376 23.2420287,21.0930332 C23.1982386,21.3306132 23.1710887,21.544305 23.1181027,21.751916 C20.3908558,32.4790669 17.6469687,43.2023088 14.9508128,53.9377121 C14.6280799,55.2224684 14.4621154,56.566294 14.4008093,57.8905747 C14.3088501,59.8706978 15.4854898,61.0047407 17.508592,60.9795494 C20.5047101,60.9421967 23.0839464,59.7972956 25.3465804,57.906645 C27.2702791,56.300048 28.7136005,54.3108039 29.6642834,52.0227389 C30.1648041,50.8178997 30.3741208,49.4923161 30.6968537,48.2171151 C32.1195938,42.591637 33.5366411,36.9644215 34.9545643,31.3372061 C35.000106,31.1552206 35.0333864,30.9706292 35.0863724,30.7195849 L26.4855607,30.7195849 C26.5394225,30.4346626 26.5652586,30.2174962 26.6221858,30.0090164 C27.385885,27.2001864 28.1596559,24.3943966 28.9137212,21.5833949 C29.0144384,21.2081314 29.1646384,21.0526403 29.5850233,21.0539433 C35.4353795,21.0682762 41.2857356,21.0634986 47.1360918,21.0648016 C47.2902329,21.0648016 47.444374,21.0839122 47.6891606,21.1004169 C46.9372847,24.5068888 46.1950427,27.8707962 45.4256508,31.3576197 C46.1897879,30.2652728 46.8304369,29.2519744 47.5674241,28.3133813 C50.11338,25.0697841 53.1200077,22.3525983 57.0720634,20.9249464 C61.7860667,19.2219276 66.1392396,19.9411827 69.898181,23.324635 C71.9081462,25.133631 72.9853824,27.505088 73.5323207,30.1093473 C74.3800968,34.1477735 73.8716939,38.1036764 72.7607392,42.025267 C71.5140354,46.426361 70.2879128,50.8326671 69.089378,55.2463567 C68.7994876,56.3135124 68.669869,57.4075966 68.7859127,58.5372962 C69.0311372,60.9204801 70.9329409,61.293572 72.492306,60.6155785 C73.3168734,60.257254 73.9032227,59.6014115 74.4243248,58.893449 C75.5913307,57.3077001 76.3366381,55.5112997 77.0447238,53.6970917 C77.0955203,53.5680949 77.1445653,53.4382294 77.2006166,53.3114042 C77.2128778,53.2836069 77.2514131,53.2671023 77.331111,53.201518 C78.2896761,53.5663575 79.2806459,53.9424897 80.2711777,54.3194906 C80.7603131,54.5058193 81.2568927,54.6765121 81.7324531,54.8936785 C81.8594443,54.9518791 82.0262846,55.1851158 81.9965073,55.2841437 C80.7563719,59.3660031 79.1269427,63.2419888 75.753792,66.1029388 C73.0234798,68.4192355 69.8180451,69.2197108 66.2741131,68.8987389 C64.2356844,68.7137131 62.3168026,68.2146648 60.6194986,67.0454409 C58.3533614,65.4840146 57.1872313,63.2567561 56.7712255,60.6103665 C56.2943514,57.5756834 56.8846418,54.6534925 57.7341696,51.7478062 C58.9007376,47.7567223 60.0309598,43.7543458 61.1134509,39.739808 C61.6060894,37.9130043 61.7011139,36.0392927 61.1695022,34.1886007 C60.4995138,31.8562337 58.5048752,30.3199987 56.0955444,30.0754693 C51.1949953,29.5785927 48.3771029,32.2927382 46.7384777,35.3873592 C45.5968701,37.5433871 45.0188409,39.8814004 44.4294262,42.2194138 C42.300352,50.6680549 40.1629577,59.1153931 38.0356351,67.5644686 C37.9603161,67.8632895 37.8937552,68.053093 37.5075266,68.05179 C33.6890306,68.0370226 29.8705347,68.042669 26.0520388,68.041366 C25.9675239,68.041366 25.883009,68.0274673 25.6964632,68.0109627 C26.3830919,65.2963828 27.0596488,62.6213273 27.6959188,60.1052375 Z M10.8815173,7.20095733 C10.8832592,3.20585298 14.177711,-0.00216006004 18.276941,1.09128908e-06 C22.3522192,0.00216224262 25.6540742,3.24302478 25.6492839,7.23640021 C25.6444935,11.2107575 22.3156384,14.4537812 18.2442795,14.4498911 C14.1737916,14.4455688 10.8797753,11.2025451 10.8815173,7.20095733 Z" id="invision" fill="#FFFFFF"></path>
                </g>
            </g>
        </g>
    </g>
</svg>