<?xml version="1.0" encoding="UTF-8" standalone="no"?>
<svg width="120px" height="120px" viewBox="0 0 120 120" version="1.1" xmlns="http://www.w3.org/2000/svg" xmlns:xlink="http://www.w3.org/1999/xlink" xmlns:sketch="http://www.bohemiancoding.com/sketch/ns">
    <!-- Generator: Sketch 3.5.2 (25235) - http://www.bohemiancoding.com/sketch -->
    <title>LinkedIn</title>
    <desc>Created with Sketch.</desc>
    <defs></defs>
    <g id="Popular-Apps" stroke="none" stroke-width="1" fill="none" fill-rule="evenodd" sketch:type="MSPage">
        <g id="iOS/iPhone-6/App-Badges/LinkedIn/Large" sketch:type="MSLayerGroup">
            <g id="LinkedIn" sketch:type="MSShapeGroup">
                <rect id="app-bg" fill="#0077B5" x="0" y="0" width="120" height="120" rx="28"></rect>
                <path d="M35.9818125,102.952148 L35.9818125,45.0946 L17.9818125,45.0946 L17.9818125,102.952148 L35.9818125,102.952148 L35.9818125,102.952148 L35.9818125,102.952148 Z M26.773125,37.0946 C33.5020625,37.0946 37.6909375,32.201684 37.6909375,26.0938121 C37.565875,19.848844 33.5020625,15.0946 26.9010625,15.0946 C20.2971875,15.0946 15.9818125,19.8472681 15.9818125,26.0938121 C15.9818125,32.2032598 20.1678125,37.0946 26.646625,37.0946 L26.773125,37.0946 L26.773125,37.0946 L26.773125,37.0946 Z" id="i" fill="#FFFFFF"></path>
                <path d="M47.1036139,102.952148 L65.415228,102.952148 L65.415228,70.2231541 C65.415228,68.4720172 65.5325227,66.7194295 66.0180682,65.4702756 C67.3396796,61.9709035 70.3538809,58.3424087 75.4111925,58.3424087 C82.0397076,58.3424087 84.6897498,63.7205896 84.6897498,71.5985292 L84.6897498,102.950698 L103,102.950698 L103,69.3454094 C103,51.348017 93.9642155,42.972447 81.9183213,42.972447 C72.0382876,42.972447 67.7024749,48.8482583 65.2924777,52.8467116 L65.4138641,52.8467116 L65.4138641,44.3449204 L47.10225,44.3449204 C47.3436589,49.8435192 47.1036139,102.952148 47.1036139,102.952148 L47.1036139,102.952148 L47.1036139,102.952148 Z" id="Shape" fill="#FFFFFF"></path>
            </g>
        </g>
    </g>
</svg>