<?xml version="1.0" encoding="UTF-8" standalone="no"?>
<svg width="120px" height="120px" viewBox="0 0 120 120" version="1.1" xmlns="http://www.w3.org/2000/svg" xmlns:xlink="http://www.w3.org/1999/xlink" xmlns:sketch="http://www.bohemiancoding.com/sketch/ns">
    <!-- Generator: Sketch 3.5.2 (25235) - http://www.bohemiancoding.com/sketch -->
    <title>Medium</title>
    <desc>Created with Sketch.</desc>
    <defs></defs>
    <g id="Popular-Apps" stroke="none" stroke-width="1" fill="none" fill-rule="evenodd" sketch:type="MSPage">
        <g id="iOS/iPhone-6/App-Badges/Medium/Large" sketch:type="MSLayerGroup">
            <g id="Medium" sketch:type="MSShapeGroup">
                <rect id="app-bg" fill="#FFFFFF" x="0" y="0" width="120" height="120" rx="28"></rect>
                <g id="Logotype" transform="translate(23.000000, 27.000000)">
                    <path d="M49.9974365,2.21827715 C49.9974365,1.11477782 50.7957667,0.623449556 51.7750705,1.11809356 L75.2773438,12.9890359 L75.2773438,64.438652 C75.2773438,65.5419236 74.4648678,66.0401951 73.4795412,65.5598182 L49.9974365,54.1115731 L49.9974365,2.21827715 Z" id="Rectangle-193" fill="#32FC8D"></path>
                    <path d="M48.921897,1.97844668 C49.5173168,1.0490787 50.7982493,0.696528727 51.7875248,1.19330676 L75.2773437,12.9890359 L50.0000003,54.1201171 L23.9462891,40.961914 L48.921897,1.97844668 Z" id="Rectangle-193" fill="#0BE370"></path>
                    <path d="M2.97915115,3.80451026 C2.16601392,2.36349011 2.71327842,1.80661936 4.19126975,2.5555206 L23.9462892,12.5654297 L50.0000003,54.1201171 L23.9462891,40.961914 L2.97915115,3.80451026 Z" id="Rectangle-193" fill="#14C767"></path>
                    <path d="M0,2.46539594 C0,1.36160022 0.798249269,0.867648617 1.78752479,1.36442665 L23.489819,12.2625262 C24.4770416,12.7582733 25.2773438,14.0654076 25.2773438,15.1578058 L25.2773437,64.6097719 C25.2773437,65.7130435 24.4790945,66.2073721 23.489819,65.7115877 L1.78752479,54.8352873 C0.800302107,54.3405317 0,53.0448925 0,51.9408542 L0,2.46539594 Z" id="Rectangle-193" fill="#00AB6C"></path>
                </g>
            </g>
        </g>
    </g>
</svg>