<?xml version="1.0" encoding="UTF-8" standalone="no"?>
<svg width="120px" height="120px" viewBox="0 0 120 120" version="1.1" xmlns="http://www.w3.org/2000/svg" xmlns:xlink="http://www.w3.org/1999/xlink" xmlns:sketch="http://www.bohemiancoding.com/sketch/ns">
    <!-- Generator: Sketch 3.5.2 (25235) - http://www.bohemiancoding.com/sketch -->
    <title>Messenger</title>
    <desc>Created with Sketch.</desc>
    <defs>
        <linearGradient x1="50%" y1="100%" x2="50%" y2="3.061617e-15%" id="linearGradient-1">
            <stop stop-color="#006EFF" offset="0%"></stop>
            <stop stop-color="#00C6FF" offset="100%"></stop>
        </linearGradient>
    </defs>
    <g id="Popular-Apps" stroke="none" stroke-width="1" fill="none" fill-rule="evenodd" sketch:type="MSPage">
        <g id="iOS/iPhone-6/App-Badges/Messenger/Large" sketch:type="MSLayerGroup" transform="translate(-3.000000, 0.000000)">
            <g id="Messenger" transform="translate(3.000000, 0.000000)" sketch:type="MSShapeGroup">
                <rect id="app-bg" fill="#FFFFFF" x="0" y="0" width="120" height="120" rx="28"></rect>
                <path d="M13.7958984,59 C13.7958984,35.2517558 33.8187591,16 59.5,16 C85.1812409,16 106,35.2517558 106,59 C106,82.7482442 85.1812409,102 59.5,102 C54.915968,102 50.4868608,101.386614 46.3034244,100.243758 L31,109 L31,92.9793328 C20.0475827,85.1125083 13.7958984,72.8173315 13.7958984,59 Z" id="Messenger-bubble" fill="url(#linearGradient-1)"></path>
                <path d="M30.0913086,74.0854492 L55.0600586,47.0625 L67.4179688,59.8227539 L89.9130859,47.0625 L64.9350586,73.3847656 L52.7631836,60.921875 L30.0913086,74.0854492 Z" id="lightning" fill="#FFFFFF"></path>
            </g>
        </g>
    </g>
</svg>