<?xml version="1.0" encoding="UTF-8" standalone="no"?>
<svg width="120px" height="120px" viewBox="0 0 120 120" version="1.1" xmlns="http://www.w3.org/2000/svg" xmlns:xlink="http://www.w3.org/1999/xlink" xmlns:sketch="http://www.bohemiancoding.com/sketch/ns">
    <!-- Generator: Sketch 3.5.2 (25235) - http://www.bohemiancoding.com/sketch -->
    <title>MindMeister</title>
    <desc>Created with Sketch.</desc>
    <defs></defs>
    <g id="Popular-Apps" stroke="none" stroke-width="1" fill="none" fill-rule="evenodd" sketch:type="MSPage">
        <g id="iOS/iPhone-6/App-Badges/MindMeister/Large" sketch:type="MSLayerGroup" transform="translate(-11.000000, 0.000000)">
            <g id="MindMeister" transform="translate(11.000000, 0.000000)" sketch:type="MSShapeGroup">
                <rect id="app-bg" fill="#FFFFFF" x="0" y="0" width="120" height="120" rx="28"></rect>
                <g id="mindmeister-logo" transform="translate(17.000000, 18.000000)">
                    <g id="Layer_1">
                        <path d="M15.0273098,30.5833083 C12.4104864,34.6793684 10.4641857,40.0548271 10.6083068,44.9035489 C10.7053643,45.0671278 11.1192573,45.5049023 11.2178244,45.6685714 C12.9785348,42.6175038 15.2303935,38.5203609 17.5412149,35.4421353 C16.6283592,33.7950677 15.7891181,32.1724511 15.0273098,30.5833083" id="Shape" fill="#F3B6CE"></path>
                        <path d="M82.5043956,51.1733233 C80.5920161,53.846797 78.2195681,56.3969323 75.4596892,58.7510977 C79.2967023,68.6457744 79.6270353,76.6387669 75.5342805,80.1254436 C70.4626922,84.4458947 59.8700141,80.7646917 48.2549021,71.6900752 C47.3017316,70.9454436 46.3418123,70.1644511 45.3774531,69.3486316 C45.3675964,69.3493534 45.3576509,69.3502556 45.3477941,69.350797 L45.0651463,69.0828271 C40.1100626,64.856391 35.046111,59.7162406 30.2093966,53.8548271 C26.1227689,48.9023459 22.5631645,43.8774135 19.6081049,39.0029774 C17.4691988,42.5597594 15.7866317,46.1155489 14.5962785,49.5367218 C17.494773,53.6766316 20.8905429,57.7723308 24.7438951,61.6875789 C26.8780949,63.8560602 29.0668174,65.8815338 31.2872412,67.7581353 C33.5526862,69.672812 35.8510757,71.4319398 38.1583451,73.0278496 C54.9268295,84.626797 72.1585792,87.6077594 80.5577397,79.0737744 C86.4413966,73.095609 86.7632936,62.712812 82.5043956,51.1733233" id="Shape" fill="#F3B6CE"></path>
                        <path d="M35.9341917,16.3775639 C32.8847386,18.8464962 29.8606821,21.5852932 26.9192089,24.5739248 C23.4380141,28.1111278 20.3007386,31.7660752 17.5412149,35.4420451 C15.2303935,38.5203609 13.1849041,41.6132932 11.4241937,44.6644511 C11.3410777,44.8084511 11.2588496,44.9522707 11.1769768,45.0961805 C11.3861877,48.0533233 12.1717941,50.8541053 13.4395802,53.4317594 C13.7504662,52.1585865 14.1366539,50.8577143 14.5962785,49.536812 C15.7866317,46.1155489 17.4691988,42.5599398 19.6081049,39.0030677 C22.0096791,35.0093233 24.9864057,31.0140451 28.4891786,27.205985 C32.9437901,22.3631278 37.7530656,18.361985 42.5428052,15.3322105 C40.2690131,15.5019248 38.0590676,15.8568722 35.9341917,16.3775639 L35.9341917,16.3775639 Z" id="Shape" fill="#F2488F"></path>
                        <path d="M80.5575621,4.97738346 C73.1557941,-2.54336842 56.9077619,1.14676692 40.5583209,12.8521805 C41.4096387,13.5293233 42.2660182,14.2352481 43.1256831,14.9685113 C54.4501554,7.98902256 65.580779,6.4757594 71.5664662,12.1598797 C78.1955035,18.4550075 76.5828214,31.7434286 68.5819253,45.0484511 C69.3077699,46.2458346 69.9968517,47.4338346 70.6484601,48.6097444 C72.990894,45.4894737 75.2532311,42.9198496 77.0301917,39.8281805 C85.2692472,25.4928722 87.0117538,11.5352481 80.5575621,4.97738346" id="Shape" fill="#F2488F"></path>
                        <path d="M43.1256831,14.9685113 C42.2660182,14.2352481 41.4096387,13.5293233 40.5583209,12.8521805 C40.4133118,12.736782 40.2683915,12.6221955 40.1236488,12.5084211 C39.973223,12.5393684 39.8227972,12.570406 39.6721937,12.6023459 C29.0561615,14.8569925 19.6981473,19.4804211 12.7459697,25.3399398 C9.98378204,27.6680301 7.60156609,30.191188 5.67116044,32.8385865 C1.40906559,38.6839398 -0.650631685,45.1345263 0.269239152,51.4263158 C0.80629667,55.1003008 2.31384057,58.4063459 4.60246216,61.2658647 C7.02232896,64.2892331 10.3156246,66.8129323 14.26044,68.7433985 C20.7819415,71.9345865 29.08289,73.5042406 38.1582563,73.0280301 C35.8510757,71.4320301 33.5525974,69.6729023 31.2871524,67.7582256 C23.190886,65.2428271 16.7096993,60.0808421 13.4395802,53.4318496 C12.1717941,50.8542857 11.3860989,48.0535038 11.1769768,45.0962707 C11.1641009,44.9142857 11.153001,44.7318496 11.1444763,44.548782 C11.1387043,44.4235489 11.1340868,44.2985865 11.1303572,44.1735338 C10.9862361,39.324812 12.4104864,34.6793684 15.0273098,30.5833985 C19.3290091,23.8500451 26.8541191,18.6025263 35.9341917,16.3777444 C38.0590676,15.8570526 40.2689243,15.5021053 42.5428052,15.332391 C42.6426155,15.3249023 42.7422482,15.3168722 42.8424137,15.3101053 C43.0556206,15.2957594 43.2682947,15.2836692 43.4807023,15.2726617 C43.362333,15.1705263 43.2439637,15.0693835 43.1256831,14.9685113" id="Shape" fill="#F27AAC"></path>
                        <path d="M87.7119354,32.8549173 C85.6855378,18.994015 69.8537074,10.3646617 50.3278305,11.2287519 C52.9275156,13.0432782 55.5147689,15.064782 58.0548698,17.2823459 C68.7812795,21.0201203 76.4205853,29.4883308 77.0303693,39.8280902 C77.0358749,39.9226466 77.0412028,40.0172932 77.0456428,40.1121203 C77.2719919,44.9929624 75.9058163,49.6778346 73.328331,53.8154887 C68.0296831,62.3218647 57.6106963,68.5163008 45.3774531,69.3486316 C46.3418123,70.1644511 47.3017316,70.9454436 48.2548133,71.6900752 C48.2728396,71.6862857 48.2909546,71.6826767 48.3089808,71.678797 C59.0394753,69.3997895 68.4851342,64.7008421 75.4596892,58.751188 C78.2195681,56.3969323 80.5920161,53.8468872 82.5043956,51.1732331 C86.6345348,45.3995188 88.6175984,39.0501654 87.7119354,32.8549173" id="Shape" fill="#F27AAC"></path>
                        <path d="M77.0456428,40.1121203 C77.0412028,40.0172932 77.0359637,39.9226466 77.0302805,39.8281805 C73.5118789,33.9032481 68.9440484,27.9497143 63.4463128,22.3635789 C61.6820505,20.5710677 59.8805812,18.8762707 58.0546922,17.2823459 C55.5146801,15.064782 52.9276044,13.0433684 50.3278305,11.2287519 C33.4664622,-0.540360902 16.0809122,-3.60676692 7.63246821,4.97738346 C1.75538244,10.9488722 1.42753582,21.314797 5.67116044,32.8386767 C7.60156609,30.191188 9.98369324,27.6680301 12.7458809,25.3399398 C8.89439354,15.4269474 8.5574894,7.41708271 12.6557497,3.92580451 C17.754777,-0.418015038 28.4346559,3.32634586 40.1236488,12.5085113 C41.2348819,13.3813534 42.3551726,14.3036391 43.4807023,15.2724812 C48.3222119,19.4403609 53.2597134,24.475218 57.9808113,30.1963308 C64.5797457,38.1934737 69.8054894,46.3799098 73.328331,53.8155789 C75.9057275,49.6777444 77.2719919,44.9929624 77.0456428,40.1121203" id="Shape" fill="#F3B6CE"></path>
                        <path d="M68.5819253,45.0484511 C66.1803512,49.0421053 63.2037134,53.0372932 59.7009405,56.8452632 C55.065889,61.8843609 50.046781,66.0124511 45.0651463,69.0829173 C44.8934975,69.1886617 44.7218486,69.2929624 44.5502886,69.3962707 C33.5809243,76.0002406 22.8641049,77.4441203 16.9078991,72.152391 C16.8119072,72.067218 16.7170696,71.9801504 16.6236529,71.8913684 C15.665332,70.9813534 14.8799031,69.9246316 14.2605288,68.743218 C10.3157134,66.8129323 7.02232896,64.2945564 4.60246216,61.2712782 C3.70106155,65.3023759 3.52816953,69.0054135 4.15242785,72.1633083 L4.15296065,72.1633083 C4.69552371,74.8700752 5.83970131,77.2577143 7.63255701,79.0792782 C15.570672,87.1449925 33.6831322,82.3139549 51.1837659,68.532812 C54.5960525,65.8458045 57.9850737,62.817203 61.2709102,59.4785865 C64.7519273,55.9415639 67.8890252,52.2861654 70.6485489,48.6103759 C69.9968517,47.4344662 69.3077699,46.2458346 68.5819253,45.0484511" id="Shape" fill="#F2488F"></path>
                    </g>
                </g>
            </g>
        </g>
    </g>
</svg>