<?xml version="1.0" encoding="UTF-8" standalone="no"?>
<svg width="120px" height="120px" viewBox="0 0 120 120" version="1.1" xmlns="http://www.w3.org/2000/svg" xmlns:xlink="http://www.w3.org/1999/xlink" xmlns:sketch="http://www.bohemiancoding.com/sketch/ns">
    <!-- Generator: Sketch 3.5.2 (25235) - http://www.bohemiancoding.com/sketch -->
    <title>Mixcloud</title>
    <desc>Created with Sketch.</desc>
    <defs>
        <linearGradient x1="50%" y1="0%" x2="50%" y2="100%" id="linearGradient-1">
            <stop stop-color="#FFFFFF" offset="0%"></stop>
            <stop stop-color="#EFF1F2" offset="100%"></stop>
        </linearGradient>
    </defs>
    <g id="Popular-Apps" stroke="none" stroke-width="1" fill="none" fill-rule="evenodd" sketch:type="MSPage">
        <g id="iOS/iPhone-6/App-Badges/Mixcloud/Large" sketch:type="MSLayerGroup">
            <g id="Mixcloud" sketch:type="MSShapeGroup">
                <rect id="app-bg" fill="url(#linearGradient-1)" x="0" y="0" width="120" height="120" rx="28"></rect>
                <g id="Mixcloud-logotype" transform="translate(15.000000, 33.000000)" fill="#395369">
                    <path d="M84.2857143,51.8403614 C83.7071429,51.8403614 83.1285714,51.6807229 82.6142857,51.3295181 C81.2321429,50.4036145 80.8785714,48.5518072 81.7785714,47.2108434 C84.5428571,43.1240964 85.9892857,38.3349398 85.9892857,33.3542169 C85.9892857,28.373494 84.5428571,23.5843373 81.7785714,19.4975904 C80.8464286,18.1246988 81.2321429,16.2728916 82.5821429,15.3789157 C83.9642857,14.453012 85.7964286,14.8361446 86.7285714,16.1771084 C90.1678571,21.2536145 91.9678571,27.1921687 91.9678571,33.3542169 C91.9678571,39.5162651 90.1678571,45.4548193 86.7285714,50.5313253 C86.1821429,51.3933735 85.25,51.8403614 84.2857143,51.8403614 L84.2857143,51.8403614 L84.2857143,51.8403614 Z" id="Shape"></path>
                    <path d="M74.7035714,47.0192771 C74.125,47.0192771 73.5464286,46.8596386 73.0321429,46.5084337 C71.65,45.5825301 71.2964286,43.7307229 72.2285714,42.389759 C74.0607143,39.7078313 75.025,36.6108434 75.025,33.3542169 C75.025,30.1295181 74.0607143,27.0006024 72.2285714,24.3186747 C71.2964286,22.9457831 71.65,21.1259036 73.0321429,20.2 C74.4142857,19.2740964 76.2464286,19.6253012 77.1785714,20.9981928 C79.6857143,24.6698795 81.0035714,28.9481928 81.0035714,33.3542169 C81.0035714,37.7921687 79.6857143,42.0704819 77.1785714,45.710241 C76.6321429,46.5722892 75.6678571,47.0192771 74.7035714,47.0192771 L74.7035714,47.0192771 L74.7035714,47.0192771 Z" id="Shape"></path>
                    <path d="M59.7214286,21.3915663 C58.5321429,9.48253012 48.4071429,0.159638554 36.0964286,0.159638554 C25.9071429,0.159638554 16.875,6.67289157 13.6285714,16.123494 C5.94642857,17.2409639 0,23.8180723 0,31.7680723 C0,40.4843373 7.16785714,47.6042169 15.975,47.6042169 L56.8607143,47.6042169 C64.2214286,47.6042169 70.2321429,41.6656627 70.2321429,34.3542169 C70.2321429,28.0006024 65.7321429,22.7006024 59.7214286,21.3915663 L59.7214286,21.3915663 Z M56.8607143,41.6656627 L15.975,41.6656627 C10.4785714,41.6656627 5.97857143,37.2277108 5.97857143,31.7680723 C5.97857143,26.3084337 10.4464286,21.8704819 15.975,21.8704819 C18.6428571,21.8704819 21.15,22.8921687 23.0464286,24.7759036 C24.2035714,25.9253012 26.1,25.9253012 27.2892857,24.7759036 C28.4464286,23.626506 28.4464286,21.7427711 27.2892857,20.5614458 C25.2321429,18.5180723 22.6928571,17.113253 19.9285714,16.4108434 C22.7571429,10.2168675 29.0571429,6.06626506 36.0964286,6.06626506 C45.9,6.06626506 53.8714286,13.9843373 53.8714286,23.6903614 C53.8714286,25.5740964 53.5821429,27.4259036 52.9714286,29.2138554 C52.4571429,30.7783133 53.2928571,32.4385542 54.8678571,32.9813253 C55.1892857,33.0771084 55.5107143,33.1409639 55.8,33.1409639 C57.0535714,33.1409639 58.2107143,32.3427711 58.6285714,31.0975904 C59.0142857,29.9162651 59.3035714,28.7349398 59.4964286,27.5216867 C62.2607143,28.5753012 64.2214286,31.2253012 64.2214286,34.3222892 C64.2535714,38.3771084 60.9107143,41.6656627 56.8607143,41.6656627 L56.8607143,41.6656627 Z" id="Shape"></path>
                </g>
            </g>
        </g>
    </g>
</svg>