<?xml version="1.0" encoding="UTF-8" standalone="no"?>
<svg width="120px" height="120px" viewBox="0 0 120 120" version="1.1" xmlns="http://www.w3.org/2000/svg" xmlns:xlink="http://www.w3.org/1999/xlink" xmlns:sketch="http://www.bohemiancoding.com/sketch/ns">
    <!-- Generator: Sketch 3.5.2 (25235) - http://www.bohemiancoding.com/sketch -->
    <title>Music</title>
    <desc>Created with Sketch.</desc>
    <defs>
        <linearGradient x1="42.992421%" y1="14.2133407%" x2="91.0612394%" y2="81.6246006%" id="linearGradient-1">
            <stop stop-color="#FC5C57" offset="0%"></stop>
            <stop stop-color="#865EF6" offset="60.655425%"></stop>
            <stop stop-color="#40AAFA" offset="100%"></stop>
        </linearGradient>
    </defs>
    <g id="Popular-Apps" stroke="none" stroke-width="1" fill="none" fill-rule="evenodd" sketch:type="MSPage">
        <g id="iOS/iPhone-6/App-Badges/Music/Large" sketch:type="MSLayerGroup">
            <g id="Music" sketch:type="MSShapeGroup">
                <rect id="app-bg" fill="#FFFFFF" x="0" y="0" width="120" height="120" rx="28"></rect>
                <path d="M41.5852457,30.8274886 C41.5637563,29.1797335 42.8584859,27.5776917 44.4801086,27.2486185 L84.9500832,19.036115 C86.5703612,18.7073147 87.8910066,19.7825647 87.8998865,21.4488661 L88.2116164,79.9446922 C88.2116164,79.9446922 87.2116164,88.039801 78.1694703,89.8763995 C69.1273242,91.7129979 67.0018011,87.5877729 66.2007818,84.9915798 C65.3997625,82.3953866 65.1765955,79.229108 67.4362259,76.2549291 C69.6958563,73.2807501 73.4599221,72.5944226 75.1222831,72.2166941 C76.7846441,71.8389656 81.9121977,71.7512004 82.9192969,70.2542729 C83.9263962,68.7573455 83.8150716,65.6490607 83.8150716,65.6490607 L83.7229125,40.2558201 C83.7169031,38.6000222 82.4098664,37.5633781 80.7951546,37.9423846 L50.0415014,45.160908 C48.4305548,45.5390308 47.1289488,47.1795297 47.1341097,48.8471983 C47.1341097,48.8471983 47.2427892,80.831369 47.1411937,84.0662912 C47.0395982,87.3012133 46.7523343,90.2384821 45.7095076,92.9045783 C44.6666809,95.5706744 42.3833413,96.5894224 40.1281122,97.7793036 C37.872883,98.9691848 32.5337036,99.351049 29.8619133,98.5691904 C27.190123,97.7873318 24.5012457,93.9348307 24.5012457,89.8763995 C24.5012457,85.8179682 25.8895312,84.1250268 27.3914393,82.8351965 C29.585466,80.9509786 33.7005489,79.8574701 36.6651406,79.3756423 C38.9519549,79.0039719 40.9167045,79.3756423 41.5463357,76.2549291 C42.1759669,73.1342159 41.5852457,30.8274886 41.5852457,30.8274886 Z" id="note" fill="url(#linearGradient-1)"></path>
            </g>
        </g>
    </g>
</svg>