<?xml version="1.0" encoding="UTF-8" standalone="no"?>
<svg width="120px" height="120px" viewBox="0 0 120 120" version="1.1" xmlns="http://www.w3.org/2000/svg" xmlns:xlink="http://www.w3.org/1999/xlink" xmlns:sketch="http://www.bohemiancoding.com/sketch/ns">
    <!-- Generator: Sketch 3.5.2 (25235) - http://www.bohemiancoding.com/sketch -->
    <title>Netflix</title>
    <desc>Created with Sketch.</desc>
    <defs></defs>
    <g id="Popular-Apps" stroke="none" stroke-width="1" fill="none" fill-rule="evenodd" sketch:type="MSPage">
        <g id="iOS/iPhone-6/App-Badges/Netflix/Large" sketch:type="MSLayerGroup">
            <g id="Netflix" sketch:type="MSShapeGroup">
                <rect id="app-bg" fill="#FFFFFF" x="0" y="0" width="120" height="120" rx="28"></rect>
                <g id="Logotype" transform="translate(15.000000, 49.000000)" fill="#E50914">
                    <path d="M12.6145204,0.0147413793 L8.74157593,0.0147413793 C8.73390926,5.34448276 8.72645556,8.79642241 8.71900185,14.1261638 C7.05490926,8.92508621 5.3889,5.48176724 3.71905741,0.0147413793 L8.51851852e-05,0.0147413793 L8.51851852e-05,25.0000862 C1.25528889,24.8192672 2.59972407,24.6459914 3.85641852,24.4800431 C3.86003889,19.2578448 3.86365926,16.0477155 3.86706667,10.8253017 C5.59653889,15.9656034 6.65986296,18.9975 8.38422407,23.8824138 C9.73611296,23.7263793 11.2213167,23.5339224 12.5742704,23.3949138 C12.587687,15.6015948 12.6011037,7.80806034 12.6145204,0.0147413793" id="Fill-1"></path>
                    <path d="M27.0810306,0.0147413793 L16.3517435,0.0147413793 C16.337262,7.69836207 16.3227806,15.3821983 16.3082991,23.065819 C19.8973639,22.735431 23.490475,22.4653879 27.0861417,22.2556897 C27.0880583,21.1321983 27.089975,19.5173276 27.0921046,18.3940517 C24.7539843,18.5395259 22.5172343,18.6910345 20.1872065,18.8496552 C20.1912528,16.7839224 20.1952991,15.0755172 20.1993454,13.009569 C21.9021972,12.9798276 23.7004565,13.0059052 25.439938,12.9759483 C25.4420676,11.8466379 25.4441972,10.2259483 25.4463269,9.09685345 C23.7226046,9.12767241 21.9021972,9.13133621 20.2061602,9.16387931 C20.2102065,7.09793103 20.2140398,5.96474138 20.2180861,3.8987931 C21.2852435,3.88586207 22.3308917,3.88413793 23.3746231,3.88413793 C23.5579843,3.88413793 23.7411324,3.88413793 23.9244935,3.88435345 L24.4715954,3.88435345 C25.342188,3.88435345 26.216188,3.88327586 27.1053083,3.87551724 C27.107438,2.75202586 27.0791139,1.13801724 27.0810306,0.0147413793" id="Fill-4"></path>
                    <path d="M41.542962,0.0320043103 C37.604638,0.0320043103 33.5340639,0.0322198276 29.5957398,0.0324353448 C29.5940361,1.14859914 29.5921194,2.75635776 29.5904157,3.87230603 C29.7618509,3.87101293 29.9330731,3.8705819 30.1045083,3.8705819 C30.6234991,3.8705819 31.1424898,3.87575431 31.6616935,3.88092672 C32.1802583,3.88609914 32.6988231,3.89127155 33.2176009,3.89127155 C33.3504898,3.89127155 33.4835917,3.89084052 33.6164806,3.89019397 C33.6086009,10.084806 33.6005083,15.7425647 33.5926287,21.9371767 C34.8567769,21.8895474 36.2093046,21.8494612 37.4736657,21.8169181 C37.4794157,15.6563578 37.4851657,10.0322198 37.4907028,3.871875 C38.8261935,3.86670259 40.2059806,3.86260776 41.5414713,3.86002155 C41.5418972,2.76282328 41.5423231,1.12920259 41.542962,0.0320043103" id="Fill-6"></path>
                    <path d="M54.8298491,0.0147413793 L44.0564787,0.0147413793 C44.0554139,7.24728448 44.0543491,14.4793966 44.0532843,21.7117241 C44.4698398,21.71 44.8910806,21.7093534 45.313812,21.7093534 C46.1752472,21.7093534 47.0434972,21.7125862 47.8917287,21.7192672 C47.8906639,18.6500862 47.889812,15.8490086 47.8889602,12.7796121 C48.1004324,12.7802586 48.3140343,12.7806897 48.5291269,12.7806897 C49.0300157,12.7806897 49.5389972,12.77875 50.0501083,12.7765948 C50.5612194,12.7744397 51.0744602,12.7722845 51.5832287,12.7722845 C52.1075435,12.7722845 52.6269602,12.7744397 53.1348769,12.7815517 C53.134025,11.6813362 53.1329602,10.0444828 53.1318954,8.94426724 C52.6523028,8.93931034 52.162275,8.93758621 51.6673491,8.93758621 C51.1370713,8.93758621 50.6016824,8.93952586 50.0679972,8.94146552 C49.5351639,8.94340517 49.0044602,8.94534483 48.4827009,8.94534483 C48.2831546,8.94534483 48.0846731,8.94512931 47.8878954,8.94448276 C47.8872565,6.9712069 47.8870435,5.85762931 47.8864046,3.88435345 C48.3074324,3.885 48.7276083,3.88521552 49.1465065,3.88521552 C49.5713676,3.88521552 49.9951639,3.885 50.4187472,3.88478448 C50.8459509,3.88456897 51.2729417,3.88435345 51.7001454,3.88435345 C52.7408954,3.88435345 53.7824972,3.88543103 54.8332565,3.89017241 C54.8321917,2.78737069 54.8309139,1.1175431 54.8298491,0.0147413793" id="Fill-8"></path>
                    <path d="M57.3444306,0.0321982759 C57.3540139,7.33435345 57.3193009,14.6365086 57.3286713,21.9386638 C60.7731343,22.0686207 64.3926528,22.2093534 67.8326435,22.4500862 C67.8305139,21.3268103 67.8283843,19.7115086 67.8264676,18.5882328 C65.6489213,18.4584914 63.3823565,18.3031034 61.2031065,18.2115086 C61.1933102,11.9578448 61.2273843,6.28586207 61.217588,0.0324137931 C59.9559954,0.0321982759 58.6062361,0.0321982759 57.3444306,0.0321982759" id="Fill-10"></path>
                    <path d="M71.0112861,0.0328448276 C71.0259806,7.58435345 71.040675,15.1358621 71.0553694,22.6875862 C72.317388,22.7862931 73.6230639,22.8921121 74.8840176,23.0056897 C74.8884898,15.353319 74.898925,7.69060345 74.8844435,0.0330603448 C73.6228509,0.0328448276 72.2728787,0.0328448276 71.0112861,0.0328448276" id="Fill-12"></path>
                    <path d="M78.2046213,0.0332543103 C79.7535009,3.85157328 81.1705565,7.6806681 82.743288,11.735625 C81.1087972,15.6304526 79.4447046,19.4996336 77.8117046,23.2358405 C79.1644454,23.3709698 80.563825,23.5685991 81.9155009,23.7209698 C82.8851213,21.3147198 83.7670009,19.4623491 84.7376861,16.9912284 C85.7066676,19.623556 86.5872694,21.6573922 87.5536954,24.3746336 C88.9030287,24.5517888 90.6523065,24.8058836 91.9999361,25.0000647 C90.3662972,20.5806681 88.5797509,15.978944 86.9369546,11.8022198 C88.5729361,7.87980603 90.2419269,4.13540948 91.9411583,0.0345474138 C90.546038,0.0345474138 89.1068343,0.0343318966 87.7119269,0.0341163793 C86.6632972,2.56881466 85.9417787,4.19747845 84.9365935,6.61040948 C84.0001954,4.09984914 83.3721676,2.47528017 82.4340657,0.0336853448 C81.0391583,0.0334698276 79.5997417,0.0334698276 78.2046213,0.0332543103" id="Fill-14"></path>
                </g>
            </g>
        </g>
    </g>
</svg>