<?xml version="1.0" encoding="UTF-8" standalone="no"?>
<svg width="120px" height="120px" viewBox="0 0 120 120" version="1.1" xmlns="http://www.w3.org/2000/svg" xmlns:xlink="http://www.w3.org/1999/xlink" xmlns:sketch="http://www.bohemiancoding.com/sketch/ns">
    <!-- Generator: Sketch 3.5.2 (25235) - http://www.bohemiancoding.com/sketch -->
    <title>Settings</title>
    <desc>Created with Sketch.</desc>
    <defs>
        <linearGradient x1="50%" y1="100%" x2="50%" y2="0%" id="linearGradient-1">
            <stop stop-color="#888C90" offset="0%"></stop>
            <stop stop-color="#DCDDDE" offset="100%"></stop>
        </linearGradient>
        <linearGradient x1="50%" y1="0%" x2="50%" y2="100%" id="linearGradient-2">
            <stop stop-color="#D7D8D9" offset="0%"></stop>
            <stop stop-color="#919399" offset="100%"></stop>
        </linearGradient>
        <filter x="-50%" y="-50%" width="200%" height="200%" filterUnits="objectBoundingBox" id="filter-3">
            <feOffset dx="0" dy="1" in="SourceAlpha" result="shadowOffsetOuter1"></feOffset>
            <feGaussianBlur stdDeviation="0.5" in="shadowOffsetOuter1" result="shadowBlurOuter1"></feGaussianBlur>
            <feColorMatrix values="0 0 0 0 0   0 0 0 0 0   0 0 0 0 0  0 0 0 0.105 0" in="shadowBlurOuter1" type="matrix" result="shadowMatrixOuter1"></feColorMatrix>
            <feMerge>
                <feMergeNode in="shadowMatrixOuter1"></feMergeNode>
                <feMergeNode in="SourceGraphic"></feMergeNode>
            </feMerge>
        </filter>
    </defs>
    <g id="Popular-Apps" stroke="none" stroke-width="1" fill="none" fill-rule="evenodd" sketch:type="MSPage">
        <g id="iOS/iPhone-6/App-Badges/Settings/Large" sketch:type="MSLayerGroup">
            <g id="Settings" sketch:type="MSShapeGroup">
                <rect id="app-bg" fill="url(#linearGradient-1)" x="0" y="0" width="120" height="120" rx="28"></rect>
                <path d="M60,112 C88.718807,112 112,88.718807 112,60 C112,31.281193 88.718807,8 60,8 C31.281193,8 8,31.281193 8,60 C8,88.718807 31.281193,112 60,112 Z" id="circle" fill="#545454"></path>
                <path d="M87.1811737,64.2220749 C87.1141755,64.6572133 87.0369781,65.0889875 86.9498335,65.5171459 L86.9498328,65.5171456 L90.5217491,66.6196811 C90.7821684,66.7000642 90.943656,66.9801726 90.883794,67.2394634 L90.8888082,67.2177444 C90.8283408,67.4796577 90.5634734,67.6583868 90.2917097,67.616091 L86.594064,67.04061 C86.4406315,67.6219144 86.268645,68.1956828 86.0787765,68.7612433 L89.4878208,70.2900236 C89.7365028,70.4015446 89.86265,70.6992456 89.7716346,70.9493084 L89.7792584,70.9283623 C89.6873225,71.1809542 89.4026478,71.3260719 89.1380643,71.2509717 L85.5386413,70.2293003 C85.3152551,70.7866412 85.074153,71.3349702 84.8160319,71.8735908 L88.0142971,73.8070038 C88.2475344,73.9480003 88.3364608,74.2588557 88.2156488,74.4959625 L88.2257684,74.4761017 C88.1037346,74.7156067 87.8034964,74.8249496 87.5500375,74.7181645 L84.0999049,73.2645857 C83.8878527,73.6491096 83.6668653,74.0280153 83.4372225,74.4010229 L83.4372225,74.4010229 L86.417875,76.6596731 C86.6350964,76.8242771 86.6910424,77.1427249 86.5461078,77.3659046 L86.558248,77.3472104 C86.4118476,77.5726472 86.1018247,77.6500077 85.8609164,77.517314 L82.5792659,75.7097619 C82.236816,76.2011167 81.8787377,76.6807677 81.5057515,77.1479946 L81.5057514,77.1479944 L84.1909691,79.7550425 C84.3865113,79.9448923 84.4032312,80.2677846 84.2321782,80.4716376 L84.2465062,80.4545622 C84.0737231,80.660477 83.7565833,80.6994786 83.5336419,80.5384146 L80.4949767,78.3431309 C80.0958366,78.7888529 79.6823698,79.221478 79.2553004,79.6402822 L79.2553004,79.6402822 L81.6034317,82.5559481 C81.7743795,82.7682133 81.7516241,83.0907364 81.5570027,83.2722238 L81.5733048,83.2570219 C81.3767149,83.4403449 81.0571859,83.4404061 80.8555351,83.253373 L78.1071427,80.7042116 C77.7775189,80.9927593 77.440943,81.2735612 77.0976993,81.546333 L79.1276152,84.6905718 C79.2754388,84.9195431 79.2190952,85.2379208 79.0065693,85.3980706 L79.0243712,85.3846559 C78.8096958,85.5464254 78.4919108,85.5130864 78.3109149,85.3059996 L75.8452943,82.4849545 L75.8452943,82.4849545 C75.3570137,82.8297186 74.8570035,83.1589773 74.3459802,83.472014 L74.3459796,83.4720128 L75.9763296,86.837621 C76.0951467,87.0829008 76.0004226,87.3920388 75.7699635,87.5250944 L75.7892675,87.5139493 C75.5564776,87.6483506 75.2451242,87.5765319 75.090715,87.3489308 L72.9890218,84.2510095 C72.4626271,84.5335717 71.9259685,84.7994942 71.3797495,85.0480734 L72.5868736,88.5846213 C72.674913,88.842553 72.5432205,89.1378428 72.2982639,89.2418207 L72.3187822,89.2331112 C72.071348,89.3381408 71.771068,89.228913 71.6455473,88.9841907 L69.9379891,85.6550373 L69.9379891,85.6550373 C69.3814597,85.8707912 68.8161615,86.0689563 68.2427769,86.2488507 L69.0097764,89.905529 C69.0657256,90.1722674 68.8990279,90.4493069 68.6432254,90.5226571 L68.6646522,90.516513 C68.4062625,90.5906051 68.1215323,90.4455965 68.0267713,90.1874012 L66.737369,86.6741636 C66.313384,86.7809292 65.8854861,86.8778504 65.4539327,86.9646699 L65.8347089,90.6834955 C65.8624698,90.9546209 65.6677269,91.2127181 65.4056585,91.2589279 L65.4276101,91.2550572 C65.1628912,91.3017343 64.8948782,91.1277577 64.8276252,90.8610716 L63.9117722,87.2293369 C63.3228219,87.3131995 62.7278609,87.3784046 62.1275069,87.4243346 L62.0521528,91.1658767 C62.046665,91.4383643 61.8219195,91.6708045 61.5561729,91.6847317 L61.5784327,91.6835651 C61.3099984,91.6976332 61.0651856,91.4922908 61.0309347,91.2193964 L60.5640806,87.4997326 C60.3765086,87.5035063 60.1884758,87.5054021 60.0000001,87.5054021 C59.6685084,87.5054021 59.3383865,87.4995375 59.0097325,87.4879062 L58.5111741,91.1978647 C58.4748751,91.4679795 58.2252613,91.6734836 57.9596464,91.6572379 L57.9818951,91.6585987 C57.7135938,91.6421887 57.4936001,91.4104527 57.4904619,91.1354352 L57.4477063,87.3885443 L57.4477063,87.3885443 C56.9287727,87.3407916 56.4140134,87.2786228 55.9038325,87.2024418 L54.9893362,90.8287969 C54.9226926,91.0930662 54.6514196,91.2689922 54.3893513,91.2227825 L54.4113029,91.2266532 C54.146584,91.1799761 53.9542377,90.9248257 53.9822525,90.6512209 L54.36355,86.9273041 C53.7746932,86.8046596 53.1927434,86.6631843 52.6183588,86.5035365 L51.2699122,89.9883765 C51.171559,90.2425542 50.880868,90.384109 50.6263846,90.3063057 L50.6477009,90.3128227 C50.3906437,90.2342324 50.2308261,89.9575428 50.2919762,89.6893915 L51.1238299,86.0415991 C50.6313459,85.8737691 50.1451465,85.6923601 49.6656778,85.4978185 L47.9315401,88.8073494 C47.8050454,89.0487593 47.5001986,89.156497 47.2561586,89.0503854 L47.2766001,89.0592737 C47.030092,88.9520889 46.9026239,88.659086 46.9937364,88.3995807 L48.2335275,84.8684291 C47.820243,84.6725178 47.4126214,84.4666066 47.0109754,84.2510078 L44.9092824,87.3489287 C44.7562725,87.5744672 44.441189,87.6470028 44.21073,87.5139472 L44.2300339,87.5250923 C43.997244,87.390691 43.9037642,87.0851418 44.0236679,86.8376189 L45.6540171,83.4720122 C45.211381,83.2008673 44.7770076,82.9175516 44.3513625,82.6225309 L41.9105913,85.4648246 C41.7330333,85.6715921 41.411764,85.7079929 41.1978486,85.5497039 L41.2157669,85.5629627 C40.999688,85.4030727 40.9413982,85.0889054 41.0885515,84.8565472 L43.0908651,81.694851 C42.6189929,81.3265026 42.1594497,80.9430936 41.7129583,80.5453468 L38.942358,83.0704884 C38.7409248,83.2540758 38.4176141,83.2510524 38.2245838,83.0678735 L38.2407526,83.0832172 C38.0457701,82.8981856 38.0262022,82.5792563 38.200576,82.3665635 L40.5740665,79.4714936 C40.1506647,79.049021 39.7409613,78.6128254 39.3456804,78.1636306 L36.2880457,80.3322626 C36.0657403,80.489933 35.7452079,80.4475305 35.5759403,80.2421925 L35.5901187,80.2593923 C35.4191392,80.0519775 35.4385848,79.7330407 35.6375796,79.5431841 L38.3453299,76.9597784 C38.0750211,76.6150728 37.8127646,76.2637514 37.5588438,75.9060972 L34.2929101,77.7423202 C34.0553414,77.8758897 33.7409972,77.8002147 33.5941206,77.5783083 L33.6064234,77.5968959 C33.4580613,77.3727451 33.5107384,77.0575881 33.7284885,76.8895722 L36.6894983,74.6048575 C36.3717599,74.0987009 36.0700503,73.5814613 35.785081,73.0538506 L32.3225943,74.4771846 C32.0705185,74.5808061 31.7677398,74.4673862 31.6490016,74.2292342 L31.6589474,74.2491825 C31.5390083,74.0086218 31.6297007,73.7022336 31.8663037,73.5620071 L35.0811772,71.6566616 C34.861584,71.1879348 34.6548267,70.7119957 34.4613576,70.229297 L30.8619351,71.2509683 C30.5997493,71.3253879 30.3117565,71.1784217 30.2207411,70.9283589 L30.2283648,70.949305 C30.1364289,70.6967131 30.2612224,70.4025611 30.5121786,70.2900202 L33.9212226,68.76124 C33.7313542,68.1956795 33.5593678,67.6219111 33.4059353,67.0406066 L29.7082902,67.6160876 C29.4389892,67.6580001 29.1710537,67.4770318 29.1111917,67.217741 L29.1162059,67.23946 C29.0557384,66.9775467 29.2154499,66.7007958 29.4782508,66.6196776 L33.0501661,65.5171425 C32.9630215,65.0889841 32.8858242,64.6572098 32.818826,64.2220715 L29.0784014,64.408034 C28.8061946,64.4215673 28.5586432,64.2135834 28.5262124,63.9494558 L28.5289289,63.9715799 C28.4961701,63.7047809 28.683935,63.4462405 28.9537754,63.3930368 L32.6247845,62.669235 L32.6247845,62.669235 C32.567855,62.0775456 32.5296734,61.4803777 32.5108408,60.8783323 L28.7719945,60.6068014 C28.5001675,60.5870601 28.2798081,60.3504576 28.2798081,60.0843464 L28.2798081,60.1066367 C28.2798081,59.837834 28.4976816,59.6041035 28.7719945,59.5841818 L32.5056368,59.3130287 L32.5056369,59.3130247 C32.5204556,58.710826 32.5546307,58.1134293 32.6075639,57.5214333 L32.6075639,57.5214333 L28.9311253,56.7965609 C28.6637303,56.7438394 28.473848,56.4821455 28.5062788,56.2180178 L28.5035623,56.240142 C28.5363211,55.9733429 28.7810552,55.7679067 29.0557513,55.7815638 L32.7911014,55.967274 C32.8551476,55.5316788 32.9294056,55.0994047 33.0136244,54.6707028 L29.4364424,53.566542 C29.1760231,53.4861589 29.0145355,53.2060505 29.0743975,52.9467597 L29.0693833,52.9684787 C29.1298507,52.7065654 29.394718,52.5278363 29.6664817,52.5701321 L33.3590048,53.1448159 L33.3590048,53.1448159 C33.5084765,52.5624392 33.676541,51.987517 33.8625281,51.4207194 L30.4486123,49.8897544 C30.1999303,49.7782334 30.073783,49.4805324 30.1647984,49.2304697 L30.1571747,49.2514157 C30.2491106,48.9988238 30.5337853,48.8537061 30.7983688,48.9288063 L34.3926296,49.9490125 C34.612225,49.3901197 34.8495889,48.8401569 35.1040257,48.2998197 L31.9013253,46.3637255 C31.6680879,46.2227291 31.5791616,45.9118736 31.6999735,45.6747668 L31.689854,45.6946276 C31.8118878,45.4551227 32.1121259,45.3457798 32.3655848,45.4525648 L35.8106681,46.9040163 L35.8106671,46.9040159 C36.0201173,46.518036 36.2385364,46.1376311 36.4656447,45.7630807 L33.4808995,43.5013292 C33.263678,43.3367252 33.2077321,43.0182773 33.3526666,42.7950977 L33.3405265,42.8137919 C33.4869269,42.588355 33.7969497,42.5109945 34.0378581,42.6436883 L37.3147078,44.4485961 L37.3147078,44.4485961 C37.6538497,43.9549078 38.0086892,43.4728445 38.3785063,43.0031262 L35.6895635,40.3924615 C35.4940213,40.2026118 35.4773014,39.8797195 35.6483544,39.6758665 L35.6340265,39.6929419 C35.8068095,39.4870271 36.1239494,39.4480255 36.3468907,39.6090895 L39.3811925,41.8012207 L39.3811922,41.8012205 C39.7773386,41.3528004 40.1878859,40.9174013 40.6121104,40.4957472 L38.2606401,37.5759353 C38.0896923,37.3636701 38.1124477,37.041147 38.3070691,36.8596596 L38.2907671,36.8748615 C38.4873569,36.6915385 38.8068859,36.6914773 39.0085367,36.8785104 L41.7530841,39.4241055 L41.753084,39.4241054 C42.0807621,39.1333395 42.4154338,38.8502806 42.756815,38.575213 L42.756815,38.575213 L40.7239516,35.4264088 C40.5761281,35.1974375 40.6324716,34.8790598 40.8449975,34.7189101 L40.8271957,34.7323247 C41.041871,34.5705552 41.3596561,34.6038942 41.5406519,34.810981 L44.0028798,37.6281443 C44.4888342,37.2800804 44.9865985,36.947455 45.4954555,36.6309852 L43.8627122,33.2604364 C43.7438951,33.0151567 43.8386192,32.7060186 44.0690783,32.572963 L44.0497743,32.5841081 C44.2825642,32.4497068 44.5939175,32.5215255 44.7483268,32.7491266 L46.8471299,35.8427879 L46.8471299,35.8427879 C47.3716152,35.5566464 47.9064467,35.2870863 48.45092,35.034812 L48.45092,35.034812 L47.2420426,31.4931275 C47.1540032,31.2351959 47.2856957,30.939906 47.5306524,30.8359281 L47.510134,30.8446376 C47.7575682,30.739608 48.0578482,30.8488359 48.1833689,31.0935582 L49.8885252,34.4180284 C50.4436075,34.1984681 51.0075418,33.9964499 51.5796446,33.8126573 L50.8115648,30.1508286 C50.7556156,29.8840902 50.9223132,29.6070507 51.1781157,29.5337006 L51.1566889,29.5398446 C51.4150786,29.4657525 51.6998089,29.6107611 51.7945698,29.8689564 L53.0820957,33.3770811 C53.5053772,33.2674153 53.9326157,33.1675765 54.3635534,33.0778227 L53.982256,29.3539065 C53.954495,29.0827811 54.149238,28.8246839 54.4113064,28.7784742 L54.3893547,28.7823448 C54.6540737,28.7356677 54.9220866,28.9096444 54.9893397,29.1763305 L55.9038359,32.8026852 C56.4922687,32.7148196 57.0867921,32.6455942 57.6867861,32.5956289 L57.7622431,28.8489784 C57.7677309,28.5764907 57.9924765,28.3440505 58.258223,28.3301234 L58.2359632,28.3312899 C58.5043975,28.3172219 58.7492103,28.5225643 58.7834612,28.7954586 L59.2496427,32.5097634 C59.4989486,32.5030856 59.749082,32.4997254 60.0000001,32.4997254 C60.26893,32.4997254 60.5369583,32.5035853 60.8040327,32.5112527 L61.3033137,28.7959169 C61.3396127,28.525802 61.5892265,28.3202979 61.8548414,28.3365436 L61.8325927,28.3351828 C62.100894,28.3515928 62.3208877,28.5833288 62.3240259,28.8583463 L62.3667233,32.6001372 C62.8859908,32.6443948 63.4011425,32.7030803 63.9117757,32.7757912 L64.8276285,29.144057 C64.8942721,28.8797876 65.1655451,28.7038616 65.4276135,28.7500713 L65.4056618,28.7462007 C65.6703808,28.7928778 65.862727,29.0480281 65.8347122,29.321633 L65.453936,33.0404583 C66.0436514,33.1590968 66.6265408,33.2965982 67.2019476,33.4523061 L68.5523501,29.9624115 C68.6507032,29.7082338 68.9413942,29.566679 69.1958776,29.6444824 L69.1745613,29.6379653 C69.4316185,29.7165556 69.5914361,29.9932452 69.5302861,30.2613966 L68.6996085,33.9040312 C69.1932575,34.0685049 69.6806837,34.2465927 70.1614414,34.4378492 L71.8980161,31.1236675 C72.0245108,30.8822575 72.3293576,30.7745198 72.5733975,30.8806314 L72.552956,30.8717431 C72.7994642,30.9789279 72.9269323,31.2719309 72.8358197,31.5314361 L71.5978298,35.0574577 C72.1254864,35.3032002 72.6440487,35.5651919 73.1528734,35.8427895 L75.2516767,32.749128 C75.4046866,32.5235895 75.7197701,32.4510539 75.9502291,32.5841095 L75.9309252,32.5729644 C76.1637151,32.7073657 76.2571949,33.0129149 76.1372912,33.2604378 L74.5045477,36.6309871 C74.9453087,36.9051065 75.3777473,37.1913469 75.8013973,37.4892423 L78.2388132,34.6508558 C78.4163713,34.4440883 78.7376406,34.4076875 78.9515559,34.5659765 L78.9336377,34.5527177 C79.1497166,34.7126076 79.2080063,35.026775 79.060853,35.2591332 L77.0556275,38.4254272 C77.5249799,38.7969302 77.9819257,39.1834217 78.4257421,39.5841788 L81.1924599,37.0625757 C81.3938931,36.8789883 81.7172038,36.8820117 81.9102341,37.0651906 L81.8940653,37.049847 C82.0890478,37.2348785 82.1086157,37.5538078 81.9342419,37.7665006 L79.5573823,40.66568 C79.9779151,41.0909781 80.3846753,41.5299229 80.7769391,41.9817907 L83.8301758,39.8162781 C84.0524812,39.6586077 84.3730136,39.7010102 84.5422811,39.9063481 L84.5281027,39.8891484 C84.6990823,40.0965631 84.6796366,40.4154999 84.4806418,40.6053565 L81.7691397,43.1923419 C82.0371148,43.5388592 82.2970001,43.8919502 82.5485126,44.2513316 L85.809673,42.4177923 C86.0472416,42.2842229 86.3615858,42.3598978 86.5084625,42.5818042 L86.4961596,42.5632166 C86.6445218,42.7873674 86.5918447,43.1025244 86.3740946,43.2705403 L83.4090183,45.5583927 C83.7233121,46.0666729 84.0215141,46.5859545 84.3029134,47.1155267 L87.7603362,45.6942744 C88.012412,45.5906529 88.3151907,45.7040727 88.4339289,45.9422248 L88.4239831,45.9222765 C88.5439222,46.1628372 88.4532298,46.4692253 88.2166268,46.6094518 L84.9972872,48.5174443 C85.2136752,48.9876353 85.4171874,49.4649764 85.6073719,49.9490157 L89.201633,48.9288094 C89.4638188,48.8543898 89.7518117,49.0013561 89.8428271,49.2514188 L89.8352034,49.2304728 C89.9271393,49.4830647 89.8023457,49.7772166 89.5513895,49.8897575 L86.1374732,51.4207227 C86.3234603,51.9875203 86.4915247,52.5624425 86.6409962,53.1448192 L90.3335197,52.5701353 C90.6028206,52.5282228 90.8707562,52.7091912 90.9306182,52.968482 L90.9256039,52.946763 C90.9860714,53.2086762 90.8263599,53.4854271 90.563559,53.5665453 L86.9863765,54.6707063 C87.0705952,55.0994082 87.1448531,55.5316822 87.2088993,55.9672774 L90.9442498,55.7815672 C91.2164565,55.7680339 91.464008,55.9760177 91.4964388,56.2401454 L91.4937223,56.2180212 C91.5264811,56.4848203 91.3387162,56.7433607 91.0688758,56.7965643 L87.3924367,57.5214368 C87.4453698,58.1134341 87.479545,58.7108321 87.4943635,59.3130321 L91.2280061,59.5841852 C91.4998332,59.6039265 91.7201925,59.8405289 91.7201925,60.1066402 L91.7201925,60.0843499 C91.7201925,60.3531525 91.5023191,60.586883 91.2280061,60.6068048 L87.4891593,60.8783358 C87.4703266,61.4803811 87.4321449,62.0775491 87.3752154,62.6692384 L91.0462248,63.3930403 C91.3136199,63.4457618 91.5035021,63.7074558 91.4710713,63.9715834 L91.4737878,63.9494593 C91.441029,64.2162583 91.1962949,64.4216945 90.9215989,64.4080375 L87.1811717,64.2220748 L87.1811737,64.2220749 L87.1811737,64.2220749 Z M60.0000003,82.3435306 C72.3358894,82.3435306 82.3361034,72.3433166 82.3361034,60.0074275 C82.3361034,47.6715384 72.3358894,37.6713245 60.0000003,37.6713245 C47.6641112,37.6713245 37.6638973,47.6715384 37.6638973,60.0074275 C37.6638973,72.3433166 47.6641112,82.3435306 60.0000003,82.3435306 L60.0000003,82.3435306 Z" id="small-gear" fill="#B5B7BA"></path>
                <path d="M101.155498,68.4214017 L106.610224,70.1050999 C107.007914,70.227854 107.254524,70.6556119 107.163108,71.0515788 C107.078425,71.4183831 106.673942,71.6913231 106.258927,71.6267325 L100.612197,70.7479067 C100.377888,71.6356255 100.115245,72.5118358 99.8252934,73.3755118 L105.031297,75.7101354 C105.411063,75.8804408 105.603704,76.3350644 105.464713,76.716939 C105.335958,77.0706889 104.901227,77.2923004 104.497178,77.1776137 L99.0004449,75.6174038 C98.6593083,76.4685275 98.2911177,77.3058891 97.896937,78.1284247 L102.781056,81.0809689 C103.137236,81.2962868 103.273037,81.7709988 103.088543,82.1330882 C102.917637,82.4685101 102.459139,82.6354893 102.072078,82.4724163 L96.8033288,80.252634 C96.4795006,80.8398463 96.1420274,81.4184789 95.7913364,81.9881044 L100.343136,85.4373232 C100.674858,85.6886925 100.760294,86.1749991 100.538962,86.5158201 C100.333931,86.8315399 99.8604907,86.9496783 99.492596,86.7470397 L94.4811379,83.9866995 C93.9581775,84.7370549 93.4113508,85.4695372 92.8417579,86.1830464 L96.9423943,90.1643088 C97.2410097,90.4542312 97.2665429,90.9473248 97.0053253,91.2586319 C96.7633462,91.5470114 96.2790371,91.6065713 95.93858,91.3606081 L91.2981883,88.0081572 C90.6886555,88.688826 90.0572442,89.3494943 89.40506,89.9890565 L92.9909268,94.4416139 C93.2519837,94.7657673 93.2172336,95.2582973 92.9200243,95.5354495 C92.6447042,95.7921896 92.1567466,95.7922832 91.8488025,95.506662 L87.651691,91.6137992 C87.1483175,92.0544448 86.6343274,92.4832615 86.1101547,92.8998155 L89.2100701,97.70143 C89.4358136,98.0510956 89.3497705,98.537295 89.025219,98.7818621 C88.7245705,99.008417 88.2392762,98.9575046 87.9628746,98.6412592 L84.1975881,94.3331986 C83.4519274,94.859693 82.6883543,95.3625089 81.9079629,95.8405521 L84.3976941,100.980221 C84.5791415,101.354792 84.4344869,101.826881 84.0825494,102.030072 C83.7565317,102.218299 83.2810594,102.108623 83.0452587,101.76105 L79.8357312,97.0301678 C79.0318659,97.4616729 78.2123265,97.8677671 77.3781872,98.2473761 L79.2216047,103.648092 C79.356051,104.041983 79.1549414,104.492925 78.7808644,104.651711 C78.4343378,104.798803 77.9757756,104.631999 77.7840911,104.25828 L75.1764531,99.17428 C74.3265686,99.5037609 73.4632933,99.8063819 72.5876689,100.081101 L73.7589655,105.66527 C73.8444063,106.07261 73.5898398,106.495681 73.1992,106.607696 C72.8373303,106.71146 72.4025145,106.490015 72.2578036,106.095721 L70.2887378,100.730603 C69.6412638,100.893646 68.9878146,101.041656 68.3287828,101.17424 L68.9102719,106.853314 C68.9526661,107.267354 68.6552712,107.661498 68.2550626,107.732066 C67.884329,107.797436 67.4750423,107.531754 67.3723392,107.124493 L65.9737263,101.578417 C65.0743314,101.706484 64.1657575,101.80606 63.2489477,101.876201 L63.1338734,107.589966 C63.1254929,108.006086 62.7822806,108.361049 62.376455,108.382317 C62.0005182,108.402019 61.6266609,108.088438 61.5743558,107.671697 L60.8614159,101.991342 C60.5749718,101.997105 60.287824,102 60,102 C59.4937741,102 58.9896399,101.991044 58.4877473,101.973282 L57.7263914,107.638815 C57.6709585,108.051312 57.2897695,108.36514 56.884145,108.340331 C56.5083945,108.317349 56.1724387,107.963462 56.1676463,107.543478 L56.1023536,101.821545 C55.3098822,101.748621 54.5237855,101.653682 53.7446806,101.537345 L52.3481395,107.075206 C52.246367,107.478776 51.832102,107.747435 51.4318934,107.676868 C51.0611598,107.611497 50.7674249,107.221853 50.8102067,106.804027 L51.3924919,101.117178 C50.4932398,100.929885 49.6045354,100.713836 48.7273841,100.470036 L46.6681508,105.791788 C46.5179542,106.179946 46.0740356,106.396117 45.6854102,106.277302 C45.3254066,106.167238 45.0813468,105.744701 45.17473,105.335203 L46.4450664,99.7646043 C45.6929867,99.5083085 44.9505041,99.2312761 44.2183002,98.9341886 L41.5700723,103.988223 C41.3769004,104.356884 40.9113642,104.521412 40.5386871,104.359367 C40.1934573,104.209257 39.9987989,103.761808 40.1379383,103.365514 L42.031242,97.9730386 C41.4001088,97.6738596 40.7776238,97.3594094 40.1642641,97.0301652 L36.954737,101.761047 C36.7210732,102.10547 36.2399045,102.21624 35.887967,102.013049 C35.5619494,101.824823 35.4191949,101.358214 35.6023017,100.980218 L38.0920326,95.8405493 C37.4160763,95.4264797 36.7527381,94.9938241 36.1027291,94.5432935 L32.3753906,98.8838032 C32.104239,99.199561 31.6136238,99.2551492 31.2869504,99.0134237 C30.9843363,98.789501 30.8953211,98.3097313 31.1200412,97.9548935 L34.1778045,93.1266196 C33.4572012,92.5641091 32.7554259,91.9785995 32.0735822,91.3711944 L27.8425566,95.2273762 C27.534945,95.5077353 27.0412122,95.5031183 26.7464328,95.223383 C26.4733636,94.9642501 26.4434812,94.4772083 26.7097701,94.1524019 L30.3343633,89.7312969 C29.68778,89.0861326 29.0621158,88.4200116 28.4584763,87.7340396 L23.7891161,91.0457902 C23.4496302,91.2865711 22.9601403,91.2218176 22.7016493,90.9082429 C22.4621959,90.6177627 22.4918917,90.1307095 22.7957796,89.8407766 L26.930826,85.8956186 C26.5180333,85.3692136 26.1175375,84.8327053 25.7297711,84.2865262 L20.7423144,87.0906501 C20.3795198,87.294626 19.89948,87.1790616 19.6751824,86.840185 C19.4674042,86.5262664 19.5478482,86.0449854 19.8803777,85.7884057 L24.4021805,82.2993834 C23.9169574,81.5264239 23.456212,80.7365396 23.0210312,79.9308173 L17.7334155,82.1044121 C17.3484667,82.2626541 16.8860888,82.0894489 16.7047618,81.7257633 C16.5367894,81.3888628 16.6752872,80.9209728 17.0366072,80.7068308 L21.9460891,77.7971489 C21.610745,77.081349 21.2950027,76.3545353 20.9995531,75.6173989 L15.5028207,77.1776085 C15.1024329,77.2912559 14.6626346,77.0668215 14.5236436,76.6849469 C14.3948892,76.331197 14.5854633,75.8819931 14.9687023,75.7101302 L20.1747049,73.3755068 C19.8847539,72.5118308 19.6221109,71.6356204 19.3878018,70.7479015 L13.7410721,71.6267272 C13.3298185,71.6907324 12.9206501,71.414373 12.829234,71.0184061 C12.7445505,70.6516018 12.9884483,70.2289713 13.3897755,70.1050946 L18.8445013,68.4213965 C18.7114214,67.7675494 18.5935323,67.1081803 18.4912183,66.4436739 L12.7791594,66.7276602 C12.3634684,66.748327 11.9854289,66.4307118 11.9359033,66.0273584 C11.8900252,65.6537117 12.1767639,65.2588907 12.5888412,65.1776427 L18.1948947,64.0723139 C18.1079568,63.1687361 18.0496491,62.2567919 18.0208895,61.3373994 L12.3112409,60.9227404 C11.8961297,60.8925932 11.5596156,60.531274 11.5596156,60.1248915 C11.5596156,59.7484388 11.8923335,59.3915054 12.3112409,59.3610825 L18.0129424,58.9470006 C18.0355724,58.0273678 18.0877618,57.1150743 18.1685968,56.2110281 L12.5542519,55.1040646 C12.1459089,55.0235529 11.8559368,54.6239161 11.9054624,54.2205627 C11.9513404,53.846916 12.3250776,53.5331912 12.7445701,53.5540471 L18.4488798,53.8376481 C18.5466857,53.172444 18.6600862,52.5123117 18.788698,51.8576346 L13.3259293,50.1714539 C12.928239,50.0486998 12.6816288,49.6209419 12.773045,49.224975 C12.8577284,48.8581707 13.2622113,48.5852307 13.6772258,48.6498213 L19.3161336,49.5274296 C19.5443941,48.6380733 19.8010479,47.7601009 20.0850716,46.8945358 L14.8716292,44.5565761 C14.4918632,44.3862706 14.2992218,43.931647 14.4382128,43.5497724 C14.5669672,43.1960225 15.0016982,42.9744111 15.4057476,43.0890977 L20.8945976,44.64707 C21.2299451,43.7935763 21.592427,42.9537199 21.9809813,42.1285628 L17.0900891,39.1719241 C16.7339089,38.9566062 16.5981081,38.4818942 16.7826019,38.1198048 C16.9535078,37.784383 17.412006,37.6174037 17.7990669,37.7804768 L23.0601056,39.9970103 C23.3799587,39.407574 23.7135097,38.8266519 24.0603303,38.2546704 L19.5022809,34.8007154 C19.1705586,34.5493461 19.0851227,34.0630396 19.3064545,33.7222186 C19.5114853,33.4064988 19.9849259,33.2883604 20.3528207,33.4909989 L25.3569474,36.247301 C25.8748562,35.4933821 26.4167369,34.757216 26.9814901,34.0399021 L22.875165,30.0531166 C22.5765496,29.7631942 22.5510164,29.2701005 22.812234,28.9587935 C23.0542131,28.670414 23.5385222,28.6108541 23.8789793,28.8568173 L28.5127074,32.2044541 C29.117668,31.5196646 29.7446211,30.8547601 30.3924606,30.2108457 L26.8014949,25.7519569 C26.540438,25.4278035 26.5751881,24.9352735 26.8723974,24.6581213 C27.1477175,24.4013812 27.6356751,24.4012876 27.9436191,24.6869088 L32.1348589,28.5743254 C32.635261,28.1302923 33.1463432,27.6980288 33.6676715,27.2779689 L30.5632551,22.4693825 C30.3375115,22.119717 30.4235547,21.6335175 30.7481061,21.3889505 C31.0487547,21.1623955 31.534049,21.213308 31.8104505,21.5295534 L35.5705559,25.831686 C36.3126642,25.3001524 37.0728075,24.7921951 37.8498908,24.3089093 L35.3565038,19.1616933 C35.1750564,18.7871229 35.319711,18.3150335 35.6716486,18.1118423 C35.9976662,17.9236159 36.4731386,18.0332913 36.7089392,18.3808644 L39.9140532,23.1052413 C40.7150026,22.6682703 41.5317519,22.256621 42.3632253,21.8713691 L40.5171304,16.4628091 C40.3826841,16.0689178 40.5837937,15.6179763 40.9578707,15.45919 C41.3043973,15.3120982 41.7629594,15.4789017 41.954644,15.8526208 L44.5586138,20.9294695 C45.4062884,20.5941757 46.2674811,20.2856706 47.1411479,20.0049982 L45.9682016,14.4129642 C45.8827607,14.0056241 46.1373272,13.5825529 46.5279671,13.4705387 C46.8898367,13.3667742 47.3246526,13.588219 47.4693634,13.982513 L49.4355636,19.3398232 C50.0819632,19.1723508 50.7344057,19.0198855 51.3924971,18.8828212 L50.810212,13.1959725 C50.7678179,12.7819327 51.0652128,12.3877886 51.4654214,12.317221 C51.836155,12.2518507 52.2454416,12.517533 52.3481448,12.9247934 L53.7446858,18.4626546 C54.6432904,18.3284737 55.551196,18.2227584 56.467456,18.1464557 L56.5826874,12.4248891 C56.591068,12.0087691 56.9342803,11.6538062 57.3401058,11.6325377 C57.7160426,11.6128357 58.0899,11.9264172 58.1422051,12.3431583 L58.8541178,18.0153292 C59.2348367,18.0051314 59.6168191,18 60,18 C60.4106868,18 60.8199969,18.0058945 61.2278503,18.0176036 L61.9903098,12.3438581 C62.0457427,11.9313616 62.4269317,11.6175331 62.8325562,11.6423422 C63.2083068,11.6653241 63.5442625,12.0192117 63.5490549,12.439195 L63.6142588,18.1533404 C64.40724,18.2209268 65.1939359,18.3105463 65.9737316,18.4215842 L67.3723443,12.8755081 C67.4741167,12.4719384 67.8883818,12.2032791 68.2885904,12.2738467 C68.6593239,12.339217 68.9530589,12.728861 68.910277,13.1466871 L68.3287879,18.8257613 C69.2293513,19.006936 70.1194903,19.2169165 70.9982027,19.4547004 L73.0604228,14.1252297 C73.2106194,13.737071 73.654538,13.5209005 74.0431634,13.6397152 C74.403167,13.7497794 74.6472268,14.1723163 74.5538436,14.5818142 L73.2853034,20.1445366 C74.0391623,20.3957069 74.7835181,20.6676675 75.5176905,20.9597382 L78.16964,15.8986011 C78.3628119,15.5299404 78.8283481,15.3654124 79.2010252,15.5274571 C79.546255,15.6775673 79.7409134,16.1250164 79.601774,16.5213108 L77.7112209,21.9059516 C78.5170133,22.2812288 79.3089176,22.6813202 80.0859515,23.1052437 L83.2910657,18.3808664 C83.5247295,18.0364432 84.0058982,17.925673 84.3578357,18.1288643 C84.6838534,18.3170906 84.8266078,18.7836995 84.6435011,19.1616954 L82.1501137,24.3089122 C82.8232066,24.7275241 83.48359,25.1646461 84.1305524,25.6195667 L87.852767,21.2850237 C88.1239186,20.969266 88.6145338,20.9136777 88.9412072,21.1554033 C89.2438213,21.3793259 89.3328365,21.8590956 89.1081164,22.2139334 L86.0459063,27.0492288 C86.7626614,27.6165567 87.4604702,28.2067737 88.1382289,28.8187759 L92.3633255,24.9679977 C92.6709371,24.6876386 93.1646699,24.6922557 93.4594493,24.9719909 C93.7325185,25.2311239 93.7624009,25.7181656 93.496112,26.042972 L89.8663738,30.4703527 C90.5085758,31.1198317 91.1297455,31.790151 91.7287775,32.4802052 L96.3914213,29.1732182 C96.7309072,28.9324373 97.2203971,28.9971908 97.4788881,29.3107655 C97.7183415,29.6012457 97.6886457,30.0882989 97.3847578,30.3782318 L93.2439819,34.3288562 C93.6532108,34.8580281 94.0500856,35.3972386 94.434174,35.9460554 L99.4143414,33.1460299 C99.777136,32.9420539 100.257176,33.0576183 100.481473,33.3964949 C100.689252,33.7104135 100.608808,34.1916945 100.276278,34.4482742 L95.7482653,37.9420881 C96.2282282,38.7182904 96.683617,39.5112933 97.113346,40.320011 L102.393229,38.1495952 C102.778177,37.9913532 103.240555,38.1645583 103.421882,38.528244 C103.589855,38.8651445 103.451357,39.3330344 103.090037,39.5471764 L98.1737347,42.4609005 C98.5041841,43.1789364 98.8149706,43.9078912 99.1054043,44.6470749 L104.594255,43.0891025 C104.994643,42.9754551 105.434441,43.1998895 105.573432,43.5817641 C105.702186,43.935514 105.511612,44.3847179 105.128373,44.5565808 L99.9149301,46.8945409 C100.198954,47.760106 100.455607,48.6380784 100.683868,49.5274347 L106.322776,48.6498263 C106.73403,48.5858211 107.143198,48.8621805 107.234614,49.2581474 C107.319298,49.6249517 107.0754,50.0475822 106.674073,50.1714589 L101.211303,51.8576399 C101.339915,52.512317 101.453315,53.1724492 101.551121,53.8376533 L107.255431,53.5540523 C107.671122,53.5333854 108.049162,53.8510007 108.098687,54.254354 C108.144565,54.6280008 107.857827,55.0228217 107.445749,55.1040698 L101.831404,56.2110335 C101.912239,57.1150816 101.964428,58.0273771 101.987058,58.9470058 L107.68876,59.3610878 C108.103871,59.3912349 108.440385,59.7525542 108.440385,60.1589366 C108.440385,60.5353894 108.107667,60.8923228 107.68876,60.9227456 L101.97911,61.3374047 C101.950351,62.2567972 101.892043,63.1687414 101.805105,64.0723192 L107.411159,65.177648 C107.819502,65.2581598 108.109474,65.6577965 108.059948,66.0611499 C108.01407,66.4347966 107.640333,66.7485214 107.220841,66.7276655 L101.508778,66.4436791 C101.406467,67.1081856 101.288578,67.7675546 101.155498,68.4214017 Z M80.4125974,90.9545898 C65.932131,101.075195 51.1740222,95.5888452 51.1740222,95.5888452 C46.8737526,94.6315278 45.149383,90.7481491 47.3299823,86.9019402 L60.2651246,64.0865334 C60.8095958,63.126178 62.1520945,62.3476563 63.249796,62.3476563 L89.7050697,62.3476563 C94.1233515,62.3476563 96.9219672,65.8390774 95.5960377,70.0440235 C95.5960377,70.0440235 94.8930638,80.8339844 80.4125974,90.9545898 Z M77.9057614,27.7260741 C63.6909169,19.4741207 50.8857553,24.1209551 50.8857553,24.1209551 C46.5731809,25.0217304 44.8539746,28.8614818 47.0416826,32.6900728 L60.3528415,55.985222 C60.9025324,56.9472067 62.2431935,57.7270494 63.3477964,57.7270495 L90.3026897,57.7270505 C94.7180265,57.7270507 97.156608,54.3259255 95.5139296,50.2266585 C95.5139296,50.2266585 92.120606,35.9780275 77.9057614,27.7260741 Z M22.7500003,60.0074275 C22.7500003,75.9357536 34.3958562,86.4771478 34.3958562,86.4771478 C36.9708098,89.3498925 40.5906114,88.9503849 42.4888203,85.5707378 L55.8688997,61.7483088 C56.4112175,60.7827445 56.4110327,59.2203784 55.8688997,58.2593982 L42.9849171,35.4213627 C40.8162633,31.5772259 36.3509601,30.7970517 33.1770864,33.8694993 C33.1770864,33.8694993 22.7500003,44.0791014 22.7500003,60.0074275 Z" id="big-gear" fill="url(#linearGradient-2)" filter="url(#filter-3)"></path>
                <circle id="Oval-28" fill="#4C4C4C" cx="60" cy="60.0074275" r="1.875"></circle>
            </g>
        </g>
    </g>
</svg>