<?xml version="1.0" encoding="UTF-8" standalone="no"?>
<svg width="120px" height="120px" viewBox="0 0 120 120" version="1.1" xmlns="http://www.w3.org/2000/svg" xmlns:xlink="http://www.w3.org/1999/xlink" xmlns:sketch="http://www.bohemiancoding.com/sketch/ns">
    <!-- Generator: Sketch 3.5.2 (25235) - http://www.bohemiancoding.com/sketch -->
    <title>Shazam</title>
    <desc>Created with Sketch.</desc>
    <defs>
        <linearGradient x1="50%" y1="100%" x2="50%" y2="3.061617e-15%" id="linearGradient-1">
            <stop stop-color="#2255FF" offset="0%"></stop>
            <stop stop-color="#00AAFF" offset="100%"></stop>
        </linearGradient>
    </defs>
    <g id="Popular-Apps" stroke="none" stroke-width="1" fill="none" fill-rule="evenodd" sketch:type="MSPage">
        <g id="iOS/iPhone-6/App-Badges/Shazam/Large" sketch:type="MSLayerGroup">
            <g id="Shazam" sketch:type="MSShapeGroup">
                <rect id="app-bg" fill="#FFFFFF" x="0" y="0" width="120" height="120" rx="28"></rect>
                <circle id="Circle" fill="url(#linearGradient-1)" cx="60" cy="60" r="52"></circle>
                <path d="M86.9239334,78.7063908 C82.1190116,83.9293908 73.5085428,92.0550575 73.1430871,92.4043908 C72.0125272,93.4673908 70.5571366,94.0000575 69.1064855,94.0000575 C67.5595194,94.0000575 66.0250793,93.4003908 64.8764074,92.2168908 C62.6413553,89.9090575 62.72616,86.2615575 65.0609126,84.0575575 C65.1457173,83.9738908 73.7346887,75.8717241 78.2545584,70.9478908 C80.3922798,68.6213908 81.4673189,65.6345575 81.2770584,62.5520575 C81.0746105,59.2862241 79.4778788,56.2203908 76.7744543,53.9205575 C73.2267069,50.8970575 66.2185558,50.2248908 61.8366418,54.1025575 C59.226147,56.4058908 56.0631522,59.7988908 56.0336991,59.8333908 C53.8396105,62.1768908 50.1445975,62.3298908 47.7649881,60.1773908 C45.3896105,58.0213908 45.2276183,54.3683908 47.4164595,52.0225575 C47.5623709,51.8650575 50.9921366,48.1862241 54.0285168,45.5045575 C62.3515637,38.1413908 75.9866678,37.9950575 84.4229569,45.1850575 C89.5312121,49.5350575 92.5596366,55.4578908 92.9557303,61.8530575 C93.3416678,68.0628908 91.1936209,74.0518908 86.9239334,78.7063908 M51.552423,79.1172241 C46.1364334,79.1172241 40.7282303,77.3508908 36.5763553,73.8117241 C31.4704699,69.4630575 28.4422147,63.5445575 28.0427355,57.1448908 C27.6647538,50.9373908 29.80366,44.9495575 34.0799491,40.2973908 C38.8804699,35.0698908 47.4921235,26.9428908 47.8553788,26.5990575 C50.1897928,24.3940575 53.8892069,24.4822241 56.124259,26.7845575 C58.3547407,29.0900575 58.275522,32.7420575 55.9397538,34.9435575 C55.8515637,35.0263908 47.2691939,43.1273908 42.7459387,48.0478908 C40.6083866,50.3835575 39.5309777,53.3633908 39.7212381,56.4427241 C39.9258866,59.7117241 41.5227876,62.7775575 44.2226574,65.0797241 C47.7751444,68.1098908 54.7810949,68.7720575 59.1650402,64.9022241 C61.7723189,62.5912241 64.9385298,59.2002241 64.9703527,59.1668908 C67.1556392,56.8188908 70.859285,56.6682241 73.2346626,58.8275575 C75.6122407,60.9812241 75.770509,64.6365575 73.5831913,66.9823908 C73.4382954,67.1318908 70.0039595,70.8083908 66.971134,73.4935575 C62.7454569,77.2358908 57.1449621,79.1172241 51.552423,79.1172241" fill="#FFFFFF"></path>
            </g>
        </g>
    </g>
</svg>