<?xml version="1.0" encoding="UTF-8" standalone="no"?>
<svg width="120px" height="120px" viewBox="0 0 120 120" version="1.1" xmlns="http://www.w3.org/2000/svg" xmlns:xlink="http://www.w3.org/1999/xlink" xmlns:sketch="http://www.bohemiancoding.com/sketch/ns">
    <!-- Generator: Sketch 3.5.2 (25235) - http://www.bohemiancoding.com/sketch -->
    <title>Skype</title>
    <desc>Created with Sketch.</desc>
    <defs></defs>
    <g id="Popular-Apps" stroke="none" stroke-width="1" fill="none" fill-rule="evenodd" sketch:type="MSPage">
        <g id="iOS/iPhone-6/App-Badges/Skype/Large" sketch:type="MSLayerGroup">
            <g id="Skype" sketch:type="MSShapeGroup">
                <rect id="app-bg" fill="#00AFF0" x="0" y="0" width="120" height="120" rx="28"></rect>
                <path d="M100.151689,67.1784756 C100.123582,67.3307232 100.104844,67.484142 100.075565,67.6352185 L99.9291735,66.767407 C100.009982,66.9032588 100.075565,67.043795 100.151689,67.1784756 C100.59555,64.7577383 100.828606,62.2784443 100.828606,59.8003214 C100.828606,54.304182 99.752332,48.9731728 97.6278921,43.9548568 C95.5772336,39.1063555 92.6447101,34.7532445 88.9029319,31.0149796 C85.1670094,27.2767148 80.8115561,24.3430202 75.965397,22.2923617 C70.9482521,20.1690929 65.6172429,19.0939904 60.1222747,19.0939904 C57.5317228,19.0939904 54.9388286,19.3375866 52.4138602,19.8212656 C52.4080046,19.8224368 52.4021489,19.8224368 52.3951221,19.8247791 C52.5368295,19.8997317 52.6808791,19.9664865 52.8190731,20.0437814 L51.962973,19.9102719 C52.1070227,19.8821647 52.2510724,19.8528863 52.3951221,19.8247791 C48.930903,17.9825828 45.0368771,17 41.0936636,17 C34.6571024,17 28.6046736,19.5062302 24.0536407,24.0596054 C19.5037789,28.6106383 16.9952065,34.663067 16.9952065,41.1007994 C16.9952065,45.1974317 18.0480574,49.2261381 20.0272765,52.7852192 C20.0530415,52.6376561 20.0717797,52.4889219 20.0987158,52.3413588 L20.2462789,53.1939455 C20.1689839,53.060436 20.1022292,52.9210709 20.0261054,52.784048 C19.6244059,55.090014 19.4124304,57.4463388 19.4124304,59.8003214 C19.4124304,65.2964607 20.488704,70.6262988 22.6131439,75.645786 C24.6614601,80.4954584 27.5963259,84.8473983 31.3334196,88.584492 C35.0728555,92.3215857 39.4247954,95.2599649 44.275639,97.3047676 C49.2927839,99.432721 54.6249642,100.508995 60.1211036,100.508995 C62.5125624,100.508995 64.909877,100.291163 67.2498059,99.8765814 C67.1139542,99.7992864 66.9734179,99.7301894 66.8352239,99.6493811 L67.7042065,99.8016287 C67.55313,99.8309071 67.4032247,99.8484741 67.2498059,99.8765814 C70.8545613,101.9167 74.93714,103 79.1052115,103 C85.5417727,103 91.5906881,100.497283 96.1428921,95.9427369 C100.696267,91.3940463 103.201326,85.3404464 103.201326,78.902714 C103.202497,74.7931992 102.143791,70.7516103 100.151689,67.1784756 L100.151689,67.1784756 Z M60.2850626,84.7302847 C45.821538,84.7302847 39.3533561,77.6203206 39.3533561,72.2916536 C39.3533561,69.5582231 41.3712227,67.6434164 44.1514986,67.6434164 C50.3409502,67.6434164 48.7376656,76.5299933 60.2850626,76.5299933 C66.1957839,76.5299933 69.4609099,73.3199107 69.4609099,70.0348753 C69.4609099,68.0603407 68.4865251,65.8703172 64.5936704,64.9111571 L51.7310882,61.6999033 C41.3712227,59.1023246 39.4915501,53.5019542 39.4915501,48.2376997 C39.4915501,37.30632 49.7823186,33.2038321 59.4477006,33.2038321 C68.3495022,33.2038321 78.8452194,38.1237727 78.8452194,44.6809609 C78.8452194,47.4905152 76.4115997,49.1242493 73.6324949,49.1242493 C68.3506734,49.1242493 69.3238871,41.8128498 58.6841202,41.8128498 C53.4046409,41.8128498 50.4791442,44.2043087 50.4791442,47.6251958 C50.4791442,51.0402271 54.6495581,52.1293832 58.2695382,52.9550338 L67.7920417,55.0677625 C78.2210042,57.3901243 80.8642572,63.4788583 80.8642572,69.2150804 C80.8630861,78.0981439 74.0459058,84.7302847 60.2850626,84.7302847 L60.2850626,84.7302847 Z" id="skype-logo" fill="#FFFFFF"></path>
            </g>
        </g>
    </g>
</svg>