<?xml version="1.0" encoding="UTF-8" standalone="no"?>
<svg width="121px" height="121px" viewBox="0 0 121 121" version="1.1" xmlns="http://www.w3.org/2000/svg" xmlns:xlink="http://www.w3.org/1999/xlink" xmlns:sketch="http://www.bohemiancoding.com/sketch/ns">
    <!-- Generator: Sketch 3.5.2 (25235) - http://www.bohemiancoding.com/sketch -->
    <title>Slack</title>
    <desc>Created with Sketch.</desc>
    <defs></defs>
    <g id="Popular-Apps" stroke="none" stroke-width="1" fill="none" fill-rule="evenodd" sketch:type="MSPage">
        <g id="iOS/iPhone-6/App-Badges/Slack/Large" sketch:type="MSLayerGroup" transform="translate(-3.000000, -2.000000)">
            <g id="Slack" sketch:type="MSShapeGroup">
                <rect id="app-bg" fill="#FFFFFF" x="3.0380061" y="3.0380061" width="120" height="120" rx="28"></rect>
                <g id="Slack-Coloring" transform="translate(62.973593, 62.974050) rotate(-1.000000) translate(-62.973593, -62.974050) translate(1.973593, 1.974050)">
                    <path d="M6.71936717,109.991185 C11.7471043,116.216047 19.3942691,120.252572 28.0248004,120.403218 L92.0107763,121.520098 C107.473575,121.790002 120.22734,109.480044 120.497355,94.0109286 L120.86602,72.8900887 L6.7193662,109.991185 L6.71936717,109.991185 Z" id="Mask" fill="#E11765"></path>
                    <path d="M107.762843,117.003804 C115.289957,112.102264 120.328706,103.672814 120.497355,94.0109286 L121.614234,30.0249527 C121.884138,14.562154 109.574181,1.80838865 94.105065,1.53837423 L70.0968962,1.11931009 L107.762843,117.003804 L107.762843,117.003804 Z" id="Mask" fill="#E9A823"></path>
                    <path d="M11.7452279,6.87040262 C5.69055653,11.8997634 1.78072881,19.4392542 1.6325107,27.9306639 L0.515631337,91.9166398 C0.245727181,107.379439 12.5556848,120.133204 28.0248004,120.403218 L48.751163,120.764998 C37.1146051,84.9503923 22.1334116,38.8423408 11.7452279,6.87040262 L11.7452279,6.87040262 Z" id="Mask" fill="#3FB991"></path>
                    <path d="M1.22031068,51.5455871 L1.6325107,27.9306639 C1.90252512,12.4615484 14.6562905,0.151590714 30.1190892,0.421494869 L94.105065,1.53837423 C103.633026,1.70468542 111.962481,6.60702279 116.892091,13.9613253 C84.722872,24.4139361 37.574242,39.7336623 1.22031068,51.5455871 L1.22031068,51.5455871 Z" id="Mask" fill="#71CBDC"></path>
                    <path d="M6.71952803,109.991385 C11.7472675,116.216133 19.3943612,120.252573 28.0248004,120.403218 L48.754268,120.765052 C46.4698146,113.734259 44.0560397,106.305872 41.5722114,98.6628699 L6.71952707,109.991384 L6.71952803,109.991385 Z" id="Mask" fill="#472A49"></path>
                    <path d="M107.7635,117.003376 C115.29025,112.101773 120.328711,103.672533 120.497355,94.0109286 L120.86598,72.8924165 L96.0487724,80.959 L107.7635,117.003376 L107.7635,117.003376 Z" id="Mask" fill="#CD2027"></path>
                    <path d="M116.892718,13.9622604 C111.963187,6.60743836 103.63343,1.70469246 94.105065,1.53837423 L70.097745,1.1193249 L78.3425203,26.4872033 C92.3084476,21.9498859 105.533761,17.6527312 116.892718,13.9622604 L116.892718,13.9622604 Z" id="Mask" fill="#66873A"></path>
                    <path d="M11.746085,6.86969066 C5.69092553,11.8990519 1.7807358,19.4388535 1.6325107,27.9306639 L1.22032859,51.5445611 C8.4127567,49.2077086 16.0288037,46.7334467 23.8707236,44.1863089 C19.4960843,30.7245544 15.3459423,17.9487641 11.746085,6.86969066 L11.746085,6.86969066 Z" id="Mask" fill="#1D947E"></path>
                </g>
                <path d="M75.078868,45.2647059 C77.3737429,46.3235294 77.5412652,47.1176471 75.7465553,50.7352941 C73.9104152,54.4411765 73.4516803,54.6620821 71.1982356,53.6908591 C68.3605645,52.4117647 64.7297145,51.4411765 62.3928088,51.4411765 C58.5536067,51.4411765 56.0077486,52.8973762 56.0077486,55.1026238 C56.0077486,62.3823529 78,58.455565 78,73.9849767 C78,81.7941176 71.65637,87 62.1424261,87 C57.1347712,87 50.9586635,85.2352941 46.7021568,82.9411765 C44.5742037,81.7941176 44.4487121,81.1326703 46.2848522,77.426788 C47.87121,74.1620821 48.3713751,73.8091409 50.6668505,74.8235294 C54.2971001,76.5 58.8880508,77.7797292 61.9761047,77.7797292 C65.4814632,77.7797292 67.8183688,76.2797292 67.8183688,74.0738468 C67.8183688,67.0150233 45.4508435,70.3679645 45.4508435,55.3235294 C45.4508435,47.3379179 51.7518424,42 61.1835262,42 C65.6063543,42 71.1982356,43.4117647 75.078868,45.2647059 L75.078868,45.2647059 Z" id="S-shape" fill="#5C3A58"></path>
            </g>
        </g>
    </g>
</svg>