<?xml version="1.0" encoding="UTF-8" standalone="no"?>
<svg width="120px" height="120px" viewBox="0 0 120 120" version="1.1" xmlns="http://www.w3.org/2000/svg" xmlns:xlink="http://www.w3.org/1999/xlink" xmlns:sketch="http://www.bohemiancoding.com/sketch/ns">
    <!-- Generator: Sketch 3.5.2 (25235) - http://www.bohemiancoding.com/sketch -->
    <title>Sleep Cycle</title>
    <desc>Created with Sketch.</desc>
    <defs>
        <linearGradient x1="50%" y1="100%" x2="50%" y2="0%" id="linearGradient-1">
            <stop stop-color="#FE6B00" offset="0%"></stop>
            <stop stop-color="#FF9600" offset="100%"></stop>
        </linearGradient>
    </defs>
    <g id="Popular-Apps" stroke="none" stroke-width="1" fill="none" fill-rule="evenodd" sketch:type="MSPage">
        <g id="iOS/iPhone-6/App-Badges/Sleep-Cycle/Large" sketch:type="MSLayerGroup" transform="translate(-7.000000, 0.000000)">
            <g id="Sleep-Cycle" transform="translate(7.000000, 0.000000)" sketch:type="MSShapeGroup">
                <rect id="app-bg" fill="url(#linearGradient-1)" x="0" y="0" width="120" height="120" rx="28"></rect>
                <path d="M46.7714844,58.5708008 L59.3984375,70.9799805 L77.2597656,52.5473633" id="Line" stroke="#FFFFFF" stroke-width="7" stroke-linecap="round"></path>
                <path d="M60,104 C82.09139,104 100,86.09139 100,64 C100,41.90861 82.09139,24 60,24 C37.90861,24 20,41.90861 20,64 C20,86.09139 37.90861,104 60,104 Z" id="clock" stroke="#FFFFFF" stroke-width="8"></path>
                <path d="M22.0741161,22.5741161 C15.6648484,28.9833838 14.9926384,39.1196553 19.4108887,45.9953613 C24.7098329,34.294652 34.6845712,24.4565428 47.2436532,21.0319824 C39.7124032,15.3469238 29.1097572,15.5384751 22.0741161,22.5741161 Z" id="left-bell" fill="#FFFFFF"></path>
                <path d="M78.0741161,22.5741161 C71.6648484,28.9833838 70.9926384,39.1196553 75.4108887,45.9953613 C80.7098329,34.294652 90.6845712,24.4565428 103.243653,21.0319824 C95.7124032,15.3469238 85.1097572,15.5384751 78.0741161,22.5741161 Z" id="right-bell" fill="#FFFFFF" transform="translate(87.914606, 31.502979) scale(-1, 1) translate(-87.914606, -31.502979) "></path>
            </g>
        </g>
    </g>
</svg>