<?xml version="1.0" encoding="UTF-8" standalone="no"?>
<svg width="120px" height="120px" viewBox="0 0 120 120" version="1.1" xmlns="http://www.w3.org/2000/svg" xmlns:xlink="http://www.w3.org/1999/xlink" xmlns:sketch="http://www.bohemiancoding.com/sketch/ns">
    <!-- Generator: Sketch 3.5.2 (25235) - http://www.bohemiancoding.com/sketch -->
    <title>Snapchat</title>
    <desc>Created with Sketch.</desc>
    <defs></defs>
    <g id="Popular-Apps" stroke="none" stroke-width="1" fill="none" fill-rule="evenodd" sketch:type="MSPage">
        <g id="iOS/iPhone-6/App-Badges/Snapchat/Large" sketch:type="MSLayerGroup">
            <g id="Snapchat" sketch:type="MSShapeGroup">
                <rect id="app-bg" fill="#F8EB32" x="0" y="0" width="120" height="120" rx="28"></rect>
                <path d="M59.464,99.16 C59.248,99.16 59.032,99.152 58.82,99.144 C58.684,99.156 58.54,99.16 58.396,99.16 C53.4,99.16 50.188,96.892 47.088,94.696 C44.944,93.184 42.92,91.756 40.54,91.356 C39.376,91.164 38.22,91.068 37.1,91.068 C35.088,91.068 33.496,91.38 32.336,91.604 C31.632,91.744 31.024,91.86 30.56,91.86 C30.08,91.86 29.556,91.756 29.328,90.98 C29.132,90.308 28.988,89.656 28.852,89.024 C28.496,87.4 28.244,86.404 27.564,86.3 C19.636,85.072 17.364,83.404 16.86,82.22 C16.788,82.048 16.748,81.88 16.736,81.712 C16.712,81.256 17.032,80.852 17.484,80.78 C29.672,78.772 35.14,66.316 35.368,65.784 C35.372,65.772 35.38,65.756 35.384,65.744 C36.132,64.232 36.276,62.916 35.82,61.844 C34.984,59.872 32.256,59.004 30.452,58.432 C30.008,58.292 29.588,58.16 29.26,58.028 C25.656,56.604 25.356,55.14 25.496,54.396 C25.74,53.128 27.436,52.24 28.808,52.24 C29.184,52.24 29.516,52.308 29.796,52.44 C31.416,53.196 32.876,53.584 34.136,53.584 C35.88,53.584 36.64,52.852 36.732,52.756 C36.688,51.928 36.632,51.068 36.576,50.18 C36.216,44.416 35.764,37.256 37.588,33.168 C43.052,20.916 54.64,19.964 58.06,19.964 C58.148,19.964 59.56,19.948 59.56,19.948 L59.764,19.948 C63.192,19.948 74.808,20.9 80.276,33.16 C82.1,37.248 81.648,44.416 81.284,50.176 L81.268,50.424 C81.22,51.228 81.168,52.008 81.128,52.752 C81.216,52.844 81.916,53.516 83.496,53.576 C84.696,53.528 86.076,53.148 87.588,52.44 C88.032,52.232 88.524,52.188 88.86,52.188 C89.372,52.188 89.892,52.288 90.324,52.468 L90.348,52.476 C91.572,52.912 92.376,53.768 92.392,54.664 C92.408,55.512 91.764,56.78 88.604,58.028 C88.276,58.156 87.856,58.292 87.412,58.432 C85.604,59.004 82.876,59.872 82.04,61.84 C81.584,62.916 81.732,64.228 82.476,65.74 C82.484,65.756 82.492,65.768 82.496,65.784 C82.724,66.316 88.184,78.768 100.38,80.78 C100.828,80.852 101.152,81.256 101.128,81.712 C101.116,81.88 101.076,82.052 101,82.22 C100.5,83.396 98.232,85.064 90.3,86.292 C89.652,86.388 89.4,87.236 89.012,89.004 C88.872,89.648 88.728,90.284 88.532,90.948 C88.364,91.524 88.004,91.796 87.4,91.796 L87.3,91.796 C86.88,91.796 86.284,91.72 85.524,91.572 C84.184,91.308 82.676,91.068 80.76,91.068 C79.644,91.068 78.484,91.164 77.32,91.356 C74.944,91.756 72.92,93.18 70.784,94.692 C67.672,96.892 64.464,99.16 59.464,99.16" id="ghost" stroke="#000000" stroke-width="2" fill="#FFFFFF"></path>
            </g>
        </g>
    </g>
</svg>