<?xml version="1.0" encoding="UTF-8" standalone="no"?>
<svg width="120px" height="120px" viewBox="0 0 120 120" version="1.1" xmlns="http://www.w3.org/2000/svg" xmlns:xlink="http://www.w3.org/1999/xlink" xmlns:sketch="http://www.bohemiancoding.com/sketch/ns">
    <!-- Generator: Sketch 3.5.2 (25235) - http://www.bohemiancoding.com/sketch -->
    <title>Soundcloud</title>
    <desc>Created with Sketch.</desc>
    <defs>
        <linearGradient x1="50%" y1="100%" x2="50%" y2="0%" id="linearGradient-1">
            <stop stop-color="#FF1E00" offset="0%"></stop>
            <stop stop-color="#FF9A00" offset="100%"></stop>
        </linearGradient>
    </defs>
    <g id="Popular-Apps" stroke="none" stroke-width="1" fill="none" fill-rule="evenodd" sketch:type="MSPage">
        <g id="iOS/iPhone-6/App-Badges/Soundcloud/Large" sketch:type="MSLayerGroup" transform="translate(-9.000000, 0.000000)">
            <g id="Soundcloud" transform="translate(9.000000, 0.000000)" sketch:type="MSShapeGroup">
                <rect id="app-bg" fill="url(#linearGradient-1)" x="0" y="0" width="120" height="120" rx="28"></rect>
                <path d="M17.2394,59.1289274 C17.1926524,58.9079551 16.9522364,58.7580879 16.6567251,58.7580879 C16.3612138,58.7580879 16.1124501,58.9134248 16.0740503,59.1289274 C16.0740503,59.1311152 14.6899888,67.4000706 14.6899888,67.4000706 L16.0740503,75.486341 C16.1124501,75.7029375 16.3628834,75.8615562 16.6567251,75.8615562 C16.953906,75.8615562 17.194322,75.7073132 17.2394,75.4896227 L18.8104517,67.4011645 L17.2394,59.1289274 L17.2394,59.1289274 Z M30.2674665,77.4091268 C30.7954706,77.4091268 31.2231539,77.1220563 31.2636342,76.7412975 L32.661085,65.9407211 L31.2636342,55.6662403 C31.2266739,55.2878838 30.8007506,55.0020144 30.2674665,55.0020144 C29.7324224,55.0020144 29.3064991,55.2878838 29.2748189,55.6710448 L28.0410494,65.9407211 L29.2748189,76.7412975 C29.3064991,77.1208552 29.7306624,77.4091268 30.2674665,77.4091268 L30.2674665,77.4091268 Z M23.556197,77.1739336 C23.9388747,77.1739336 24.2499096,76.963715 24.2953416,76.6745126 L25.8557581,66.1696597 L24.297089,55.2686725 C24.251657,54.9770398 23.9406221,54.7668212 23.5579444,54.7668212 C23.1717719,54.7668212 22.860737,54.9770398 22.8187997,55.2686725 L21.4505958,66.1696597 L22.8187997,76.6720823 C22.860737,76.963715 23.1700245,77.1739336 23.556197,77.1739336 L23.556197,77.1739336 Z M49.4685519,47.086091 L48.7850046,66.7471486 L49.4685519,76.206291 C49.4823455,76.8101358 50.1551645,77.2848979 50.9950388,77.2848979 C51.8333804,77.2848979 52.500069,76.8101358 52.5215256,76.1997274 L53.2863017,66.7471486 L52.5215256,47.0839032 C52.5016016,46.4778704 51.8333804,46.0020144 50.9950388,46.0020144 C50.1551645,46.0020144 49.4823455,46.4778704 49.4685519,47.086091 Z M37.7634378,77.9465712 C38.4026611,77.9465712 38.931965,77.6096433 38.9607132,77.1786381 L40.1376957,67.4088219 L38.9607132,48.7115095 C38.931965,48.2805043 38.4026611,47.9424824 37.7634378,47.9424824 C37.1140681,47.9424824 36.5915285,48.2805043 36.5627803,48.7115095 C36.5627803,48.7126034 35.5227742,67.4088219 35.5227742,67.4088219 L36.5627803,77.1819199 C36.5915285,77.6085494 37.1140681,77.9465712 37.7634378,77.9465712 L37.7634378,77.9465712 Z M46.4434499,66.9121329 L45.5731546,44.9737922 C45.5542668,44.4306051 45.0108771,44.0020144 44.3338194,44.0020144 C43.6611204,44.0020144 43.1148249,44.4306051 43.095937,44.9737922 L42.322987,66.910987 L43.095937,76.9794294 C43.113372,77.5191786 43.6611204,77.9454773 44.3338194,77.9454773 C45.0094242,77.9454773 45.5528139,77.5191786 45.5731546,76.9771375 L46.4434499,66.9121329 Z M89.3399698,56.2201891 C88.4363903,46.0106164 79.8764518,38.0020144 69.4338737,38.0020144 C66.8773783,38.0020144 66.3865182,38.5052185 64.1866413,39.3551958 C63.3311944,39.6866541 63.1047526,40.0268638 63.0981891,40.6875926 L63.0981891,76.6404285 C63.1058465,77.333975 63.6429622,77.9115657 64.3200998,77.9793889 C64.3485418,77.9826707 93.5165635,77.9979856 93.718939,77.9979856 C99.9750782,77.9979856 105.0465,72.9254699 105.0465,66.6682368 C105.047594,60.4120977 99.9761721,54.340676 93.7200329,54.340676 C92.1666639,54.340676 90.6887755,55.6557254 89.3399698,56.2201891 Z M58.7823565,40.6558689 C58.1019371,40.6558689 57.544037,41.2159569 57.5330977,41.9018459 L57.0222362,67.4208551 L57.5330977,76.6809036 C57.544037,77.3558534 58.1019371,77.9170353 58.7823565,77.9170353 C59.4605881,77.9170353 60.0184882,77.3569474 60.0283335,76.6721523 L60.0283335,76.6819976 L60.5840458,67.4208551 L60.0283335,41.899658 C60.0184882,41.2159569 59.4605881,40.6558689 58.7823565,40.6558689 L58.7823565,40.6558689 Z" id="soundcloud" fill="#FFFFFF"></path>
            </g>
        </g>
    </g>
</svg>