<?xml version="1.0" encoding="UTF-8" standalone="no"?>
<svg width="120px" height="120px" viewBox="0 0 120 120" version="1.1" xmlns="http://www.w3.org/2000/svg" xmlns:xlink="http://www.w3.org/1999/xlink" xmlns:sketch="http://www.bohemiancoding.com/sketch/ns">
    <!-- Generator: Sketch 3.5.2 (25235) - http://www.bohemiancoding.com/sketch -->
    <title>Spotify</title>
    <desc>Created with Sketch.</desc>
    <defs>
        <linearGradient x1="50%" y1="0%" x2="50%" y2="100%" id="linearGradient-1">
            <stop stop-color="#37CD6C" offset="0%"></stop>
            <stop stop-color="#29D265" offset="100%"></stop>
        </linearGradient>
    </defs>
    <g id="Popular-Apps" stroke="none" stroke-width="1" fill="none" fill-rule="evenodd" sketch:type="MSPage">
        <g id="iOS/iPhone-6/App-Badges/Spotify/Large" sketch:type="MSLayerGroup">
            <g id="Spotify" sketch:type="MSShapeGroup">
                <rect id="app-bg" fill="#17151A" x="0" y="0" width="120" height="120" rx="28"></rect>
                <path d="M106.504597,59.7555416 C106.504597,33.933139 85.5729101,13 59.7533795,13 C33.9316871,13 13,33.933139 13,59.7555416 C13,85.5779441 33.9316871,106.510002 59.7533795,106.510002 C85.5729101,106.510002 106.504597,85.5768631 106.504597,59.7555416 L106.504597,59.7555416 Z M36.5258544,63.1768369 C34.6321123,63.7573221 32.640008,62.6849919 32.0649676,60.7965234 C31.4899272,58.9112977 32.5567785,56.9147314 34.4407924,56.3504608 C51.0845373,51.2925648 71.7708594,53.7507088 85.9069092,62.434205 C87.5833898,63.4762678 88.116275,65.6663293 87.0915789,67.3440071 C86.0485075,69.0270899 83.8477889,69.5513642 82.1734701,68.5265971 C69.8652273,60.9446174 51.0845373,58.7610418 36.5258544,63.1768369 L36.5258544,63.1768369 Z M81.4881776,79.8238982 C80.6569632,81.1621489 78.8929294,81.5858923 77.5526097,80.7708349 C66.7933009,74.1941647 53.2582332,72.7143059 37.31059,76.3572017 C35.7757077,76.7009527 34.2332591,75.7453682 33.8895319,74.2028126 C33.5360766,72.6667428 34.4969994,71.1414829 36.039448,70.789084 C53.4798184,66.7937893 68.4546489,68.5179492 80.5337402,75.903191 C81.884869,76.7160864 82.2999358,78.4683518 81.4881776,79.8238982 L81.4881776,79.8238982 Z M31.8574342,40.66547 C48.0417952,35.7481011 74.9508761,36.7036856 91.9383481,46.7892104 C93.9726076,48.0031487 94.6438483,50.6245204 93.432156,52.6686498 C92.2355964,54.7073743 89.6046784,55.3710948 87.5682571,54.1647233 C72.80096,45.3958298 48.4374057,44.5894202 34.3510775,48.872255 C32.0768575,49.5543521 29.6891427,48.2755552 29.0038502,46.0141492 C28.3163959,43.7484193 29.5896997,41.354053 31.8574342,40.66547 L31.8574342,40.66547 Z" id="spotify" fill="url(#linearGradient-1)"></path>
            </g>
        </g>
    </g>
</svg>