<?xml version="1.0" encoding="UTF-8" standalone="no"?>
<svg width="120px" height="120px" viewBox="0 0 120 120" version="1.1" xmlns="http://www.w3.org/2000/svg" xmlns:xlink="http://www.w3.org/1999/xlink" xmlns:sketch="http://www.bohemiancoding.com/sketch/ns">
    <!-- Generator: Sketch 3.5.2 (25235) - http://www.bohemiancoding.com/sketch -->
    <title>TripAdvisor</title>
    <desc>Created with Sketch.</desc>
    <defs></defs>
    <g id="Popular-Apps" stroke="none" stroke-width="1" fill="none" fill-rule="evenodd" sketch:type="MSPage">
        <g id="iOS/iPhone-6/App-Badges/TripAdvisor/Large" sketch:type="MSLayerGroup" transform="translate(-6.000000, 0.000000)">
            <g id="TripAdvisor" transform="translate(6.000000, 0.000000)" sketch:type="MSShapeGroup">
                <rect id="app-bg" fill="#589442" x="0" y="0" width="120" height="120" rx="28"></rect>
                <g id="tripavisor-owl" transform="translate(11.000000, 30.000000)">
                    <ellipse id="left-eye-bg" fill="#FFFFFF" cx="24.5" cy="34" rx="21.5" ry="22"></ellipse>
                    <ellipse id="right-eye-bg" fill="#FFFFFF" cx="74.5" cy="34" rx="21.5" ry="22"></ellipse>
                    <path d="M24.4748782,9.32410714 C31.4086154,6.23222619 40.0186859,4.56407143 48.678141,4.56407143 C57.3492564,4.56407143 65.2075833,6.23784524 72.1495513,9.34236905 C59.1175,9.75115476 48.6753974,20.688631 48.6733397,34.1315 C48.6699103,20.4427976 37.8402756,9.34377381 24.4748782,9.32410714 L24.4748782,9.32410714 Z" id="forehead" stroke="#FFDF9E" fill="#FFDF9E"></path>
                    <path d="M23.7457692,30.0281905 C21.5618718,30.0281905 19.7922564,31.8403333 19.7922564,34.0767143 C19.7922564,36.3159048 21.5618718,38.1266429 23.7457692,38.1266429 C25.9296667,38.1266429 27.6992821,36.3159048 27.6992821,34.0767143 C27.6985962,31.8403333 25.9289808,30.0281905 23.7457692,30.0281905 L23.7457692,30.0281905 Z" id="red-eye" fill="#EC2227"></path>
                    <path d="M72.4870128,29.972 C70.3031154,29.972 68.5321282,31.7827381 68.5321282,34.0219286 C68.5321282,36.261119 70.3031154,38.0718571 72.4870128,38.0718571 C74.6709103,38.0718571 76.4391538,36.261119 76.4391538,34.0219286 C76.4391538,31.7827381 74.6709103,29.972 72.4870128,29.972 L72.4870128,29.972 Z" id="eye-green" fill="#07A64F"></path>
                    <g id="Group">
                        <path d="M24.3479872,22.0301786 C17.8518526,22.0301786 12.5862179,27.4244643 12.5862179,34.0760119 C12.5862179,40.7324762 17.8525385,46.1204405 24.3479872,46.1204405 C30.8454936,46.1204405 36.1111282,40.7317738 36.1111282,34.0760119 C36.1118141,27.4244643 30.8454936,22.0301786 24.3479872,22.0301786 L24.3479872,22.0301786 Z M24.3479872,42.4224048 C19.8471282,42.4224048 16.1974679,38.6857381 16.1974679,34.0760119 C16.1974679,29.4655833 19.8464423,25.7282143 24.3479872,25.7282143 C28.8502179,25.7282143 32.4998782,29.464881 32.4998782,34.0760119 C32.4998782,38.6857381 28.8509038,42.4224048 24.3479872,42.4224048 L24.3479872,42.4224048 Z M97.5407885,9.67038095 L81.3446923,9.67038095 C73.0844295,3.97828571 61.8048462,0.422833333 48.8688205,0.422833333 C35.9279936,0.422833333 23.8740321,3.97617857 15.6137692,9.67038095 L0.185192308,9.67038095 C2.7010641,12.6842976 4.56327564,16.7630238 5.02694231,19.564119 C2.11873718,23.6561905 0.395762821,28.6894524 0.395762821,34.137119 C0.395762821,47.8447857 11.2452885,58.9564524 24.629891,58.9564524 C32.2241474,58.9564524 39.0001282,55.3729048 43.4440577,49.7763333 C45.2568846,51.943881 48.2563141,56.306369 48.8640192,57.5734643 C48.8640192,57.5734643 52.3442628,52.2508214 54.3004423,49.7981071 C58.743,55.3841429 65.5134936,58.9564524 73.0981474,58.9564524 C86.4813782,58.9564524 97.3322756,47.8447857 97.3322756,34.137119 C97.3322756,28.6922619 95.6065577,23.6632143 92.6997244,19.5725476 C93.1606474,16.77075 95.022859,12.6878095 97.5407885,9.67038095 L97.5407885,9.67038095 Z M24.629891,54.1163452 C13.8551282,54.1163452 5.12091026,45.1722262 5.12091026,34.137119 C5.12091026,23.1062262 13.8551282,14.1607024 24.629891,14.1607024 C35.4046538,14.1607024 44.1402436,23.1062262 44.1402436,34.137119 C44.1402436,45.1715238 35.4046538,54.1163452 24.629891,54.1163452 L24.629891,54.1163452 Z M24.6669295,9.32410714 C31.6006667,6.23222619 40.2107372,4.56407143 48.8688205,4.56407143 C57.5419936,4.56407143 65.4003205,6.23784524 72.3422885,9.34236905 C59.3102372,9.75115476 48.8660769,20.688631 48.8640192,34.1315 C48.8612756,20.4427976 38.031641,9.34377381 24.6669295,9.32410714 L24.6669295,9.32410714 Z M73.0981474,54.1163452 C62.3220128,54.1163452 53.5877949,45.1722262 53.5877949,34.137119 C53.5877949,23.1062262 62.3220128,14.1607024 73.0981474,14.1607024 C83.8715385,14.1607024 92.6057564,23.1062262 92.6057564,34.137119 C92.6057564,45.1715238 83.8715385,54.1163452 73.0981474,54.1163452 L73.0981474,54.1163452 Z M73.0899167,21.9753929 C66.5924103,21.9753929 61.3281474,27.366869 61.3281474,34.0212262 C61.3281474,40.6720714 66.5930962,46.0656548 73.0899167,46.0656548 C79.5846795,46.0656548 84.8516859,40.671369 84.8516859,34.0212262 C84.8516859,27.366869 79.5846795,21.9753929 73.0899167,21.9753929 L73.0899167,21.9753929 Z M73.0899167,42.367619 C68.5890577,42.367619 64.9393974,38.6309524 64.9393974,34.0212262 C64.9393974,29.4093929 68.5883718,25.6720238 73.0899167,25.6720238 C77.5914615,25.6720238 81.2404359,29.4086905 81.2404359,34.0212262 C81.2404359,38.6309524 77.5907756,42.367619 73.0899167,42.367619 L73.0899167,42.367619 Z" id="head" fill="#010101"></path>
                        <g id="Copyright-R" transform="translate(100.141026, 8.130952)" fill="#000000">
                            <path d="M2.84990385,4.55704762 L2.08375641,4.55704762 L2.08375641,1.25936905 L3.22508974,1.25936905 C3.7985,1.25936905 4.52692308,1.3310119 4.52692308,2.21530952 C4.52692308,2.63392857 4.34721795,2.9535119 3.852,3.09188095 L4.62363462,4.55704762 L3.77998077,4.55704762 L3.10985897,3.20847619 L2.84990385,3.20847619 L2.84990385,4.55704762 L2.84990385,4.55704762 Z M2.84990385,2.68309524 C3.2895641,2.68309524 3.35609615,2.68309524 3.46583974,2.64727381 C3.71207692,2.5665 3.73128205,2.38669048 3.73128205,2.20688095 C3.73128205,1.97790476 3.65377564,1.86552381 3.50082051,1.81214286 C3.38010256,1.77070238 3.28407692,1.77070238 2.84990385,1.77070238 L2.84990385,2.68309524 L2.84990385,2.68309524 Z" id="Shape"></path>
                            <path d="M3.35335256,0.0217738095 C1.73532051,0.0217738095 0.424570513,1.36472619 0.424570513,3.02094048 C0.424570513,4.67645238 1.73463462,6.01870238 3.35335256,6.01870238 C4.97138462,6.01870238 6.28213462,4.67715476 6.28213462,3.02094048 C6.28213462,1.36472619 4.97138462,0.0217738095 3.35335256,0.0217738095 L3.35335256,0.0217738095 Z M3.35335256,5.4575 C2.04054487,5.4575 0.973974359,4.36670238 0.973974359,3.02094048 C0.973974359,1.67517857 2.04054487,0.584380952 3.35335256,0.584380952 C4.66616026,0.584380952 5.73273077,1.67517857 5.73273077,3.02094048 C5.73273077,4.36670238 4.66616026,5.4575 3.35335256,5.4575 L3.35335256,5.4575 Z" id="Shape"></path>
                        </g>
                    </g>
                </g>
            </g>
        </g>
    </g>
</svg>