<?xml version="1.0" encoding="UTF-8" standalone="no"?>
<svg width="120px" height="120px" viewBox="0 0 120 120" version="1.1" xmlns="http://www.w3.org/2000/svg" xmlns:xlink="http://www.w3.org/1999/xlink" xmlns:sketch="http://www.bohemiancoding.com/sketch/ns">
    <!-- Generator: Sketch 3.5.2 (25235) - http://www.bohemiancoding.com/sketch -->
    <title>Tumblr</title>
    <desc>Created with Sketch.</desc>
    <defs></defs>
    <g id="Popular-Apps" stroke="none" stroke-width="1" fill="none" fill-rule="evenodd" sketch:type="MSPage">
        <g id="iOS/iPhone-6/App-Badges/Tumblr/Large" sketch:type="MSLayerGroup">
            <g id="Tumblr" sketch:type="MSShapeGroup">
                <rect id="app-bg" fill="#36465D" x="0" y="0" width="120" height="120" rx="28"></rect>
                <path d="M79.1446514,46.7281766 L92.2659841,46.7281766 L92.2659841,62.6534866 L79.1446514,62.6534866 L79.1446514,80.6275078 C79.1446514,85.3786625 79.3927329,88.4296942 79.8949716,89.7826451 C80.3901222,91.1315115 81.365266,90.5761829 85.1436869,90.5761829 C88.9221079,90.5761829 89.7655292,89.1916274 91.6773233,88.6032537 C92.9176033,91.1999975 96.1204508,100.175005 96.8840332,102.668722 C96.1204508,103.161577 90.9100679,106.472096 88.6550046,107.003411 C85.8390253,107.667123 82.7921783,108 79.5185138,108 C75.8033653,108 73.5601254,107.527233 70.703643,106.581699 C67.8471606,105.634123 66.4565114,104.283214 64.4364184,102.534079 C62.4183505,100.780859 61.0220056,98.9173604 60.2423205,96.9415417 C59.4626355,94.9687863 58.0292049,92.1076782 58.0292049,88.3633231 L58.0292049,60.6534866 L48,60.6534866 L48,47.9953554 C51.1926583,46.9487331 53.930669,45.4507868 56.2059317,43.49539 C58.4862572,41.5440776 60.3109227,39.1955592 61.6900539,36.4539193 C63.0671599,33.7173848 64.0139202,30.2334088 64.5364105,26.0009703 L79.1446514,26.0009703 L79.1446514,46.7281766 Z" id="T-shadow" fill="#1B232E"></path>
                <path d="M71.9536462,36.7385468 L86.1642515,36.7385468 L86.1642515,58.343313 L71.9536462,58.343313 L71.9536462,74.2919245 C71.9536462,79.2749019 72.2758789,78.4575195 74.0732422,79.0004883 C75.8706055,79.543457 79.5402365,79.0004883 84.590332,79.0004883 C86.6085892,85.1572266 89.0931939,92.6126348 90.1137695,95.2280273 C89.0931931,97.2673798 84.0681152,100.20459 80.6298828,101.246094 C77.1916504,102.287598 73.5019185,103 69.1264615,103 C64.1609336,103 58.1627035,102.504165 54.3448364,101.512496 C50.5269693,100.518685 48.6682798,99.1018617 45.9682994,97.2673806 C43.2710257,95.4286159 41.4047234,93.4741921 40.3626257,91.4019675 C39.320528,89.3329556 37.4046585,86.3322458 37.4046585,82.4051927 L37.4046585,58.343313 L27,58.343313 L27,39.5 C31.2671871,37.9698649 31.9267095,37.3988295 34.96774,35.3480232 C38.0155375,33.3015005 40.0200195,30.3789062 41.2976117,27.9629786 C42.5752039,25.547051 43.4036042,21.4389515 44.101945,17 L71.9536462,17 L71.9536462,36.7385468 Z" id="T-white" fill="#FFFFFF"></path>
                <path d="M67.9273499,40.6967859 L82.4171013,40.6967859 L82.4171013,53.9291692 L67.9273499,53.9291692 L67.9273499,72.9092784 C67.9273499,77.4240146 68.1650697,80.3232262 68.6463311,81.6088539 C69.1208005,82.8906004 71.9716797,85.2136244 75.5922852,85.2136244 C79.2128906,85.2136244 80.0210843,83.8979646 81.8530273,83.3388685 C83.0415039,85.8063978 85.1523438,92.4343275 85.8840332,94.8039564 C85.1523438,95.2722868 81.1178184,97.4678334 78.9569436,97.9727107 C76.258581,98.603396 73.3389933,98.9197089 70.2020619,98.9197089 C66.6420861,98.9197089 64.4925409,98.4704669 61.7553669,97.571983 C59.0181928,96.6715585 57.6856277,95.3878714 55.749909,93.7257732 C53.816131,92.0597938 52.4781079,90.2890237 51.7309885,88.4115221 C50.983869,86.5369315 49.6103093,83.8181928 49.6103093,80.2601577 L49.6103093,53.9291692 L40,53.9291692 L40,41.9009096 C43.0593087,40.9063675 45.6829594,39.4829594 47.8631898,37.6248636 C50.0482717,35.7706489 51.7967253,33.5389933 53.1182535,30.933778 C54.4378411,28.3334142 55.3450576,25.0228017 55.8457247,21.0009703 L67.9273499,21.0009703 L67.9273499,40.6967859 Z" id="T-logo" fill="#36465D"></path>
                <rect id="3d-effect" fill="#9AA2AE" x="37.4302979" y="58.3344727" width="8.56970215" height="4.66552734"></rect>
            </g>
        </g>
    </g>
</svg>