<?xml version="1.0" encoding="UTF-8" standalone="no"?>
<svg width="120px" height="120px" viewBox="0 0 120 120" version="1.1" xmlns="http://www.w3.org/2000/svg" xmlns:xlink="http://www.w3.org/1999/xlink" xmlns:sketch="http://www.bohemiancoding.com/sketch/ns">
    <!-- Generator: Sketch 3.5.2 (25235) - http://www.bohemiancoding.com/sketch -->
    <title>Twitter</title>
    <desc>Created with Sketch.</desc>
    <defs></defs>
    <g id="Popular-Apps" stroke="none" stroke-width="1" fill="none" fill-rule="evenodd" sketch:type="MSPage">
        <g id="iOS/iPhone-6/App-Badges/Twitter/Large" sketch:type="MSLayerGroup">
            <g id="Twitter" sketch:type="MSShapeGroup">
                <rect id="app-bg" fill="#1DA1F2" x="0" y="0" width="120" height="120" rx="28"></rect>
                <path d="M102,35.8007378 C99.019724,37.1230133 95.8125758,38.0167523 92.4495961,38.4177891 C95.8824708,36.3598976 98.5201468,33.0988959 99.7610691,29.2157143 C96.5481918,31.1223576 92.989277,32.5053615 89.1989068,33.2524357 C86.1647773,30.0212252 81.8416011,28 77.061243,28 C67.872918,28 60.4262384,35.4478254 60.4262384,44.6338588 C60.4262384,45.9343637 60.5740491,47.2050773 60.8582123,48.4230832 C47.0350483,47.7298625 34.7805109,41.1093186 26.5764447,31.0455877 C25.1464622,33.5010785 24.3249098,36.357606 24.3249098,39.4066311 C24.3249098,45.1769771 27.259353,50.2678522 31.7223192,53.2515657 C28.9998525,53.1644834 26.4343631,52.4151176 24.1908489,51.169612 C24.1885573,51.239507 24.1885573,51.309402 24.1885573,51.3781511 C24.1885573,59.4366983 29.922237,66.1603659 37.531623,67.6888889 C36.1348693,68.0647176 34.6659289,68.2709651 33.1488642,68.2709651 C32.0775231,68.2709651 31.0359734,68.1666955 30.0184859,67.973052 C32.1371057,74.5798461 38.279843,79.3899955 45.5569414,79.5240564 C39.8633653,83.9847309 32.6939739,86.6430317 24.900111,86.6430317 C23.5595025,86.6430317 22.2349354,86.5628243 20.9332846,86.4115762 C28.2940278,91.1300601 37.0366291,93.882318 46.427764,93.882318 C77.0188477,93.882318 93.7523927,68.5390868 93.7523927,46.5611268 C93.7523927,45.8392607 93.7329138,45.1219778 93.7019766,44.4081324 C96.952666,42.0649319 99.7713815,39.1339261 102,35.8007378 L102,35.8007378 Z" id="twitter-bird" fill="#FFFFFF"></path>
            </g>
        </g>
    </g>
</svg>