<?xml version="1.0" encoding="UTF-8" standalone="no"?>
<svg width="120px" height="120px" viewBox="0 0 120 120" version="1.1" xmlns="http://www.w3.org/2000/svg" xmlns:xlink="http://www.w3.org/1999/xlink" xmlns:sketch="http://www.bohemiancoding.com/sketch/ns">
    <!-- Generator: Sketch 3.5.2 (25235) - http://www.bohemiancoding.com/sketch -->
    <title>Uber</title>
    <desc>Created with Sketch.</desc>
    <defs>
        <linearGradient x1="5.50537109%" y1="6.26027961%" x2="94.4316663%" y2="94.2222194%" id="linearGradient-1">
            <stop stop-color="#0F3947" offset="0%"></stop>
            <stop stop-color="#0A2A36" offset="100%"></stop>
        </linearGradient>
        <rect id="path-2" x="0" y="0" width="120" height="120" rx="28"></rect>
    </defs>
    <g id="Popular-Apps" stroke="none" stroke-width="1" fill="none" fill-rule="evenodd" sketch:type="MSPage">
        <g id="iOS/iPhone-6/App-Badges/Uber/Large" sketch:type="MSLayerGroup">
            <g id="Uber">
                <mask id="mask-3" sketch:name="app-bg" fill="white">
                    <use xlink:href="#path-2"></use>
                </mask>
                <use id="app-bg" fill="url(#linearGradient-1)" sketch:type="MSShapeGroup" xlink:href="#path-2"></use>
                <g id="Lines" mask="url(#mask-3)" sketch:type="MSShapeGroup">
                    <g transform="translate(-32.789474, -33.842105)">
                        <path d="M116.752478,186.226162 C102.878588,172.352273 102.877271,149.859572 116.756196,135.980646 L135.191172,117.54567 C149.067115,103.669727 171.559748,103.665012 185.436688,117.541951" id="lower-right" stroke="#118A92" stroke-width="2"></path>
                        <path d="M0.0682672264,117.17353 C13.9421565,103.299641 36.4348577,103.298323 50.3137835,117.177249 L68.7487591,135.612225 C82.6247022,149.488168 82.6294176,171.980801 68.7524778,185.857741" id="lower-left" stroke="#118A92" stroke-width="2"></path>
                        <path d="M184.805109,70.0156356 C170.93122,83.889525 148.438519,83.8908428 134.559593,70.011917 L116.124617,51.5769414 C102.248674,37.7009983 102.243959,15.2083649 116.120899,1.33142512" id="top-right" stroke="#118A92" stroke-width="2"></path>
                        <path d="M69.9630041,0.699846174 C83.8368934,14.5737355 83.8382112,37.0664366 69.9592854,50.9453625 L51.5243098,69.380338 C37.6483668,83.2562811 15.1557333,83.2609965 1.27879354,69.3840567" id="top-left" stroke="#118A92" stroke-width="2"></path>
                        <path d="M45.5486004,151.581875 C46.588063,144.592841 49.0905802,137.852683 53.7958215,132.554507 L91.9343268,90.7842438 C92.5928246,90.0427648 93.6624205,90.0269415 94.3319993,90.7583648 L128.011154,128.375796 C134.029845,134.950392 138.27308,142.772826 140.37462,151.075254" id="Rectangle-7" stroke="#118A92" stroke-width="0.9"></path>
                        <path d="M45.5832014,97.1679007 C46.6430181,90.2607594 49.1419964,83.6098392 53.7958215,78.3695582 L91.9343268,36.5992953 C92.5928246,35.8578163 93.6624205,35.8419931 94.3319993,36.5734163 L128.011154,74.1908473 C134.036759,80.772996 138.282827,88.6058508 140.381854,96.9189191" id="Rectangle-7" stroke="#118A92" stroke-width="0.9" transform="translate(92.982528, 66.600904) scale(1, -1) translate(-92.982528, -66.600904) "></path>
                        <path d="M14.9272884,121.869358 C16.9579558,113.464128 20.7690966,104.66534 25.4521906,99.5574516 L60.8070049,66.5012313 C61.4868192,65.7597524 62.5910395,65.7439291 63.2822936,66.4753524 C63.2822936,66.4753524 90.7694711,92.4492286 97.6977964,98.3889946 C102.274569,102.312736 107.099731,111.601563 109.916442,121.006957" id="Rectangle-7" stroke="#118A92" stroke-width="0.9" transform="translate(62.421865, 93.902601) rotate(-270.000000) translate(-62.421865, -93.902601) "></path>
                        <path d="M75.5860944,121.000914 C77.730004,113.028778 81.4504864,104.90582 85.9653619,100.078892 L122.034189,67.0226716 C122.727732,66.2811926 123.854253,66.2653693 124.559468,66.9967926 C124.559468,66.9967926 152.601766,92.9706688 159.670013,98.9104348 C164.181183,102.701374 168.928896,111.500371 171.836691,120.573999" id="Rectangle-7" stroke="#118A92" stroke-width="0.9" transform="translate(123.711393, 93.729098) rotate(-90.000000) translate(-123.711393, -93.729098) "></path>
                        <path d="M92.7894737,33.8421053 L92.7894737,153.842105" id="Line" stroke="#0F5E68" stroke-width="2"></path>
                        <path d="M152.789474,93.8421053 L32.7894737,93.8421053" id="Line" stroke="#0F5E68" stroke-width="2"></path>
                    </g>
                </g>
                <g id="Uber-logo" mask="url(#mask-3)" sketch:type="MSShapeGroup">
                    <g transform="translate(24.000000, 24.000000)">
                        <circle id="circle" fill="#FFFFFF" cx="36.3947368" cy="36.3947368" r="35.9210526"></circle>
                        <path d="M0.868421053,33.8947368 L25.7368421,33.8947368 L25.7368421,27.742365 C25.7368421,26.6347453 26.6320309,25.7368421 27.742365,25.7368421 L44.257635,25.7368421 C45.3652547,25.7368421 46.2631579,26.6320309 46.2631579,27.742365 L46.2631579,44.257635 C46.2631579,45.3652547 45.3679691,46.2631579 44.257635,46.2631579 L27.742365,46.2631579 C26.6347453,46.2631579 25.7368421,45.3679691 25.7368421,44.257635 L25.7368421,38.8947368 L25.7368421,37.8947368 L0.868421053,37.8947368 L0.559324864,37.8947372 C0.502543419,37.0687689 0.473684211,37.2351229 0.473684211,36.3947368 C0.473684211,35.5543508 0.502543421,34.7207051 0.559324866,33.8947368 L0.868421053,33.8947368 Z" id="Bit" fill="#103B49"></path>
                    </g>
                </g>
            </g>
        </g>
    </g>
</svg>