<?xml version="1.0" encoding="UTF-8" standalone="no"?>
<svg width="120px" height="120px" viewBox="0 0 120 120" version="1.1" xmlns="http://www.w3.org/2000/svg" xmlns:xlink="http://www.w3.org/1999/xlink" xmlns:sketch="http://www.bohemiancoding.com/sketch/ns">
    <!-- Generator: Sketch 3.5.2 (25235) - http://www.bohemiancoding.com/sketch -->
    <title>Videos</title>
    <desc>Created with Sketch.</desc>
    <defs>
        <linearGradient x1="50%" y1="2.56098533%" x2="50%" y2="100%" id="linearGradient-1">
            <stop stop-color="#5AC7FB" offset="0%"></stop>
            <stop stop-color="#53EDC7" offset="100%"></stop>
        </linearGradient>
        <rect id="path-2" x="0" y="0" width="120" height="120" rx="28"></rect>
        <linearGradient x1="50%" y1="100%" x2="50%" y2="3.72226823%" id="linearGradient-4">
            <stop stop-color="#010101" offset="0%"></stop>
            <stop stop-color="#313131" offset="100%"></stop>
        </linearGradient>
        <filter x="-50%" y="-50%" width="200%" height="200%" filterUnits="objectBoundingBox" id="filter-5">
            <feOffset dx="0" dy="1" in="SourceAlpha" result="shadowOffsetOuter1"></feOffset>
            <feGaussianBlur stdDeviation="2" in="shadowOffsetOuter1" result="shadowBlurOuter1"></feGaussianBlur>
            <feColorMatrix values="0 0 0 0 0   0 0 0 0 0   0 0 0 0 0  0 0 0 0.175 0" in="shadowBlurOuter1" type="matrix" result="shadowMatrixOuter1"></feColorMatrix>
            <feMerge>
                <feMergeNode in="shadowMatrixOuter1"></feMergeNode>
                <feMergeNode in="SourceGraphic"></feMergeNode>
            </feMerge>
        </filter>
        <linearGradient x1="14.6446615%" y1="100%" x2="14.6446615%" y2="0%" id="linearGradient-6">
            <stop stop-color="#F2F2F2" offset="0%"></stop>
            <stop stop-color="#F7F7F7" offset="100%"></stop>
        </linearGradient>
    </defs>
    <g id="Popular-Apps" stroke="none" stroke-width="1" fill="none" fill-rule="evenodd" sketch:type="MSPage">
        <g id="iOS/iPhone-6/App-Badges/Videos/Large" sketch:type="MSLayerGroup">
            <g id="Videos">
                <mask id="mask-3" sketch:name="app-bg" fill="white">
                    <use xlink:href="#path-2"></use>
                </mask>
                <use id="app-bg" fill="url(#linearGradient-1)" sketch:type="MSShapeGroup" xlink:href="#path-2"></use>
                <rect id="warning-bg" fill="url(#linearGradient-4)" filter="url(#filter-5)" sketch:type="MSShapeGroup" mask="url(#mask-3)" x="0" y="0" width="120" height="38" rx="28"></rect>
                <path d="M22.3137085,37 L40.3137085,19 L17.6862915,19 L-0.313708499,37 L22.3137085,37 Z M22.3137085,0 L40.3137085,18 L17.6862915,18 L-0.313708499,0 L22.3137085,0 Z M64.3137085,37 L82.3137085,19 L59.6862915,19 L41.6862915,37 L64.3137085,37 Z M64.3137085,0 L82.3137085,18 L59.6862915,18 L41.6862915,0 L64.3137085,0 Z M106.313708,37 L124.313708,19 L101.686292,19 L83.6862915,37 L106.313708,37 Z M106.313708,0 L124.313708,18 L101.686292,18 L83.6862915,0 L106.313708,0 Z" id="warning-fg" fill="url(#linearGradient-6)" sketch:type="MSShapeGroup" mask="url(#mask-3)"></path>
                <path d="M0.5,37.5 L119.5,37.5" id="line" stroke="#474747" stroke-linecap="square" fill="url(#linearGradient-4)" sketch:type="MSShapeGroup" mask="url(#mask-3)"></path>
            </g>
        </g>
    </g>
</svg>