<?xml version="1.0" encoding="UTF-8" standalone="no"?>
<svg width="120px" height="120px" viewBox="0 0 120 120" version="1.1" xmlns="http://www.w3.org/2000/svg" xmlns:xlink="http://www.w3.org/1999/xlink" xmlns:sketch="http://www.bohemiancoding.com/sketch/ns">
    <!-- Generator: Sketch 3.5.2 (25235) - http://www.bohemiancoding.com/sketch -->
    <title>WhatsApp</title>
    <desc>Created with Sketch.</desc>
    <defs>
        <linearGradient x1="50%" y1="100%" x2="50%" y2="0%" id="linearGradient-1">
            <stop stop-color="#05B623" offset="0%"></stop>
            <stop stop-color="#64FF80" offset="100%"></stop>
        </linearGradient>
    </defs>
    <g id="Popular-Apps" stroke="none" stroke-width="1" fill="none" fill-rule="evenodd" sketch:type="MSPage">
        <g id="iOS/iPhone-6/App-Badges/WhatsApp/Large" sketch:type="MSLayerGroup">
            <g id="WhatsApp" sketch:type="MSShapeGroup">
                <rect id="app-bg" fill="url(#linearGradient-1)" x="0" y="0" width="120" height="120" rx="28"></rect>
                <path d="M91.3413825,28.6430903 C83.2705959,20.4950071 72.5394182,16.0042379 61.103937,16 C37.5440733,16 18.3682541,35.3375712 18.3584527,59.1079936 C18.3556523,66.7065614 20.3243417,74.1228993 24.0642916,80.6605777 L18,103 L40.6595313,97.0047737 C46.9030493,100.438891 53.9320826,102.248478 61.0857344,102.252716 L61.103937,102.252716 C61.1053372,102.252716 61.1025368,102.252716 61.103937,102.252716 C84.6624005,102.252716 103.83962,82.9123192 103.848021,59.1418968 C103.853622,47.6232647 99.412169,36.7925861 91.3413825,28.6430903 L91.3413825,28.6430903 Z" id="speak-bubble" stroke="#FFFFFF" stroke-width="7"></path>
                <path d="M80.6843387,68.2535806 C79.5890645,67.7052258 74.206,65.0581935 73.2025968,64.6921452 C72.1991935,64.3275323 71.4685323,64.1437903 70.7393065,65.2405 C70.0100806,66.3357742 67.9114032,68.8019355 67.2726129,69.5325968 C66.6338226,70.2632581 65.9950323,70.355129 64.8997581,69.8067742 C63.8044839,69.2584194 60.2760645,68.1028548 56.0945,64.3734677 C52.8388226,61.4709194 50.6425323,57.8865161 50.0037419,56.7898065 C49.3649516,55.6930968 49.9362742,55.1016774 50.484629,54.5561935 C50.977,54.0652581 51.5799032,53.2771774 52.1268226,52.6383871 C52.6737419,51.9995968 52.8574839,51.5431129 53.2220968,50.8124516 C53.5867097,50.0817903 53.4044032,49.443 53.1302258,48.8946452 C52.8560484,48.3462903 50.6669355,42.9589194 49.7539677,40.7669355 C48.8654032,38.632371 47.9624839,38.9209032 47.2906774,38.8878871 C46.6533226,38.8563065 45.9226613,38.849129 45.192,38.849129 C44.4613387,38.849129 43.275629,39.1233065 42.2722258,40.2185806 C41.2688226,41.3138548 38.4394839,43.9623226 38.4394839,49.3496935 C38.4394839,54.7370645 42.3626613,59.942129 42.9110161,60.6727903 C43.4579355,61.4034516 50.6324839,72.4595484 61.615371,77.2009516 C64.2279516,78.3292419 66.2677742,79.0024839 67.8568548,79.5063387 C70.4794839,80.3389194 72.8666935,80.2212097 74.7543548,79.9398548 C76.8587742,79.6254839 81.2326935,77.2913871 82.1456613,74.7347903 C83.058629,72.1781935 83.058629,69.9862097 82.7844516,69.5297258 C82.5102742,69.0746774 81.7796129,68.8005 80.6843387,68.2535806 L80.6843387,68.2535806 Z" id="phone" fill="#FFFFFF"></path>
            </g>
        </g>
    </g>
</svg>