<?xml version="1.0" encoding="UTF-8" standalone="no"?>
<svg width="120px" height="120px" viewBox="0 0 120 120" version="1.1" xmlns="http://www.w3.org/2000/svg" xmlns:xlink="http://www.w3.org/1999/xlink" xmlns:sketch="http://www.bohemiancoding.com/sketch/ns">
    <!-- Generator: Sketch 3.5.2 (25235) - http://www.bohemiancoding.com/sketch -->
    <title>Yoga Studio</title>
    <desc>Created with Sketch.</desc>
    <defs></defs>
    <g id="Popular-Apps" stroke="none" stroke-width="1" fill="none" fill-rule="evenodd" sketch:type="MSPage">
        <g id="iOS/iPhone-6/App-Badges/Yoga-Studio/Large" sketch:type="MSLayerGroup" transform="translate(-8.000000, 0.000000)">
            <g id="Yoga-Studio" transform="translate(8.000000, 0.000000)" sketch:type="MSShapeGroup">
                <rect id="app-bg" fill="#FFFFFF" x="0" y="0" width="120" height="120" rx="28"></rect>
                <g id="Leafs-bg" transform="translate(9.000000, 25.000000)" stroke-width="0.5">
                    <path d="M25,38.5 C13.6365957,38 3.92168355,45.2929687 0,51 C3.92168355,57.0253912 13.6365957,63 25,63 C36.3634043,63 46.4580078,55.4760742 50,51 C46.4580078,45.5883789 36.3634043,38 25,38.5 Z" id="leaf-1" stroke="#3A9A25" fill="#43B02A"></path>
                    <path d="M32,20.5004728 C20.6365957,19.9907759 10.9216835,27.425183 7,33.2428953 C10.9216835,39.3851417 20.6365957,45.4756209 32,45.4756209 C43.3634043,45.4756209 53.4580078,37.8057776 57,33.2428953 C53.4580078,27.7263223 43.3634043,19.9907759 32,20.5004728 Z" id="leaf-2" stroke="#3A9A25" fill="#43B02A" transform="translate(32.000000, 32.975621) rotate(-315.000000) translate(-32.000000, -32.975621) "></path>
                    <path d="M50.3581256,13.1432314 C38.9947213,12.6335345 28.5644422,19.803438 24.6427586,24.9928912 C28.5644422,31.1351377 38.9947213,38.1183795 50.3581256,38.1183795 C61.7215298,38.1183795 71.8161334,30.4485362 75.3581256,25.8856539 C71.8161334,20.3690809 61.7215298,12.6335345 50.3581256,13.1432314 Z" id="leaf-3" stroke="#CE3596" fill="#ED35AB" transform="translate(50.000442, 25.617937) rotate(-270.000000) translate(-50.000442, -25.617937) "></path>
                    <path d="M68,20.5004728 C56.6365957,19.9907759 46.9216835,27.425183 43,33.2428953 C46.9216835,39.3851417 56.6365957,45.4756209 68,45.4756209 C79.3634043,45.4756209 89.4580078,37.8057776 93,33.2428953 C89.4580078,27.7263223 79.3634043,19.9907759 68,20.5004728 Z" id="leaf-4" stroke="#3A9A25" fill="#43B02A" transform="translate(68.000000, 32.975621) scale(-1, 1) rotate(-315.000000) translate(-68.000000, -32.975621) "></path>
                    <path d="M75,38.5 C63.6365957,38 53.9216835,45.2929687 50,51 C53.9216835,57.0253912 63.6365957,63 75,63 C86.3634043,63 96.4580078,55.4760742 100,51 C96.4580078,45.5883789 86.3634043,38 75,38.5 Z" id="leaf-5" stroke="#3A9A25" fill="#43B02A" transform="translate(75.000000, 50.737810) scale(-1, 1) translate(-75.000000, -50.737810) "></path>
                </g>
                <path d="M59.511322,75.842282 C65.2423337,76.5641603 77.8036946,74.8495958 85.8388348,66.8144556 C86.8306026,65.8226878 87.7390021,64.7830685 88.5665515,63.709138 C87.0824071,63.5092548 85.5566716,63.4315051 84,63.5 C76.7101169,63.1792386 69.9424107,66.1872618 65.0919114,69.8138715 C68.7650698,64.9683594 71.8005639,58.2305832 71.4751481,50.9756209 C71.5460918,49.3939704 71.4682562,47.8303977 71.2676898,46.2999371 C70.1804373,47.1491214 69.1443527,48.0980528 68.1787382,49.1543591 C61.691392,55.0847185 59.2208991,63.9605494 59.0771979,70.6441977 C58.7752016,63.9465509 56.3034916,55.0800413 49.8212618,49.1543591 C48.8957821,48.1419571 47.9055686,47.2281897 46.8676154,46.4063412 C46.6290938,47.902842 46.5,49.4306064 46.5,50.9756209 C46.5,58.370004 49.7476818,65.2271322 53.2736334,70.0911183 C48.4007395,66.342074 41.4748775,63.1710987 34,63.5 C32.4433284,63.4315051 30.9175929,63.5092548 29.4334485,63.709138 C30.2609979,64.7830685 31.1693974,65.8226878 32.1611652,66.8144556 C40.1963054,74.8495958 52.7576663,76.5641603 58.4997173,75.7912109 C58.797424,75.6531991 59.2284543,75.7094735 59.511322,75.842282 Z" id="Path" fill="#FFFFFF"></path>
            </g>
        </g>
    </g>
</svg>