<?xml version="1.0" encoding="UTF-8" standalone="no"?>
<svg width="120px" height="120px" viewBox="0 0 120 120" version="1.1" xmlns="http://www.w3.org/2000/svg" xmlns:xlink="http://www.w3.org/1999/xlink" xmlns:sketch="http://www.bohemiancoding.com/sketch/ns">
    <!-- Generator: Sketch 3.5.2 (25235) - http://www.bohemiancoding.com/sketch -->
    <title>Zeplin</title>
    <desc>Created with Sketch.</desc>
    <defs></defs>
    <g id="Popular-Apps" stroke="none" stroke-width="1" fill="none" fill-rule="evenodd" sketch:type="MSPage">
        <g id="iOS/iPhone-6/App-Badges/Zeplin/Large" sketch:type="MSLayerGroup">
            <g id="Zeplin" sketch:type="MSShapeGroup">
                <rect id="app-bg" fill="#FDBD39" x="0" y="0" width="120" height="120" rx="28"></rect>
                <g id="Zeplin-logo" transform="translate(17.000000, 27.000000)">
                    <path d="M24.5523385,41.5767 L8.77464615,47.1141 L8.53186154,60.00126 L32.6515538,51.5361 C28.6571846,48.5067 26.0295538,45.4905 24.5523385,41.57802" id="Shape" fill="#FECF33"></path>
                    <path d="M0,37.39362 L8.77398462,47.11542 L24.5516769,41.5767 C22.9110615,37.22928 22.7079692,32.86998 23.8921231,29.00766 L0,37.3956" id="Shape" fill="#F69833"></path>
                    <path d="M41.9627077,13.31022 C22.0451077,20.3016 9.20332308,34.72722 13.2823692,45.53274 L85.4099077,20.21514 C81.3321846,9.40896 61.8803077,6.31752 41.9627077,13.3089" id="Shape" fill="#FECF33"></path>
                    <path d="M85.4575385,20.2158 L13.33,45.5334 C17.4315385,56.40162 36.8596,59.42904 56.7778615,52.437 C76.6954615,45.44628 88.5528769,31.25892 85.4582,20.2158 L85.4575385,20.2158 Z" id="Shape" fill="#EE6723"></path>
                    <path d="M85.4112308,20.2158 L13.2823692,45.5334 C14.6940923,49.2756 20.0803385,51.11898 27.6377538,51.11898 C35.0053077,51.11898 44.4362,49.36734 54.2686462,45.9162 C74.1862462,38.92482 88.1989538,27.60582 85.4105692,20.2158" id="Shape" fill="#F69833"></path>
                    <path d="M71.0545231,14.6289 C63.6869692,14.6289 54.2560769,16.37988 44.4236308,19.83102 C24.5060308,26.8224 10.4933231,38.14206 13.2823692,45.53274 L85.4099077,20.21514 C83.9981846,16.47096 78.6119385,14.62758 71.0545231,14.62758" id="Shape" fill="#FDBD39"></path>
                    <path d="M51.7799385,64.83378 C50.1677692,64.96974 48.1348615,61.71858 46.3553231,56.1363 C44.4567077,50.18772 42.9834615,42.18258 42.2041692,33.5973 C41.4255385,25.0107 41.4354615,16.8795 42.2326154,10.70388 C42.9801538,4.90908 44.3932,1.36686 46.01,1.2309 C47.7068462,1.08966 49.8231077,4.6167 51.6661538,10.67352 C52.0008923,10.60884 52.3356308,10.54548 52.6690462,10.48674 C51.2216,5.73144 48.8023538,0.05214 45.9266462,0.30756 C43.1534769,0.5412 41.8694308,6.02712 41.2806615,10.58838 C40.4768923,16.82736 40.4656462,25.02654 41.2502308,33.67518 C42.0348154,42.32514 43.5219538,50.39826 45.4377692,56.40756 C46.8091385,60.70416 48.9935385,65.76174 51.6840154,65.76174 C51.7435538,65.76174 51.8044154,65.75976 51.8652769,65.75514 C55.2292,65.47134 56.4074,57.3969 56.8102769,52.60992 L55.8536923,52.53468 C55.1061538,61.41168 53.2604615,64.70706 51.7786154,64.8318" id="Shape" fill="#EE6723"></path>
                    <path d="M65.9223077,48.4473 C68.5459692,54.22692 69.2789538,58.2384 67.8804615,59.18154 C66.5507692,60.07914 63.1087846,58.24104 58.6738308,54.26454 C53.9464769,50.02734 48.5192154,43.80618 43.3936154,36.7455 C38.2666923,29.68548 34.0612923,22.63998 31.5494308,16.9059 C29.1943538,11.5269 28.5791231,7.7781 29.9108,6.8805 C31.1114923,6.07002 34.6447692,7.40454 40.9730462,13.53066 C41.0074462,13.12476 41.0438308,12.72546 41.0835231,12.33276 C37.4933538,8.9364 31.9212154,4.39494 29.3610615,6.12216 C27.0800769,7.66326 28.8119846,13.03236 30.6676,17.26692 C33.2052615,23.05842 37.4457231,30.16464 42.6096923,37.2768 C47.7723385,44.38896 53.2472308,50.6616 58.0215538,54.94368 C60.9151231,57.53748 64.5972462,60.32136 67.0727231,60.3207 C67.5821077,60.3207 68.0425385,60.2019 68.4328462,59.9379 C70.8077692,58.3341 68.8588769,52.52148 66.7955385,47.9787 C66.5071077,48.13578 66.2160308,48.29154 65.9223077,48.44598" id="Shape" fill="#EE6723"></path>
                </g>
            </g>
        </g>
    </g>
</svg>